<?xml version="1.0" encoding="UTF-8" standalone="no"?>
<!DOCTYPE svg PUBLIC "-//W3C//DTD SVG 1.1//EN" "http://www.w3.org/Graphics/SVG/1.1/DTD/svg11.dtd">
<svg width="100%" height="100%" viewBox="0 0 298 240" version="1.1" xmlns="http://www.w3.org/2000/svg" xmlns:xlink="http://www.w3.org/1999/xlink" xml:space="preserve" xmlns:serif="http://www.serif.com/" style="fill-rule:evenodd;clip-rule:evenodd;stroke-linejoin:round;stroke-miterlimit:2;">
    <g transform="matrix(1,0,0,1,-851.051,-836.699)">
        <g transform="matrix(1,0,0,1,1062.69,1032.27)">
            <path d="M0,-22.054L0,-16.582C0,-7.44 7.439,0 16.582,0L22.055,0L22.055,-5.472C22.055,-14.616 14.615,-22.054 5.472,-22.054L0,-22.054ZM23.693,3.277L16.582,3.277C5.632,3.277 -3.277,-5.632 -3.277,-16.582L-3.277,-23.693C-3.277,-24.598 -2.543,-25.331 -1.639,-25.331L5.472,-25.331C16.423,-25.331 25.332,-16.422 25.332,-5.472L25.332,1.638C25.332,2.543 24.598,3.277 23.693,3.277" style="fill:rgb(255,255,255);fill-rule:nonzero;"/>
        </g>
        <g transform="matrix(1,0,0,1,1015.32,869.505)">
            <path d="M0,121.903L-24.175,121.903C-25.079,121.903 -25.813,121.169 -25.813,120.264C-25.813,119.359 -25.079,118.625 -24.175,118.625L0,118.625C45.475,118.625 82.472,81.628 82.472,36.153L82.472,1.638C82.472,0.733 83.205,0 84.11,0C85.016,0 85.749,0.733 85.749,1.638L85.749,36.153C85.749,83.435 47.282,121.903 0,121.903" style="fill:rgb(255,255,255);fill-rule:nonzero;"/>
        </g>
        <g transform="matrix(1,0,0,1,901.519,836.699)">
            <path d="M0,154.678C-0.42,154.678 -0.839,154.519 -1.159,154.199C-1.799,153.558 -1.799,152.521 -1.159,151.881L107.937,42.79L140.604,10.116C147.127,3.593 155.799,0 165.023,0C179.821,0 192.947,9.3 197.687,23.142C197.98,23.998 197.524,24.93 196.668,25.223C195.811,25.517 194.88,25.061 194.587,24.204C190.301,11.687 178.42,3.278 165.023,3.278C156.675,3.278 148.825,6.529 142.922,12.433L110.254,45.107L1.158,154.199C0.839,154.519 0.419,154.678 0,154.678" style="fill:rgb(255,255,255);fill-rule:nonzero;"/>
        </g>
        <g transform="matrix(1,0,0,1,872.451,996.744)">
            <path d="M0,79.171C-7.565,79.171 -15.136,76.32 -20.914,70.61C-21.228,70.3 -21.403,69.876 -21.4,69.434C-21.398,68.992 -21.217,68.57 -20.898,68.264L49.402,0.626C50.055,0 51.093,0.019 51.72,0.671C52.347,1.323 52.327,2.361 51.675,2.988L-17.377,69.423C-6.997,78.456 8.849,78.025 18.706,68.169L86.993,2.545C87.645,1.919 88.683,1.94 89.31,2.591C89.938,3.244 89.916,4.281 89.264,4.908L21,70.509C15.229,76.28 7.616,79.171 0,79.171" style="fill:rgb(255,255,255);fill-rule:nonzero;"/>
        </g>
        <g transform="matrix(1,0,0,1,872.605,987.931)">
            <path d="M0,52.38C-5.941,52.38 -11.888,50.141 -16.426,45.656C-16.739,45.346 -16.915,44.923 -16.913,44.481C-16.91,44.04 -16.73,43.618 -16.413,43.312L27.776,0.629C28.427,0 29.464,0.017 30.094,0.669C30.723,1.32 30.704,2.358 30.054,2.986L-12.879,44.455C-5.001,51.037 6.81,50.624 14.192,43.24L49.248,9.441C49.899,8.813 50.937,8.832 51.565,9.482C52.193,10.134 52.174,11.171 51.522,11.799L16.488,45.579C11.958,50.109 5.98,52.38 0,52.38" style="fill:rgb(255,255,255);fill-rule:nonzero;"/>
        </g>
        <g transform="matrix(1,0,0,1,946.235,883.752)">
            <path d="M0,119.455C-15.617,119.455 -31.322,115.513 -45.528,107.41C-46.314,106.962 -46.588,105.961 -46.14,105.175C-45.691,104.389 -44.69,104.116 -43.904,104.563C-9.199,124.357 34.81,118.411 63.118,90.104C88.522,64.699 88.567,23.406 63.217,-1.945C62.576,-2.585 62.576,-3.623 63.217,-4.262C63.855,-4.902 64.894,-4.902 65.533,-4.262C92.162,22.366 92.118,65.738 65.436,92.421C47.672,110.184 23.942,119.455 0,119.455" style="fill:rgb(255,255,255);fill-rule:nonzero;"/>
        </g>
        <g transform="matrix(1,0,0,1,1063.57,860.678)">
            <path d="M0,-5.612C-1.546,-5.612 -2.805,-4.353 -2.805,-2.806C-2.805,-1.259 -1.546,-0.001 0,-0.001C1.548,-0.001 2.806,-1.259 2.806,-2.806C2.806,-4.353 1.548,-5.612 0,-5.612M0,3.277C-3.354,3.277 -6.082,0.548 -6.082,-2.806C-6.082,-6.161 -3.354,-8.889 0,-8.889C3.354,-8.889 6.083,-6.161 6.083,-2.806C6.083,0.548 3.354,3.277 0,3.277" style="fill:rgb(255,255,255);fill-rule:nonzero;"/>
        </g>
        <g transform="matrix(1,0,0,1,1118.3,988.132)">
            <path d="M0,3.278L-127.159,3.278C-128.063,3.278 -128.798,2.544 -128.798,1.639C-128.798,0.734 -128.063,0 -127.159,0L0,0C0.905,0 1.639,0.734 1.639,1.639C1.639,2.544 0.905,3.278 0,3.278" style="fill:rgb(255,255,255);fill-rule:nonzero;"/>
        </g>
        <g transform="matrix(1,0,0,1,1061.05,987.937)">
            <path d="M0,22.279C-0.376,22.279 -0.753,22.15 -1.062,21.887L-23.115,3.081C-23.804,2.494 -23.886,1.459 -23.299,0.771C-22.712,0.082 -21.678,0 -20.988,0.587L1.064,19.393C1.753,19.981 1.835,21.014 1.248,21.704C0.924,22.084 0.464,22.279 0,22.279" style="fill:rgb(255,255,255);fill-rule:nonzero;"/>
        </g>
        <g transform="matrix(1,0,0,1,1121.18,1019.95)">
            <path d="M0,-16.75C-1.231,-12.496 -0.733,-8.016 1.403,-4.137C3.541,-0.257 7.061,2.558 11.315,3.79L16.571,5.312L18.094,0.056C20.637,-8.727 15.561,-17.94 6.778,-20.484L1.522,-22.006L0,-16.75ZM17.689,8.981C17.539,8.981 17.386,8.96 17.233,8.916L10.403,6.937C5.309,5.463 1.093,2.092 -1.467,-2.555C-4.026,-7.201 -4.623,-12.566 -3.147,-17.662L-1.17,-24.493C-1.049,-24.909 -0.767,-25.262 -0.386,-25.472C-0.007,-25.682 0.443,-25.731 0.86,-25.61L7.689,-23.632C18.208,-20.586 24.287,-9.551 21.241,0.968L19.263,7.798C19.056,8.515 18.4,8.981 17.689,8.981" style="fill:rgb(255,255,255);fill-rule:nonzero;"/>
        </g>
        <g transform="matrix(1,0,0,1,1121.59,987.899)">
            <path d="M0,9.651C-0.586,9.651 -1.151,9.337 -1.447,8.785L-4.731,2.645C-5.158,1.847 -4.857,0.854 -4.059,0.427C-3.259,0 -2.268,0.302 -1.841,1.099L1.443,7.239C1.87,8.037 1.569,9.03 0.771,9.457C0.525,9.589 0.26,9.651 0,9.651" style="fill:rgb(255,255,255);fill-rule:nonzero;"/>
        </g>
        <g transform="matrix(1,0,0,1,1145.34,982.888)">
            <path d="M0,-23.23L-5.464,-22.924C-9.886,-22.677 -13.947,-20.722 -16.899,-17.42C-19.851,-14.118 -21.34,-9.864 -21.093,-5.442L-20.787,0.021L-15.324,-0.285C-10.901,-0.532 -6.84,-2.486 -3.889,-5.789C-0.937,-9.09 0.553,-13.344 0.306,-17.767L0,-23.23ZM-22.332,3.388C-22.733,3.388 -23.122,3.241 -23.424,2.971C-23.748,2.682 -23.943,2.275 -23.968,1.841L-24.365,-5.258C-24.662,-10.555 -22.878,-15.649 -19.343,-19.605C-15.807,-23.559 -10.942,-25.9 -5.646,-26.197L1.453,-26.594C1.89,-26.618 2.313,-26.469 2.637,-26.18C2.961,-25.89 3.156,-25.484 3.181,-25.05L3.578,-17.95C3.874,-12.653 2.09,-7.559 -1.444,-3.604C-4.98,0.351 -9.844,2.692 -15.141,2.988L-22.24,3.386C-22.271,3.387 -22.301,3.388 -22.332,3.388" style="fill:rgb(255,255,255);fill-rule:nonzero;"/>
        </g>
        <g transform="matrix(1,0,0,1,1118.3,982.818)">
            <path d="M0,8.592C-0.396,8.592 -0.792,8.449 -1.106,8.161C-1.774,7.55 -1.819,6.513 -1.208,5.846L3.496,0.713C4.107,0.045 5.145,0 5.812,0.612C6.479,1.223 6.524,2.259 5.913,2.926L1.208,8.06C0.885,8.413 0.443,8.592 0,8.592" style="fill:rgb(255,255,255);fill-rule:nonzero;"/>
        </g>
        <g transform="matrix(1,0,0,1,1088.1,865.012)">
            <path d="M0.033,0.237C0.144,0.899 0.502,2.169 0.633,2.634C0.711,2.91 0.771,3.128 0.802,3.25C1.419,5.767 2.283,6.485 5.004,6.745C6.631,6.901 8.355,5.983 9.979,5.032C11.811,3.957 13.629,2.82 15.404,1.641C10.128,-3.557 7.086,-5.101 1.738,-1.354C1.466,-1.156 0.493,-0.265 0.033,0.237M5.375,10.04C5.149,10.04 4.923,10.029 4.693,10.007C0.614,9.619 -1.435,7.887 -2.382,4.03C-2.406,3.929 -2.458,3.751 -2.521,3.524C-3.29,0.798 -3.42,-0.1 -3.152,-0.844C-2.741,-1.984 -0.166,-4.021 -0.142,-4.039C8.51,-10.1 13.91,-4.589 19.134,0.741C19.472,1.086 19.641,1.564 19.594,2.045C19.548,2.526 19.291,2.962 18.894,3.237C16.543,4.858 14.101,6.413 11.636,7.858C9.817,8.925 7.707,10.04 5.375,10.04" style="fill:rgb(255,255,255);fill-rule:nonzero;"/>
        </g>
        <g transform="matrix(1,0,0,1,1105.88,863.902)">
            <path d="M0,4.782C-0.114,4.782 -0.229,4.77 -0.346,4.745C-5.684,3.598 -9.271,3.286 -14.065,3.557C-14.953,3.612 -15.743,2.917 -15.794,2.012C-15.845,1.109 -15.153,0.336 -14.25,0.284C-9.2,0 -5.243,0.341 0.343,1.541C1.228,1.731 1.791,2.602 1.601,3.488C1.436,4.256 0.756,4.782 0,4.782" style="fill:rgb(255,255,255);fill-rule:nonzero;"/>
        </g>
        <g transform="matrix(1,0,0,1,932.258,911.192)">
            <path d="M0,85.148C-10.496,85.148 -21.026,83.483 -31.187,80.11C-32.047,79.825 -32.512,78.898 -32.227,78.039C-31.942,77.18 -31.014,76.713 -30.155,77C-4.232,85.605 24.195,82.716 47.84,69.076L48.099,68.927C67.324,57.835 80.261,38.023 82.703,15.932C83.066,12.645 82.286,9.533 80.506,7.169C78.984,5.149 77.105,4.033 74.762,3.757C67.967,2.952 59.988,9.486 59.908,9.553C59.213,10.129 58.179,10.032 57.602,9.334C57.024,8.637 57.122,7.604 57.82,7.027C58.19,6.721 66.977,-0.457 75.145,0.502C78.38,0.883 81.064,2.463 83.124,5.198C85.409,8.231 86.416,12.171 85.961,16.292C83.404,39.416 69.862,60.154 49.736,71.766L49.478,71.915C34.292,80.675 17.195,85.148 0,85.148" style="fill:rgb(255,255,255);fill-rule:nonzero;"/>
        </g>
    </g>
</svg>
