<?xml version="1.0" encoding="UTF-8" standalone="no"?>
<!DOCTYPE svg PUBLIC "-//W3C//DTD SVG 1.1//EN" "http://www.w3.org/Graphics/SVG/1.1/DTD/svg11.dtd">
<svg width="100%" height="100%" viewBox="0 0 51 48" version="1.1" xmlns="http://www.w3.org/2000/svg" xmlns:xlink="http://www.w3.org/1999/xlink" xml:space="preserve" xmlns:serif="http://www.serif.com/" style="fill-rule:evenodd;clip-rule:evenodd;stroke-linejoin:round;stroke-miterlimit:2;">
    <g transform="matrix(1,0,0,1,-1037.36,-988.132)">
        <g transform="matrix(1,0,0,1,1062.69,1032.27)">
            <path d="M0,-22.054L0,-16.582C0,-7.44 7.439,0 16.582,0L22.055,0L22.055,-5.472C22.055,-14.616 14.615,-22.054 5.472,-22.054L0,-22.054ZM23.693,3.277L16.582,3.277C5.632,3.277 -3.277,-5.632 -3.277,-16.582L-3.277,-23.693C-3.277,-24.598 -2.543,-25.331 -1.639,-25.331L5.472,-25.331C16.423,-25.331 25.332,-16.422 25.332,-5.472L25.332,1.638C25.332,2.543 24.598,3.277 23.693,3.277" style="fill:rgb(1,1,53);fill-rule:nonzero;"/>
        </g>
        <g transform="matrix(1,0,0,1,1061.05,987.937)">
            <path d="M0,22.279C-0.376,22.279 -0.753,22.15 -1.062,21.887L-23.115,3.081C-23.804,2.494 -23.886,1.459 -23.299,0.771C-22.712,0.082 -21.678,0 -20.988,0.587L1.064,19.393C1.753,19.981 1.835,21.014 1.248,21.704C0.924,22.084 0.464,22.279 0,22.279" style="fill:rgb(1,1,53);fill-rule:nonzero;"/>
        </g>
    </g>
</svg>
