<?xml version="1.0" encoding="UTF-8" standalone="no"?>
<!DOCTYPE svg PUBLIC "-//W3C//DTD SVG 1.1//EN" "http://www.w3.org/Graphics/SVG/1.1/DTD/svg11.dtd">
<svg xmlns:dc="http://purl.org/dc/elements/1.1/" xmlns="http://www.w3.org/2000/svg" xmlns:xl="http://www.w3.org/1999/xlink" version="1.1" viewBox="0 0 850 240" width="850" height="240">
  <defs/>
  <metadata> Produced by OmniGraffle 7.16 
    <dc:date>2020-07-14 21:09:23 +0000</dc:date>
  </metadata>
  <g id="Canvas_1" stroke="none" fill="none" stroke-dasharray="none" stroke-opacity="1" fill-opacity="1">
    <title>Canvas 1</title>
    <g id="Canvas_1: Layer 1">
      <title>Layer 1</title>
      <g id="Group_2">
        <title>Canvas_2</title>
        <g id="Group_29">
          <title>Group_116</title>
          <g id="Group_91">
            <title>Group_162</title>
            <g id="Group_92">
              <title>Group_163</title>
              <g id="Group_93">
                <title>Graphic_164</title>
                <g id="Graphic_94">
                  <path d="M 584.077 173.077 L 584.077 178.549 C 584.077 187.691 591.516 195.131 600.659 195.131 L 606.132 195.131 L 606.132 189.659 C 606.132 180.515 598.692 173.077 589.549 173.077 L 584.077 173.077 M 607.77 198.408 L 600.659 198.408 C 589.709 198.408 580.8 189.499 580.8 178.549 L 580.8 171.438 C 580.8 170.533 581.534 169.8 582.438 169.8 L 589.549 169.8 C 600.5 169.8 609.409 178.709 609.409 189.659 L 609.409 196.769 C 609.409 197.674 608.675 198.408 607.77 198.408" fill="white"/>
                </g>
              </g>
            </g>
          </g>
          <g id="Group_87">
            <title>Group_141</title>
            <g id="Group_88">
              <title>Group_142</title>
              <g id="Group_89">
                <title>Graphic_143</title>
                <g id="Graphic_90">
                  <rect x="258.4" y="151.433" width="591.6" height="3.278" fill="white"/>
                </g>
              </g>
            </g>
          </g>
          <g id="Group_83">
            <title>Group_138</title>
            <g id="Group_84">
              <title>Group_139</title>
              <g id="Group_85">
                <title>Graphic_140</title>
                <g id="Graphic_86">
                  <path d="M 582.6907 173.4047 C 582.3147 173.4047 581.9377 173.2757 581.6287 173.0127 L 559.5757 154.2067 C 558.8867 153.6197 558.8047 152.5847 559.3917 151.8967 C 559.9787 151.2077 561.0127 151.1257 561.7027 151.7127 L 583.7547 170.5187 C 584.4437 171.1067 584.5257 172.1397 583.9387 172.8297 C 583.6147 173.2097 583.1547 173.4047 582.6907 173.4047" fill="white"/>
                </g>
              </g>
            </g>
          </g>
          <g id="Group_79">
            <title>Group_135</title>
            <g id="Group_80">
              <title>Group_136</title>
              <g id="Group_81">
                <title>Graphic_137</title>
                <g id="Graphic_82">
                  <path d="M 307.6269 138.531 C 308.8579 134.277 308.3599 129.797 306.2239 125.918 C 304.0859 122.038 300.5659 119.223 296.3119 117.991 L 291.0559 116.469 L 289.5329 121.725 C 286.9899 130.508 292.0659 139.721 300.8489 142.265 L 306.1049 143.787 L 307.6269 138.531 M 289.9379 112.8 C 290.0879 112.8 290.2409 112.821 290.3939 112.865 L 297.2239 114.844 C 302.3179 116.318 306.5339 119.689 309.0939 124.336 C 311.6529 128.982 312.2499 134.347 310.7739 139.443 L 308.7969 146.274 C 308.6759 146.69 308.3939 147.043 308.0129 147.253 C 307.6339 147.463 307.1839 147.512 306.7669 147.391 L 299.9379 145.413 C 289.4189 142.367 283.3399 131.332 286.3859 120.813 L 288.3639 113.983 C 288.5709 113.266 289.2269 112.8 289.9379 112.8" fill="white"/>
                </g>
              </g>
            </g>
          </g>
          <g id="Group_75">
            <title>Group_132</title>
            <g id="Group_76">
              <title>Group_133</title>
              <g id="Group_77">
                <title>Graphic_134</title>
                <g id="Graphic_78">
                  <path d="M 307.2169 144.181 C 307.8029 144.181 308.3679 144.495 308.6639 145.047 L 311.9479 151.187 C 312.3749 151.985 312.0739 152.978 311.2759 153.405 C 310.4759 153.832 309.4849 153.53 309.0579 152.733 L 305.7739 146.593 C 305.3469 145.795 305.6479 144.802 306.4459 144.375 C 306.6919 144.243 306.9569 144.181 307.2169 144.181" fill="white"/>
                </g>
              </g>
            </g>
          </g>
          <g id="Group_71">
            <title>Group_129</title>
            <g id="Group_72">
              <title>Group_130</title>
              <g id="Group_73">
                <title>Graphic_131</title>
                <g id="Graphic_74">
                  <path d="M 374.6097 183.83537 L 380.0737 183.52937 C 384.4957 183.28237 388.5567 181.32737 391.5087 178.02537 C 394.4607 174.72337 395.9497 170.46937 395.7027 166.04737 L 395.3967 160.58437 L 389.9337 160.89037 C 385.5107 161.13737 381.4497 163.09137 378.4987 166.39437 C 375.5467 169.69537 374.0567 173.94937 374.3037 178.37237 L 374.6097 183.83537 M 396.9417 157.21737 C 397.3427 157.21737 397.7317 157.36437 398.0337 157.63437 C 398.3577 157.92337 398.5527 158.33037 398.5777 158.76437 L 398.9747 165.86337 C 399.2717 171.16037 397.4877 176.25437 393.9527 180.21037 C 390.4167 184.16437 385.5517 186.50537 380.2557 186.80237 L 373.1567 187.19937 C 372.7197 187.22337 372.2967 187.07437 371.9727 186.78537 C 371.6487 186.49537 371.4537 186.08937 371.4287 185.65537 L 371.0317 178.55537 C 370.7357 173.25837 372.5197 168.16437 376.0537 164.20937 C 379.5897 160.25437 384.4537 157.91337 389.7507 157.61737 L 396.8497 157.21937 C 396.8807 157.21837 396.9107 157.21737 396.9417 157.21737" fill="white"/>
                </g>
              </g>
            </g>
          </g>
          <g id="Group_67">
            <title>Group_126</title>
            <g id="Group_68">
              <title>Group_127</title>
              <g id="Group_69">
                <title>Graphic_128</title>
                <g id="Graphic_70">
                  <path d="M 401.6497 152.08337 C 402.0457 152.08337 402.4417 152.22637 402.7557 152.51437 C 403.4237 153.12537 403.4687 154.16237 402.8577 154.82937 L 398.1537 159.96237 C 397.5427 160.63037 396.5047 160.67537 395.8377 160.06337 C 395.1707 159.45237 395.1257 158.41637 395.7367 157.74937 L 400.4417 152.61537 C 400.7647 152.26237 401.2067 152.08337 401.6497 152.08337" fill="white"/>
                </g>
              </g>
            </g>
          </g>
          <g id="Group_30">
            <title>Group_165</title>
            <g id="Group_63">
              <title>Group_159</title>
              <g id="Group_64">
                <title>Group_160</title>
                <g id="Group_65">
                  <title>Graphic_161</title>
                  <g id="Graphic_66">
                    <path d="M 163.71953 156.07922 L 180.81384 173.17353 C 181.45306 173.81275 181.45306 174.8508 180.81313 175.49072 C 180.1732 176.13065 179.13517 176.13065 178.49594 175.49142 L 161.40164 158.39712 C 129.24596 126.24144 76.9243 126.24144 44.768615 158.39712 L 20.362825 182.8029 C 19.722893 183.44284 18.686274 183.44284 18.046343 182.8029 C 17.405704 182.16227 17.405704 181.12565 18.045636 180.48572 L 42.451426 156.07993 C 75.88485 122.6465 130.28611 122.6458 163.71953 156.07922" fill="white"/>
                  </g>
                </g>
              </g>
            </g>
            <g id="Group_59">
              <title>Group_156</title>
              <g id="Group_60">
                <title>Group_157</title>
                <g id="Group_61">
                  <title>Graphic_158</title>
                  <g id="Graphic_62">
                    <path d="M 244.16707 236.5706 C 244.46406 236.8676 244.6479 237.2763 244.6479 237.72884 C 244.6472 238.63465 243.91393 239.36792 243.00883 239.36792 L 88.72732 239.36438 L 42.52426 239.36933 C 33.299343 239.36933 24.626678 235.77793 18.104325 229.25558 C 7.640559 218.79182 4.935169 202.93424 11.371255 189.79478 C 11.769356 188.9823 12.75082 188.64573 13.563286 189.04383 C 14.377166 189.44193 14.713041 190.4227 14.314233 191.23586 C 8.494037 203.11738 10.949112 217.46458 20.42222 226.9377 C 26.32515 232.8406 34.17474 236.0926 42.52355 236.0919 L 88.72732 236.08765 L 243.00954 236.09048 C 243.46138 236.08977 243.8708 236.27432 244.16707 236.5706" fill="white"/>
                  </g>
                </g>
              </g>
            </g>
            <g id="Group_55">
              <title>Group_153</title>
              <g id="Group_56">
                <title>Group_154</title>
                <g id="Group_57">
                  <title>Graphic_155</title>
                  <g id="Graphic_58">
                    <path d="M 324.49864 197.3474 C 329.8479 202.69665 333.18545 210.06612 333.23353 218.18936 C 333.23636 218.6306 333.0603 219.05415 332.74563 219.36457 C 332.43167 219.6757 332.0053 219.8461 331.56335 219.83692 L 234.02645 217.9546 C 233.12206 217.9355 232.40152 217.1881 232.4192 216.2837 C 232.43688 215.37932 233.185 214.65948 234.08938 214.67716 L 329.89316 216.52766 C 328.9407 202.8006 317.4311 191.90054 303.4919 191.89984 L 208.80254 190.0168 C 207.89886 189.99843 207.17973 189.2496 207.1967 188.34592 C 207.21438 187.4401 207.9632 186.7224 208.8676 186.74008 L 303.52444 188.6231 C 311.68587 188.6231 319.1133 191.96206 324.49864 197.3474" fill="white"/>
                  </g>
                </g>
              </g>
            </g>
            <g id="Group_51">
              <title>Group_150</title>
              <g id="Group_52">
                <title>Group_151</title>
                <g id="Group_53">
                  <title>Graphic_152</title>
                  <g id="Graphic_54">
                    <path d="M 299.21392 222.41432 C 303.41484 226.61524 306.0368 232.40362 306.07427 238.78385 C 306.0764 239.22437 305.90174 239.64793 305.58778 239.95906 C 305.27382 240.26877 304.84815 240.4399 304.40762 240.4321 L 242.97984 239.3672 C 242.07474 239.35165 241.3535 238.60636 241.36905 237.69985 C 241.3846 236.79475 242.13202 236.0742 243.0357 236.08977 L 302.71693 237.12497 C 301.8005 226.9002 293.15684 218.8406 282.7157 218.84202 L 234.02787 217.9532 C 233.12348 217.93692 232.40293 217.1895 232.4185 216.28583 C 232.43546 215.38073 233.18217 214.6609 234.08726 214.67787 L 282.7461 215.56458 C 289.1525 215.56458 294.98542 218.18582 299.21392 222.41432" fill="white"/>
                  </g>
                </g>
              </g>
            </g>
            <g id="Group_47">
              <title>Group_147</title>
              <g id="Group_48">
                <title>Group_148</title>
                <g id="Group_49">
                  <title>Graphic_149</title>
                  <g id="Graphic_50">
                    <path d="M 220.91316 196.58654 C 231.95604 207.62943 240.27374 221.52195 244.5892 237.2968 C 244.82822 238.16937 244.31415 239.07093 243.44158 239.30993 C 242.5683 239.54823 241.66745 239.03345 241.42774 238.1616 C 230.88407 199.62498 195.56055 172.71037 155.5277 172.70967 C 119.60031 172.71037 90.36993 201.8771 90.36922 237.72813 C 90.36993 238.63394 89.63595 239.36792 88.73086 239.3665 C 87.82718 239.36792 87.09249 238.63323 87.0932 237.72884 C 87.09249 200.07046 117.79224 169.43293 155.527 169.43223 C 180.64838 169.43293 203.9836 179.657 220.91316 196.58654" fill="white"/>
                  </g>
                </g>
              </g>
            </g>
            <g id="Group_43">
              <title>Group_144</title>
              <g id="Group_44">
                <title>Group_145</title>
                <g id="Group_45">
                  <title>Graphic_146</title>
                  <g id="Graphic_46">
                    <path d="M 33.193277 218.36967 C 34.286464 219.46286 36.06696 219.46286 37.160853 218.36897 C 38.254747 217.27507 38.25404 215.49528 37.160853 214.4021 C 36.06625 213.3075 34.28717 213.3075 33.193277 214.4014 C 32.099383 215.49528 32.098676 217.27507 33.193277 218.36967 M 39.47875 212.0842 C 41.850385 214.45584 41.84968 218.31452 39.47804 220.68615 C 37.1057 223.0585 33.247724 223.0585 30.876088 220.68686 C 28.504452 218.31523 28.503745 214.45654 30.876088 212.0842 C 33.247724 209.71256 37.107113 209.71256 39.47875 212.0842" fill="white"/>
                  </g>
                </g>
              </g>
            </g>
            <g id="Group_39">
              <title>Group_123</title>
              <g id="Group_40">
                <title>Group_124</title>
                <g id="Group_41">
                  <title>Graphic_125</title>
                  <g id="Graphic_42">
                    <path d="M 23.025082 193.80054 C 23.414697 193.25395 24.05958 192.10278 24.295752 191.68134 C 24.43576 191.43103 24.547482 191.23445 24.61183 191.12626 C 25.955332 188.9102 25.852094 187.79155 24.111905 185.68366 C 23.07175 184.4229 21.203574 183.85296 19.382775 183.37708 C 17.327215 182.8418 15.237715 182.36026 13.148921 181.93882 C 13.204075 189.34506 14.263321 192.58785 20.694458 193.71993 C 21.026798 193.77226 22.344845 193.83024 23.025082 193.80054 M 26.179485 183.0914 C 26.33929 183.2512 26.49132 183.4188 26.638397 183.597 C 29.24833 186.75564 29.47248 189.4292 27.4148 192.82615 C 27.360353 192.91454 27.271258 193.07717 27.155292 193.28223 C 25.771484 195.75357 25.228426 196.48047 24.512834 196.81706 C 23.416112 197.33254 20.154935 196.95212 20.125237 196.94787 C 9.721575 195.11576 9.800063 187.40052 9.875017 179.9377 C 9.879966 179.45476 10.098462 178.99726 10.471815 178.69038 C 10.84446 178.38278 11.334485 178.2562 11.809661 178.34248 C 14.618289 178.85867 17.444595 179.48587 20.209382 180.20712 C 22.250093 180.73886 24.530512 181.44243 26.179485 183.0914" fill="white"/>
                  </g>
                </g>
              </g>
            </g>
            <g id="Group_35">
              <title>Group_120</title>
              <g id="Group_36">
                <title>Group_121</title>
                <g id="Group_37">
                  <title>Graphic_122</title>
                  <g id="Graphic_38">
                    <path d="M 12.90497 178.8226 C 12.98558 178.9032 13.058411 178.99302 13.123465 179.09343 C 16.08695 183.679 18.402725 186.43602 21.98422 189.63427 C 22.651022 190.2233 22.718197 191.27334 22.114328 191.94933 C 21.511873 192.6239 20.475962 192.6812 19.800675 192.07944 C 16.028967 188.70937 13.472069 185.67023 10.370699 180.8718 C 9.879259 180.11166 10.097048 179.09767 10.857895 178.60552 C 11.517626 178.17914 12.370397 178.28803 12.90497 178.8226" fill="white"/>
                  </g>
                </g>
              </g>
            </g>
            <g id="Group_31">
              <title>Group_117</title>
              <g id="Group_32">
                <title>Group_118</title>
                <g id="Group_33">
                  <title>Graphic_119</title>
                  <g id="Graphic_34">
                    <path d="M 225.9407 211.32547 C 233.36248 218.74727 239.63098 227.37043 244.43082 236.94042 C 244.8374 237.75005 244.51072 238.73435 243.7018 239.14023 C 242.89286 239.5461 241.90645 239.22013 241.502 238.4098 C 229.2563 213.9948 207.11255 195.9367 180.74808 188.8621 L 180.45958 188.78432 C 159.02222 183.03343 135.86518 187.89478 118.51773 201.78873 C 115.93679 203.8563 114.28782 206.60837 113.87487 209.53862 C 113.52273 212.0432 114.06225 214.16097 115.52384 216.0129 C 119.75941 221.3869 130.02165 222.40867 130.1256 222.41786 C 131.02433 222.502 131.68689 223.30174 131.60133 224.2033 C 131.51718 225.10486 130.71744 225.766 129.81588 225.68045 C 129.33788 225.6352 118.04892 224.49746 112.95139 218.0437 C 110.9333 215.4868 110.15266 212.4717 110.62995 209.08112 C 111.15887 205.32072 113.23281 201.82267 116.46854 199.2304 C 134.62774 184.68735 158.86737 179.599 181.30952 185.6193 L 181.5973 185.6964 C 198.5297 190.24026 213.782 199.16677 225.9407 211.32547" fill="white"/>
                  </g>
                </g>
              </g>
            </g>
          </g>
        </g>
      </g>
      <g id="Group_95">
        <title>Group_128</title>
        <g id="Group_110">
          <title>Graphic_136</title>
          <g id="Graphic_111">
            <path d="M 378.80155 123.14081 L 378.80155 51.67003 L 355.12897 51.67003 L 355.12897 43.854685 L 411.98845 43.854685 L 411.98845 51.67003 L 388.3159 51.67003 L 388.3159 123.14081 Z" fill="white"/>
          </g>
        </g>
        <g id="Group_108">
          <title>Graphic_135</title>
          <g id="Graphic_109">
            <path d="M 423.0885 123.14081 L 423.0885 41.589367 L 432.60284 41.589367 L 432.60284 76.58853 C 434.4906 73.11502 437.1712 70.41555 440.6447 68.49002 C 444.11823 66.56449 447.8937 65.60174 451.9713 65.60174 C 458.46526 65.60174 463.67543 67.62162 467.602 71.66146 C 471.5286 75.7013 473.49183 81.91198 473.49183 90.2937 L 473.49183 123.14081 L 464.09076 123.14081 L 464.09076 91.31309 C 464.09076 79.60889 459.3714 73.75688 449.9325 73.75688 C 445.0243 73.75688 440.909 75.51248 437.58654 79.02374 C 434.26406 82.535 432.60284 87.53753 432.60284 94.03148 L 432.60284 123.14081 Z" fill="white"/>
          </g>
        </g>
        <g id="Group_106">
          <title>Graphic_134</title>
          <g id="Graphic_107">
            <path d="M 513.1349 124.5 C 507.7736 124.5 503.0165 123.27297 498.8634 120.81886 C 494.7103 118.36475 491.4445 114.94793 489.0659 110.5683 C 486.6873 106.18866 485.498 101.01623 485.498 95.05087 C 485.498 89.16101 486.6684 84.00747 489.00926 79.59007 C 491.3501 75.17268 494.6159 71.73698 498.80676 69.28288 C 502.9976 66.82877 507.8491 65.60174 513.3614 65.60174 C 518.7982 65.60174 523.4987 66.82877 527.463 69.28288 C 531.42735 71.73698 534.4666 74.96503 536.5809 78.96711 C 538.69524 82.96919 539.7524 87.27325 539.7524 91.87942 C 539.7524 92.71004 539.7335 93.54065 539.69575 94.37127 C 539.658 95.20189 539.6391 96.14577 539.6391 97.20292 L 494.8991 97.20292 C 495.1256 101.50705 496.1261 105.07489 497.90063 107.90655 C 499.67514 110.73821 501.9027 112.87136 504.5833 114.30607 C 507.26396 115.74078 510.11445 116.45812 513.1349 116.45812 C 517.06146 116.45812 520.34614 115.552 522.989 113.73974 C 525.6319 111.92748 527.5574 109.47341 528.7656 106.37746 L 538.16666 106.37746 C 536.65644 111.58771 533.7682 115.91065 529.5018 119.3464 C 525.23544 122.78215 519.77986 124.5 513.1349 124.5 Z M 513.1349 73.64361 C 508.60424 73.64361 504.58334 75.02167 501.0721 77.77782 C 497.5608 80.53397 495.5409 84.55487 495.01235 89.84064 L 530.3513 89.84064 C 530.1248 84.7814 528.38805 80.81714 525.1411 77.94772 C 521.8941 75.0783 517.8921 73.64361 513.1349 73.64361 Z" fill="white"/>
          </g>
        </g>
        <g id="Group_104">
          <title>Graphic_133</title>
          <g id="Graphic_105">
            <path d="M 582.9067 123.14081 L 582.9067 43.854685 L 631.15795 43.854685 L 631.15795 51.67003 L 592.421 51.67003 L 592.421 79.53344 L 625.3814 79.53344 L 625.3814 87.23552 L 592.421 87.23552 L 592.421 123.14081 Z" fill="white"/>
          </g>
        </g>
        <g id="Group_102">
          <title>Graphic_132</title>
          <g id="Graphic_103">
            <path d="M 648.6009 54.50168 C 646.7131 54.50168 645.1463 53.87872 643.9004 52.63279 C 642.6544 51.38686 642.0315 49.82003 642.0315 47.932257 C 642.0315 46.119994 642.6544 44.609797 643.9004 43.40162 C 645.1463 42.193446 646.7131 41.589367 648.6009 41.589367 C 650.4132 41.589367 651.9611 42.193446 653.2448 43.40162 C 654.5285 44.609797 655.1703 46.119994 655.1703 47.932257 C 655.1703 49.82003 654.5285 51.38686 653.2448 52.63279 C 651.9611 53.87872 650.4132 54.50168 648.6009 54.50168 Z M 643.8437 123.14081 L 643.8437 66.96093 L 653.3581 66.96093 L 653.3581 123.14081 Z" fill="white"/>
          </g>
        </g>
        <g id="Group_100">
          <title>Graphic_131</title>
          <g id="Graphic_101">
            <path d="M 669.8949 123.14081 L 669.8949 66.96093 L 678.5031 66.96093 L 679.0694 77.04159 C 680.8817 73.49258 683.4868 70.69871 686.8848 68.659915 C 690.2828 66.62112 694.1338 65.60174 698.4379 65.60174 C 705.0829 65.60174 710.3874 67.62162 714.35175 71.66146 C 718.3161 75.7013 720.2982 81.91198 720.2982 90.2937 L 720.2982 123.14081 L 710.7839 123.14081 L 710.7839 91.31309 C 710.7839 79.60889 705.95125 73.75688 696.2858 73.75688 C 691.4531 73.75688 687.4322 75.51248 684.223 79.02374 C 681.0138 82.535 679.4092 87.53753 679.4092 94.03148 L 679.4092 123.14081 Z" fill="white"/>
          </g>
        </g>
        <g id="Group_98">
          <title>Graphic_130</title>
          <g id="Graphic_99">
            <path d="M 760.5076 124.5 C 755.1463 124.5 750.3326 123.27297 746.0662 120.81886 C 741.7998 118.36475 738.4396 114.92905 735.9855 110.51166 C 733.5314 106.09427 732.3044 100.94072 732.3044 95.05087 C 732.3044 89.16101 733.5314 84.00747 735.9855 79.59007 C 738.4396 75.17268 741.7998 71.73698 746.0662 69.28288 C 750.3326 66.82877 755.1463 65.60174 760.5076 65.60174 C 767.1526 65.60174 772.7592 67.33846 777.3276 70.81197 C 781.896 74.28547 784.78425 78.92933 785.9924 84.74367 L 776.2516 84.74367 C 775.49645 81.27017 773.6465 78.57069 770.7015 76.64516 C 767.7566 74.71963 764.3209 73.75688 760.3943 73.75688 C 757.2229 73.75688 754.2402 74.54973 751.4463 76.13546 C 748.6524 77.72119 746.3871 80.09975 744.6504 83.27122 C 742.9136 86.44268 742.0453 90.36919 742.0453 95.05087 C 742.0453 99.73255 742.9136 103.65906 744.6504 106.83052 C 746.3871 110.00198 748.6524 112.39942 751.4463 114.0229 C 754.2402 115.64639 757.2229 116.45812 760.3943 116.45812 C 764.3209 116.45812 767.7566 115.49537 770.7015 113.56984 C 773.6465 111.64431 775.49645 108.90708 776.2516 105.35806 L 785.9924 105.35806 C 784.8598 111.02139 781.9904 115.62749 777.3842 119.1765 C 772.77805 122.72552 767.1526 124.5 760.5076 124.5 Z" fill="white"/>
          </g>
        </g>
        <g id="Group_96">
          <title>Graphic_129</title>
          <g id="Graphic_97">
            <path d="M 799.2445 123.14081 L 799.2445 41.589367 L 808.7589 41.589367 L 808.7589 76.58853 C 810.6466 73.11502 813.3272 70.41555 816.80075 68.49002 C 820.2743 66.56449 824.0497 65.60174 828.1273 65.60174 C 834.6213 65.60174 839.8315 67.62162 843.758 71.66146 C 847.6846 75.7013 849.6479 81.91198 849.6479 90.2937 L 849.6479 123.14081 L 840.2468 123.14081 L 840.2468 91.31309 C 840.2468 79.60889 835.5274 73.75688 826.0886 73.75688 C 821.1803 73.75688 817.0651 75.51248 813.7426 79.02374 C 810.4201 82.535 808.7589 87.53753 808.7589 94.03148 L 808.7589 123.14081 Z" fill="white"/>
          </g>
        </g>
      </g>
    </g>
  </g>
</svg>
