<?xml version="1.0" encoding="UTF-8" standalone="no"?>
<!DOCTYPE svg PUBLIC "-//W3C//DTD SVG 1.1//EN" "http://www.w3.org/Graphics/SVG/1.1/DTD/svg11.dtd">
<svg xmlns:dc="http://purl.org/dc/elements/1.1/" xmlns="http://www.w3.org/2000/svg" xmlns:xl="http://www.w3.org/1999/xlink" version="1.1" viewBox="0 0 850 240" width="850" height="240">
  <defs/>
  <metadata> Produced by OmniGraffle 7.16 
    <dc:date>2020-07-14 20:56:18 +0000</dc:date>
  </metadata>
  <g id="Canvas_1" stroke="none" fill="none" stroke-dasharray="none" stroke-opacity="1" fill-opacity="1">
    <title>Canvas 1</title>
    <g id="Canvas_1: Layer 1">
      <title>Layer 1</title>
      <g id="Group_2">
        <title>Canvas_1</title>
        <g id="Group_37">
          <title>Group_30</title>
          <g id="Group_113">
            <title>Group_91</title>
            <g id="Group_114">
              <title>Group_92</title>
              <g id="Group_115">
                <title>Group_93</title>
                <g id="Group_116">
                  <title>Graphic_94</title>
                  <g id="Graphic_117">
                    <path d="M 143.5156 159.25388 L 143.5156 162.96452 C 143.5156 169.16385 148.5601 174.20903 154.76011 174.20903 L 158.47144 174.20903 L 158.47144 170.49838 C 158.47144 164.2977 153.42626 159.25388 147.22625 159.25388 L 143.5156 159.25388 M 159.58219 176.4312 L 154.76011 176.4312 C 147.33475 176.4312 141.29342 170.3899 141.29342 162.96452 L 141.29342 158.14245 C 141.29342 157.52875 141.79116 157.0317 142.40417 157.0317 L 147.22625 157.0317 C 154.6523 157.0317 160.69362 163.07302 160.69362 170.49838 L 160.69362 175.31978 C 160.69362 175.93348 160.19588 176.4312 159.58219 176.4312" fill="white"/>
                  </g>
                </g>
              </g>
            </g>
          </g>
          <g id="Group_108">
            <title>Group_87</title>
            <g id="Group_109">
              <title>Group_88</title>
              <g id="Group_110">
                <title>Group_89</title>
                <g id="Group_111">
                  <title>Graphic_90</title>
                  <g id="Graphic_112">
                    <path d="M 111.39329 146.49989 L 94.99986 146.49989 C 94.38684 146.49989 93.8891 146.00215 93.8891 145.38846 C 93.8891 144.77476 94.38684 144.27703 94.99986 144.27703 L 111.39329 144.27703 C 142.23058 144.27703 167.3188 119.1888 167.3188 88.35151 L 167.3188 64.94637 C 167.3188 64.33267 167.81586 63.835614 168.42956 63.835614 C 169.04393 63.835614 169.541 64.33267 169.541 64.94637 L 169.541 88.35151 C 169.541 120.41415 143.45593 146.49989 111.39329 146.49989" fill="white"/>
                  </g>
                </g>
              </g>
            </g>
          </g>
          <g id="Group_103">
            <title>Group_83</title>
            <g id="Group_104">
              <title>Group_84</title>
              <g id="Group_105">
                <title>Group_85</title>
                <g id="Group_106">
                  <title>Graphic_86</title>
                  <g id="Graphic_107">
                    <path d="M 34.223105 146.47887 C 33.938296 146.47887 33.654166 146.37105 33.43717 146.15405 C 33.003175 145.71938 33.003175 145.01617 33.43717 144.58218 L 107.41682 70.60592 L 129.56881 48.44918 C 133.99216 44.025835 139.87277 41.589367 146.1277 41.589367 C 156.16245 41.589367 165.0634 47.89584 168.27766 57.28231 C 168.47635 57.862775 168.16713 58.49478 167.58666 58.69347 C 167.00552 58.89283 166.37419 58.58361 166.1755 58.00247 C 163.2691 49.5145 155.21241 43.81223 146.1277 43.81223 C 140.4668 43.81223 135.1436 46.01678 131.14068 50.020373 L 108.98802 72.17711 L 35.00836 146.15405 C 34.792043 146.37105 34.507235 146.47887 34.223105 146.47887" fill="white"/>
                  </g>
                </g>
              </g>
            </g>
          </g>
          <g id="Group_98">
            <title>Group_79</title>
            <g id="Group_99">
              <title>Group_80</title>
              <g id="Group_100">
                <title>Group_81</title>
                <g id="Group_101">
                  <title>Graphic_82</title>
                  <g id="Graphic_102">
                    <path d="M 14.511653 203.80537 C 9.381711 203.80537 4.247701 201.87206 .32955176 198.00002 C .1166236 197.7898 -.0020465594 197.5023 -1221383e-11 197.20256 C .0013440165 196.90283 .12408286 196.61667 .3404016 196.40917 L 48.0119 150.54281 C 48.45471 150.11831 49.15859 150.1312 49.58377 150.57333 C 50.00895 151.01546 49.995385 151.71934 49.553254 152.14452 L 2.728045 197.1951 C 9.766881 203.32052 20.512294 203.02825 27.196475 196.34474 L 73.50293 151.84411 C 73.94506 151.41961 74.64894 151.43385 75.07412 151.8753 C 75.499975 152.31812 75.48506 153.02132 75.04293 153.4465 L 28.75207 197.93153 C 24.83867 201.84494 19.676178 203.80537 14.511653 203.80537" fill="white"/>
                  </g>
                </g>
              </g>
            </g>
          </g>
          <g id="Group_93">
            <title>Group_75</title>
            <g id="Group_94">
              <title>Group_76</title>
              <g id="Group_95">
                <title>Group_77</title>
                <g id="Group_96">
                  <title>Graphic_78</title>
                  <g id="Graphic_97">
                    <path d="M 14.616082 179.66175 C 10.5874 179.66175 6.554649 178.14345 3.4773624 175.1021 C 3.2651124 174.8919 3.145764 174.60505 3.1471203 174.30532 C 3.1491547 174.00627 3.2712154 173.7201 3.486178 173.5126 L 33.45141 144.56862 C 33.89286 144.14208 34.59607 144.15361 35.02328 144.59574 C 35.449815 145.0372 35.43693 145.74108 34.996156 146.16693 L 5.882637 174.2877 C 11.224828 178.75105 19.234047 178.47098 24.239893 173.46378 L 48.0119 150.54417 C 48.45335 150.11831 49.157235 150.1312 49.58309 150.57197 C 50.00895 151.0141 49.996064 151.7173 49.55393 152.14316 L 25.796845 175.0499 C 22.724984 178.12176 18.67121 179.66175 14.616082 179.66175" fill="white"/>
                  </g>
                </g>
              </g>
            </g>
          </g>
          <g id="Group_88">
            <title>Group_71</title>
            <g id="Group_89">
              <title>Group_72</title>
              <g id="Group_90">
                <title>Group_73</title>
                <g id="Group_91">
                  <title>Graphic_74</title>
                  <g id="Graphic_92">
                    <path d="M 64.5457 154.50097 C 53.95558 154.50097 43.30578 151.82784 33.672475 146.33307 C 33.139476 146.02928 32.953673 145.35048 33.25747 144.81748 C 33.56194 144.28449 34.240735 144.09936 34.773734 144.40248 C 58.30772 157.82509 88.15089 153.79302 107.34698 134.59761 C 124.57381 117.3701 124.60433 89.36868 107.41411 72.17779 C 106.97944 71.74379 106.97944 71.03991 107.41411 70.60659 C 107.84675 70.1726 108.55131 70.1726 108.98462 70.60659 C 127.04215 88.66344 127.01232 118.07466 108.91885 136.1688 C 96.87281 148.21416 80.78114 154.50097 64.5457 154.50097" fill="white"/>
                  </g>
                </g>
              </g>
            </g>
          </g>
          <g id="Group_83">
            <title>Group_67</title>
            <g id="Group_84">
              <title>Group_68</title>
              <g id="Group_85">
                <title>Group_69</title>
                <g id="Group_86">
                  <title>Graphic_70</title>
                  <g id="Graphic_87">
                    <path d="M 144.11235 54.04431 C 143.06398 54.04431 142.21023 54.898056 142.21023 55.9471 C 142.21023 56.996144 143.06398 57.84921 144.11235 57.84921 C 145.16207 57.84921 146.01514 56.996144 146.01514 55.9471 C 146.01514 54.898056 145.16207 54.04431 144.11235 54.04431 M 144.11235 60.072075 C 141.83795 60.072075 139.98805 58.2215 139.98805 55.9471 C 139.98805 53.672024 141.83795 51.822126 144.11235 51.822126 C 146.38675 51.822126 148.23732 53.672024 148.23732 55.9471 C 148.23732 58.2215 146.38675 60.072075 144.11235 60.072075" fill="white"/>
                  </g>
                </g>
              </g>
            </g>
          </g>
          <g id="Group_78">
            <title>Group_63</title>
            <g id="Group_79">
              <title>Group_64</title>
              <g id="Group_80">
                <title>Group_65</title>
                <g id="Group_81">
                  <title>Graphic_66</title>
                  <g id="Graphic_82">
                    <rect x="93.88571" y="144.27838" width="756.1143" height="2.2228615" fill="white"/>
                  </g>
                </g>
              </g>
            </g>
          </g>
          <g id="Group_73">
            <title>Group_59</title>
            <g id="Group_74">
              <title>Group_60</title>
              <g id="Group_75">
                <title>Group_61</title>
                <g id="Group_76">
                  <title>Graphic_62</title>
                  <g id="Graphic_77">
                    <path d="M 142.4035 159.25388 C 142.14853 159.25388 141.89288 159.1664 141.68334 158.98806 L 126.72886 146.23542 C 126.26164 145.83737 126.20604 145.13552 126.60409 144.66898 C 127.00214 144.20176 127.70332 144.14615 128.17122 144.5442 L 143.12501 157.29684 C 143.59223 157.69557 143.64784 158.39606 143.24978 158.86396 C 143.03008 159.12165 142.71814 159.25388 142.4035 159.25388" fill="white"/>
                  </g>
                </g>
              </g>
            </g>
          </g>
          <g id="Group_68">
            <title>Group_55</title>
            <g id="Group_69">
              <title>Group_56</title>
              <g id="Group_70">
                <title>Group_57</title>
                <g id="Group_71">
                  <title>Graphic_58</title>
                  <g id="Graphic_72">
                    <path d="M 183.17856 154.49622 C 182.3438 157.38092 182.6815 160.41888 184.12996 163.04929 C 185.57977 165.68038 187.96673 167.58927 190.85144 168.4247 L 194.4156 169.4568 L 195.44838 165.89263 C 197.17283 159.93674 193.7307 153.68927 187.77483 151.96414 L 184.21065 150.93205 L 183.17856 154.49622 M 195.17374 171.9448 C 195.07202 171.9448 194.96827 171.93056 194.86452 171.90073 L 190.233 170.55874 C 186.77868 169.5592 183.91974 167.27327 182.18377 164.12207 C 180.44847 160.97154 180.04364 157.33346 181.04453 153.87778 L 182.38517 149.24558 C 182.46722 148.96348 182.65845 148.7241 182.9168 148.5817 C 183.17382 148.4393 183.47897 148.40607 183.76174 148.48812 L 188.3926 149.82943 C 195.52568 151.89497 199.64795 159.37797 197.5824 166.51107 L 196.2411 171.1426 C 196.10073 171.6288 195.65588 171.9448 195.17374 171.9448" fill="white"/>
                  </g>
                </g>
              </g>
            </g>
          </g>
          <g id="Group_63">
            <title>Group_51</title>
            <g id="Group_64">
              <title>Group_52</title>
              <g id="Group_65">
                <title>Group_53</title>
                <g id="Group_66">
                  <title>Graphic_54</title>
                  <g id="Graphic_67">
                    <path d="M 183.4566 150.66487 C 183.0592 150.66487 182.67608 150.45194 182.47536 150.07762 L 180.24843 145.914 C 179.95887 145.37286 180.16298 144.6995 180.70412 144.40994 C 181.2466 144.12038 181.91862 144.32517 182.20818 144.86563 L 184.4351 149.02926 C 184.72466 149.5704 184.52055 150.24376 183.97942 150.53332 C 183.8126 150.62283 183.6329 150.66487 183.4566 150.66487" fill="white"/>
                  </g>
                </g>
              </g>
            </g>
          </g>
          <g id="Group_58">
            <title>Group_47</title>
            <g id="Group_59">
              <title>Group_48</title>
              <g id="Group_60">
                <title>Group_49</title>
                <g id="Group_61">
                  <title>Graphic_50</title>
                  <g id="Graphic_62">
                    <path d="M 199.56182 124.96973 L 195.8566 125.17723 C 192.85798 125.34473 190.10415 126.67044 188.10236 128.90958 C 186.10056 131.14872 185.09085 134.03342 185.25834 137.03204 L 185.46584 140.73659 L 189.1704 140.52908 C 192.1697 140.36159 194.92352 139.03655 196.92463 136.79674 C 198.92643 134.55828 199.93682 131.67358 199.76933 128.67427 L 199.56182 124.96973 M 184.41816 143.0198 C 184.14623 143.0198 183.88245 142.92012 183.67765 142.73703 C 183.45795 142.54105 183.3257 142.26506 183.30876 141.97076 L 183.03955 137.15682 C 182.83815 133.56484 184.0479 130.11052 186.44504 127.4279 C 188.84286 124.74663 192.1419 123.15916 195.7332 122.95776 L 200.54713 122.68855 C 200.84346 122.67228 201.1303 122.77332 201.35 122.96929 C 201.56972 123.16595 201.70196 123.44126 201.7189 123.73556 L 201.98812 128.55018 C 202.18884 132.14216 200.9791 135.59647 198.58263 138.27842 C 196.1848 140.96037 192.88646 142.54783 189.29448 142.74856 L 184.48054 143.01844 C 184.45952 143.01912 184.43918 143.0198 184.41816 143.0198" fill="white"/>
                  </g>
                </g>
              </g>
            </g>
          </g>
          <g id="Group_53">
            <title>Group_43</title>
            <g id="Group_54">
              <title>Group_44</title>
              <g id="Group_55">
                <title>Group_45</title>
                <g id="Group_56">
                  <title>Graphic_46</title>
                  <g id="Graphic_57">
                    <path d="M 181.2256 146.50124 C 180.95706 146.50124 180.68852 146.40427 180.4756 146.20898 C 180.0226 145.79465 179.9921 145.09144 180.40643 144.63914 L 183.59628 141.15838 C 184.0106 140.7054 184.7145 140.67488 185.1668 141.08989 C 185.6191 141.50421 185.6496 142.20674 185.2353 142.65904 L 182.04475 146.14049 C 181.82572 146.37986 181.526 146.50124 181.2256 146.50124" fill="white"/>
                  </g>
                </g>
              </g>
            </g>
          </g>
          <g id="Group_48">
            <title>Group_39</title>
            <g id="Group_49">
              <title>Group_40</title>
              <g id="Group_50">
                <title>Group_41</title>
                <g id="Group_51">
                  <title>Graphic_42</title>
                  <g id="Graphic_52">
                    <path d="M 160.76889 60.949556 C 160.84416 61.39847 161.08693 62.259674 161.17576 62.575 C 161.22865 62.76216 161.26934 62.90999 161.29036 62.99272 C 161.70876 64.69953 162.29465 65.18642 164.1398 65.36273 C 165.2431 65.468515 166.41216 64.846006 167.51342 64.20112 C 168.75573 63.472144 169.98854 62.70113 171.1922 61.90163 C 167.61446 58.37679 165.55164 57.32978 161.92508 59.870675 C 161.74063 60.00494 161.08082 60.60914 160.76889 60.949556 M 164.39138 67.59712 C 164.23813 67.59712 164.08487 67.58966 163.9289 67.57474 C 161.16287 67.31163 159.77342 66.13714 159.13124 63.52165 C 159.11497 63.45316 159.0797 63.33245 159.03698 63.17852 C 158.51551 61.32998 158.42736 60.72103 158.6091 60.21651 C 158.8878 59.44346 160.63395 58.06214 160.65022 58.049935 C 166.51727 53.93988 170.1791 57.67697 173.72157 61.291326 C 173.95077 61.525276 174.06537 61.849415 174.0335 62.17559 C 174.0023 62.50176 173.82803 62.79742 173.55882 62.9839 C 171.96457 64.083126 170.3086 65.137595 168.63706 66.11747 C 167.40357 66.84102 165.97275 67.59712 164.39138 67.59712" fill="white"/>
                  </g>
                </g>
              </g>
            </g>
          </g>
          <g id="Group_43">
            <title>Group_35</title>
            <g id="Group_44">
              <title>Group_36</title>
              <g id="Group_45">
                <title>Group_37</title>
                <g id="Group_46">
                  <title>Graphic_38</title>
                  <g id="Graphic_47">
                    <path d="M 172.8034 63.27888 C 172.7261 63.27888 172.6481 63.270744 172.56877 63.25379 C 168.949 62.47599 166.5166 62.26442 163.26571 62.44819 C 162.66354 62.48549 162.12783 62.0142 162.09325 61.4005 C 162.05867 60.788164 162.52792 60.26398 163.14026 60.22872 C 166.56474 60.036135 169.24804 60.26737 173.036 61.08111 C 173.63613 61.20995 174.0179 61.80059 173.88906 62.4014 C 173.77717 62.92219 173.31606 63.27888 172.8034 63.27888" fill="white"/>
                  </g>
                </g>
              </g>
            </g>
          </g>
          <g id="Group_38">
            <title>Group_31</title>
            <g id="Group_39">
              <title>Group_32</title>
              <g id="Group_40">
                <title>Group_33</title>
                <g id="Group_41">
                  <title>Graphic_34</title>
                  <g id="Graphic_42">
                    <path d="M 55.06769 149.84435 C 47.95019 149.84435 40.809637 148.71529 33.91931 146.428 C 33.33613 146.23475 33.020806 145.60613 33.21407 145.02363 C 33.40733 144.44113 34.036623 144.12445 34.619124 144.31907 C 52.1979 150.15425 71.47468 148.19518 87.50872 138.94569 L 87.68435 138.84465 C 100.72111 131.323 109.49389 117.88817 111.14985 102.90793 C 111.396 100.67897 110.86707 98.56867 109.66003 96.96561 C 108.62794 95.59582 107.35376 94.83904 105.76493 94.65188 C 101.15714 94.106 95.74646 98.5368 95.69221 98.58224 C 95.22092 98.97283 94.51975 98.90705 94.12848 98.43373 C 93.73653 97.96108 93.80298 97.26059 94.27631 96.86932 C 94.52721 96.66181 100.48581 91.7943 106.02465 92.44462 C 108.21835 92.70298 110.03842 93.7744 111.43533 95.62904 C 112.98483 97.68577 113.66769 100.35754 113.35915 103.15205 C 111.6252 118.83279 102.44217 132.89554 88.79442 140.76982 L 88.61947 140.87085 C 78.32161 146.81114 66.72788 149.84435 55.06769 149.84435" fill="white"/>
                  </g>
                </g>
              </g>
            </g>
          </g>
        </g>
      </g>
      <g id="Group_128">
        <title>The Finch</title>
        <g id="Graphic_136">
          <path d="M 378.80155 123.14081 L 378.80155 51.67003 L 355.12897 51.67003 L 355.12897 43.854685 L 411.98845 43.854685 L 411.98845 51.67003 L 388.3159 51.67003 L 388.3159 123.14081 Z" fill="white"/>
        </g>
        <g id="Graphic_135">
          <path d="M 423.0885 123.14081 L 423.0885 41.589367 L 432.60284 41.589367 L 432.60284 76.58853 C 434.4906 73.11502 437.1712 70.41555 440.6447 68.49002 C 444.11823 66.56449 447.8937 65.60174 451.9713 65.60174 C 458.46526 65.60174 463.67543 67.621624 467.602 71.66146 C 471.5286 75.7013 473.49183 81.91198 473.49183 90.2937 L 473.49183 123.14081 L 464.09076 123.14081 L 464.09076 91.31309 C 464.09076 79.60889 459.3714 73.75688 449.9325 73.75688 C 445.0243 73.75688 440.909 75.51248 437.58654 79.02374 C 434.26406 82.535 432.60284 87.53753 432.60284 94.03148 L 432.60284 123.14081 Z" fill="white"/>
        </g>
        <g id="Graphic_134">
          <path d="M 513.1349 124.5 C 507.7736 124.5 503.0165 123.27297 498.8634 120.81886 C 494.7103 118.36475 491.4445 114.94793 489.0659 110.5683 C 486.6873 106.18866 485.498 101.01623 485.498 95.05087 C 485.498 89.16101 486.6684 84.00747 489.00926 79.59007 C 491.3501 75.17268 494.6159 71.73698 498.80676 69.28288 C 502.9976 66.82877 507.8491 65.60174 513.3614 65.60174 C 518.7982 65.60174 523.4987 66.82877 527.463 69.28288 C 531.42735 71.73698 534.4666 74.96503 536.58093 78.96711 C 538.69524 82.96919 539.7524 87.27325 539.7524 91.87942 C 539.7524 92.71004 539.7335 93.54065 539.69575 94.37127 C 539.658 95.20189 539.6391 96.14577 539.6391 97.20292 L 494.8991 97.20292 C 495.1256 101.50705 496.1261 105.07489 497.90063 107.90655 C 499.67514 110.73821 501.9027 112.87136 504.5833 114.30607 C 507.26396 115.74078 510.11445 116.45812 513.1349 116.45812 C 517.06146 116.45812 520.34614 115.552 522.989 113.73974 C 525.6319 111.92748 527.5574 109.47341 528.7656 106.37746 L 538.16666 106.37746 C 536.65644 111.58771 533.7682 115.91065 529.5018 119.3464 C 525.23544 122.78215 519.77986 124.5 513.1349 124.5 Z M 513.1349 73.643614 C 508.60424 73.643614 504.58334 75.02167 501.0721 77.77782 C 497.5608 80.53397 495.5409 84.55487 495.01235 89.84064 L 530.3513 89.84064 C 530.1248 84.7814 528.38805 80.81714 525.1411 77.94772 C 521.8941 75.0783 517.8921 73.643614 513.1349 73.643614 Z" fill="white"/>
        </g>
        <g id="Graphic_133">
          <path d="M 582.9067 123.14081 L 582.9067 43.854685 L 631.15795 43.854685 L 631.15795 51.67003 L 592.421 51.67003 L 592.421 79.53344 L 625.3814 79.53344 L 625.3814 87.23552 L 592.421 87.23552 L 592.421 123.14081 Z" fill="white"/>
        </g>
        <g id="Graphic_132">
          <path d="M 648.6009 54.50168 C 646.7131 54.50168 645.1463 53.87872 643.9004 52.63279 C 642.6544 51.38686 642.0315 49.82003 642.0315 47.932257 C 642.0315 46.119994 642.6544 44.609797 643.9004 43.40162 C 645.1463 42.193446 646.7131 41.589367 648.6009 41.589367 C 650.4132 41.589367 651.9611 42.193446 653.2448 43.40162 C 654.5285 44.609797 655.1703 46.119994 655.1703 47.932257 C 655.1703 49.82003 654.5285 51.38686 653.2448 52.63279 C 651.9611 53.87872 650.4132 54.50168 648.6009 54.50168 Z M 643.8437 123.14081 L 643.8437 66.96093 L 653.3581 66.96093 L 653.3581 123.14081 Z" fill="white"/>
        </g>
        <g id="Graphic_131">
          <path d="M 669.8949 123.14081 L 669.8949 66.96093 L 678.5031 66.96093 L 679.0694 77.04159 C 680.8817 73.492576 683.4868 70.69871 686.8848 68.659915 C 690.2828 66.62112 694.1338 65.60174 698.4379 65.60174 C 705.0829 65.60174 710.3874 67.621624 714.35175 71.66146 C 718.3161 75.7013 720.2982 81.91198 720.2982 90.2937 L 720.2982 123.14081 L 710.7839 123.14081 L 710.7839 91.31309 C 710.7839 79.60889 705.95125 73.75688 696.2858 73.75688 C 691.4531 73.75688 687.4322 75.51248 684.223 79.02374 C 681.0138 82.535 679.4092 87.53753 679.4092 94.03148 L 679.4092 123.14081 Z" fill="white"/>
        </g>
        <g id="Graphic_130">
          <path d="M 760.5076 124.5 C 755.1463 124.5 750.3326 123.27297 746.0662 120.81886 C 741.7998 118.36475 738.4396 114.92905 735.9855 110.51166 C 733.5314 106.09427 732.3044 100.94072 732.3044 95.05087 C 732.3044 89.16101 733.5314 84.00747 735.9855 79.59007 C 738.4396 75.17268 741.7998 71.73698 746.0662 69.28288 C 750.3326 66.82877 755.1463 65.60174 760.5076 65.60174 C 767.1526 65.60174 772.7592 67.33846 777.3276 70.81197 C 781.896 74.28547 784.78425 78.92933 785.9924 84.74367 L 776.2516 84.74367 C 775.49645 81.27017 773.6465 78.57069 770.7015 76.64516 C 767.7566 74.71963 764.3209 73.75688 760.3943 73.75688 C 757.2229 73.75688 754.2402 74.54973 751.4463 76.13546 C 748.6524 77.72119 746.3871 80.09975 744.6504 83.27122 C 742.9136 86.44268 742.0453 90.36919 742.0453 95.05087 C 742.0453 99.73255 742.9136 103.65906 744.6504 106.83052 C 746.3871 110.00198 748.6524 112.39942 751.4463 114.0229 C 754.2402 115.64639 757.2229 116.45812 760.3943 116.45812 C 764.3209 116.45812 767.7566 115.49537 770.7015 113.56984 C 773.6465 111.64431 775.49645 108.90708 776.2516 105.35806 L 785.9924 105.35806 C 784.8598 111.02139 781.9904 115.62749 777.3842 119.1765 C 772.77805 122.72552 767.1526 124.5 760.5076 124.5 Z" fill="white"/>
        </g>
        <g id="Graphic_129">
          <path d="M 799.2445 123.14081 L 799.2445 41.589367 L 808.7589 41.589367 L 808.7589 76.58853 C 810.6466 73.11502 813.3272 70.41555 816.80075 68.49002 C 820.2743 66.56449 824.0497 65.60174 828.1273 65.60174 C 834.6213 65.60174 839.8315 67.621624 843.758 71.66146 C 847.6846 75.7013 849.6479 81.91198 849.6479 90.2937 L 849.6479 123.14081 L 840.2468 123.14081 L 840.2468 91.31309 C 840.2468 79.60889 835.5274 73.75688 826.0886 73.75688 C 821.1803 73.75688 817.0651 75.51248 813.7426 79.02374 C 810.4201 82.535 808.7589 87.53753 808.7589 94.03148 L 808.7589 123.14081 Z" fill="white"/>
        </g>
      </g>
    </g>
  </g>
</svg>
