<?xml version="1.0" encoding="UTF-8" standalone="no"?>
<!DOCTYPE svg PUBLIC "-//W3C//DTD SVG 1.1//EN" "http://www.w3.org/Graphics/SVG/1.1/DTD/svg11.dtd">
<svg xmlns="http://www.w3.org/2000/svg" version="1.1" xmlns:xl="http://www.w3.org/1999/xlink" xmlns:dc="http://purl.org/dc/elements/1.1/" viewBox="0 0 850 240" width="850" height="240">
  <defs/>
  <metadata> Produced by OmniGraffle 7.16 
    <dc:date>2020-07-12 17:54:44 +0000</dc:date>
  </metadata>
  <g id="Canvas_2" stroke-dasharray="none" stroke="none" stroke-opacity="1" fill="none" fill-opacity="1">
    <title>Canvas 2</title>
    <g id="Canvas_2: Layer 1">
      <title>Layer 1</title>
      <g id="Group_116">
        <title>Group_2</title>
        <g id="Group_162">
          <title>L</title>
          <g id="Group_163">
            <title>Graphic_34</title>
            <g id="Graphic_164">
              <path d="M 584.077 173.077 L 584.077 178.549 C 584.077 187.691 591.516 195.131 600.659 195.131 L 606.132 195.131 L 606.132 189.659 C 606.132 180.515 598.692 173.077 589.549 173.077 L 584.077 173.077 M 607.77 198.408 L 600.659 198.408 C 589.709 198.408 580.8 189.499 580.8 178.549 L 580.8 171.438 C 580.8 170.533 581.534 169.8 582.438 169.8 L 589.549 169.8 C 600.5 169.8 609.409 178.709 609.409 189.659 L 609.409 196.769 C 609.409 197.674 608.675 198.408 607.77 198.408" fill="white"/>
            </g>
          </g>
        </g>
        <g id="Group_141">
          <title>t</title>
          <g id="Group_142">
            <title>Graphic_20</title>
            <g id="Graphic_143">
              <rect x="358.6" y="151.433" width="491.4" height="3.278" fill="white"/>
            </g>
          </g>
        </g>
        <g id="Group_138">
          <title>t</title>
          <g id="Group_139">
            <title>Graphic_18</title>
            <g id="Graphic_140">
              <path d="M 582.6907 173.4047 C 582.3147 173.4047 581.9377 173.2757 581.6287 173.0127 L 559.5757 154.2067 C 558.8867 153.6197 558.8047 152.5847 559.3917 151.8967 C 559.9787 151.2077 561.0127 151.1257 561.7027 151.7127 L 583.7547 170.5187 C 584.4437 171.1067 584.5257 172.1397 583.9387 172.8297 C 583.6147 173.2097 583.1547 173.4047 582.6907 173.4047" fill="white"/>
            </g>
          </g>
        </g>
        <g id="Group_135">
          <title>L</title>
          <g id="Group_136">
            <title>Graphic_16</title>
            <g id="Graphic_137">
              <path d="M 356.1697 139.531 C 357.4007 135.277 356.9027 130.797 354.7667 126.918 C 352.6287 123.038 349.1087 120.223 344.8547 118.991 L 339.5987 117.469 L 338.0757 122.725 C 335.5327 131.508 340.6087 140.721 349.3917 143.265 L 354.6477 144.787 L 356.1697 139.531 M 338.4807 113.8 C 338.6307 113.8 338.7837 113.821 338.9367 113.865 L 345.7667 115.844 C 350.8607 117.318 355.0767 120.689 357.6367 125.336 C 360.1957 129.982 360.7927 135.347 359.3167 140.443 L 357.3397 147.274 C 357.2187 147.69 356.9367 148.043 356.5557 148.253 C 356.1767 148.463 355.7267 148.512 355.3097 148.391 L 348.4807 146.413 C 337.9617 143.367 331.8827 132.332 334.9287 121.813 L 336.9067 114.983 C 337.1137 114.266 337.7697 113.8 338.4807 113.8" fill="white"/>
            </g>
          </g>
        </g>
        <g id="Group_132">
          <title>t</title>
          <g id="Group_133">
            <title>Graphic_14</title>
            <g id="Graphic_134">
              <path d="M 355.7597 145.181 C 356.3457 145.181 356.9107 145.495 357.2067 146.047 L 360.4907 152.187 C 360.9177 152.985 360.6167 153.978 359.8187 154.405 C 359.0187 154.832 358.0277 154.53 357.6007 153.733 L 354.3167 147.593 C 353.8897 146.795 354.1907 145.802 354.9887 145.375 C 355.2347 145.243 355.4997 145.181 355.7597 145.181" fill="white"/>
            </g>
          </g>
        </g>
        <g id="Group_129">
          <title>L</title>
          <g id="Group_130">
            <title>Graphic_12</title>
            <g id="Graphic_131">
              <path d="M 332.0097 183.073 L 337.4737 182.767 C 341.8957 182.52 345.9567 180.565 348.9087 177.263 C 351.8607 173.961 353.3497 169.707 353.1027 165.285 L 352.7967 159.822 L 347.3337 160.128 C 342.9107 160.375 338.8497 162.329 335.8987 165.632 C 332.9467 168.933 331.4567 173.187 331.7037 177.61 L 332.0097 183.073 M 354.3417 156.455 C 354.7427 156.455 355.1317 156.602 355.4337 156.872 C 355.7577 157.161 355.9527 157.568 355.9777 158.002 L 356.3747 165.101 C 356.6717 170.398 354.8877 175.492 351.3527 179.448 C 347.8167 183.402 342.9517 185.743 337.6557 186.04 L 330.5567 186.437 C 330.1197 186.461 329.6967 186.312 329.3727 186.023 C 329.0487 185.733 328.8537 185.327 328.8287 184.893 L 328.4317 177.793 C 328.1357 172.496 329.9197 167.402 333.4537 163.447 C 336.9897 159.492 341.8537 157.151 347.1507 156.855 L 354.2497 156.457 C 354.2807 156.456 354.3107 156.455 354.3417 156.455" fill="white"/>
            </g>
          </g>
        </g>
        <g id="Group_126">
          <title>t</title>
          <g id="Group_127">
            <title>Graphic_10</title>
            <g id="Graphic_128">
              <path d="M 359.0497 151.321 C 359.4457 151.321 359.8417 151.464 360.1557 151.752 C 360.8237 152.363 360.8687 153.4 360.2577 154.067 L 355.5537 159.2 C 354.9427 159.868 353.9047 159.913 353.2377 159.301 C 352.5707 158.69 352.5257 157.654 353.1367 156.987 L 357.8417 151.853 C 358.1647 151.5 358.6067 151.321 359.0497 151.321" fill="white"/>
            </g>
          </g>
        </g>
        <g id="Group_165">
          <g id="Group_159">
            <title>B</title>
            <g id="Group_160">
              <title>Graphic_32</title>
              <g id="Graphic_161">
                <path d="M 163.71953 156.07922 L 180.81384 173.17353 C 181.45306 173.81275 181.45306 174.85079 180.81313 175.49072 C 180.1732 176.13065 179.13517 176.13065 178.49594 175.49142 L 161.40164 158.39712 C 129.24596 126.24144 76.9243 126.24144 44.768615 158.39712 L 20.362825 182.8029 C 19.722893 183.44284 18.686274 183.44284 18.046343 182.8029 C 17.405704 182.16227 17.405704 181.12565 18.045636 180.48572 L 42.451426 156.07993 C 75.88485 122.6465 130.28611 122.6458 163.71953 156.07922" fill="white"/>
              </g>
            </g>
          </g>
          <g id="Group_156">
            <title>B</title>
            <g id="Group_157">
              <title>Graphic_30</title>
              <g id="Graphic_158">
                <path d="M 244.16707 236.5706 C 244.46406 236.86759 244.6479 237.2763 244.6479 237.72884 C 244.6472 238.63465 243.91393 239.36792 243.00883 239.36792 L 88.72732 239.36438 L 42.52426 239.36933 C 33.299343 239.36933 24.626678 235.77793 18.104325 229.25558 C 7.640559 218.79182 4.935169 202.93424 11.371255 189.79478 C 11.769356 188.98231 12.75082 188.64573 13.563286 189.04383 C 14.377166 189.44193 14.713041 190.4227 14.314233 191.23586 C 8.494037 203.11738 10.949112 217.46458 20.422221 226.93769 C 26.32515 232.8406 34.17474 236.0926 42.52355 236.0919 L 88.72732 236.08765 L 243.00954 236.09048 C 243.46138 236.08977 243.8708 236.27432 244.16707 236.5706" fill="white"/>
              </g>
            </g>
          </g>
          <g id="Group_153">
            <title>B</title>
            <g id="Group_154">
              <title>Graphic_28</title>
              <g id="Graphic_155">
                <path d="M 324.49864 197.34739 C 329.8479 202.69665 333.18545 210.06612 333.23353 218.18936 C 333.23636 218.6306 333.0603 219.05415 332.74563 219.36457 C 332.43167 219.6757 332.0053 219.8461 331.56335 219.83692 L 234.02645 217.9546 C 233.12206 217.9355 232.40152 217.1881 232.4192 216.2837 C 232.43688 215.37932 233.185 214.65948 234.08938 214.67716 L 329.89316 216.52766 C 328.9407 202.8006 317.4311 191.90054 303.4919 191.89984 L 208.80254 190.01681 C 207.89886 189.99843 207.17973 189.2496 207.1967 188.34592 C 207.21438 187.44011 207.9632 186.7224 208.8676 186.74008 L 303.52444 188.6231 C 311.68587 188.6231 319.1133 191.96206 324.49864 197.34739" fill="white"/>
              </g>
            </g>
          </g>
          <g id="Group_150">
            <title>B</title>
            <g id="Group_151">
              <title>Graphic_26</title>
              <g id="Graphic_152">
                <path d="M 299.21392 222.41432 C 303.41484 226.61524 306.0368 232.40362 306.07427 238.78385 C 306.0764 239.22437 305.90174 239.64793 305.58778 239.95906 C 305.27382 240.26877 304.84815 240.4399 304.40762 240.4321 L 242.97984 239.3672 C 242.07474 239.35165 241.3535 238.60636 241.36905 237.69985 C 241.3846 236.79475 242.13202 236.0742 243.0357 236.08977 L 302.71693 237.12497 C 301.8005 226.9002 293.15684 218.8406 282.7157 218.84202 L 234.02787 217.95319 C 233.12348 217.93692 232.40293 217.1895 232.4185 216.28583 C 232.43546 215.38073 233.18217 214.6609 234.08726 214.67787 L 282.7461 215.56458 C 289.1525 215.56458 294.98542 218.18582 299.21392 222.41432" fill="white"/>
              </g>
            </g>
          </g>
          <g id="Group_147">
            <title>B</title>
            <g id="Group_148">
              <title>Graphic_24</title>
              <g id="Graphic_149">
                <path d="M 220.91316 196.58654 C 231.95604 207.62943 240.27374 221.52195 244.5892 237.2968 C 244.82822 238.16937 244.31415 239.07093 243.44158 239.30993 C 242.5683 239.54823 241.66745 239.03345 241.42774 238.1616 C 230.88407 199.62498 195.56055 172.71037 155.5277 172.70967 C 119.60031 172.71037 90.36993 201.87711 90.36922 237.72813 C 90.36993 238.63394 89.63595 239.36792 88.73086 239.3665 C 87.82718 239.36792 87.09249 238.63323 87.0932 237.72884 C 87.09249 200.07046 117.79224 169.43293 155.527 169.43223 C 180.64838 169.43293 203.9836 179.657 220.91316 196.58654" fill="white"/>
              </g>
            </g>
          </g>
          <g id="Group_144">
            <title>B</title>
            <g id="Group_145">
              <title>Graphic_22</title>
              <g id="Graphic_146">
                <path d="M 33.193277 218.36967 C 34.286464 219.46286 36.06696 219.46286 37.160853 218.36897 C 38.254747 217.27507 38.25404 215.49528 37.160853 214.4021 C 36.06625 213.3075 34.28717 213.3075 33.193277 214.4014 C 32.099383 215.49528 32.098676 217.27507 33.193277 218.36967 M 39.47875 212.0842 C 41.850385 214.45584 41.84968 218.31452 39.47804 220.68615 C 37.1057 223.0585 33.247724 223.0585 30.876088 220.68686 C 28.504452 218.31523 28.503745 214.45654 30.876088 212.0842 C 33.247724 209.71256 37.107113 209.71256 39.47875 212.0842" fill="white"/>
              </g>
            </g>
          </g>
          <g id="Group_123">
            <title>B</title>
            <g id="Group_124">
              <title>Graphic_8</title>
              <g id="Graphic_125">
                <path d="M 23.025082 193.80054 C 23.414697 193.25395 24.05958 192.10278 24.295752 191.68134 C 24.43576 191.43103 24.547482 191.23445 24.61183 191.12626 C 25.955332 188.9102 25.852094 187.79155 24.111905 185.68366 C 23.07175 184.4229 21.203574 183.85296 19.382775 183.37708 C 17.327215 182.8418 15.237715 182.36026 13.148921 181.93882 C 13.204075 189.34506 14.263321 192.58785 20.694458 193.71993 C 21.026798 193.77226 22.344845 193.83024 23.025082 193.80054 M 26.179485 183.0914 C 26.33929 183.25121 26.49132 183.4188 26.638397 183.597 C 29.24833 186.75564 29.47248 189.4292 27.4148 192.82615 C 27.360353 192.91454 27.271258 193.07717 27.155292 193.28223 C 25.771484 195.75357 25.228426 196.48047 24.512834 196.81706 C 23.416112 197.33254 20.154935 196.95212 20.125237 196.94787 C 9.721575 195.11576 9.800063 187.40052 9.875017 179.93771 C 9.879966 179.45476 10.098462 178.99726 10.471815 178.69038 C 10.84446 178.38278 11.334485 178.25621 11.809661 178.34248 C 14.618289 178.85867 17.444595 179.48587 20.209382 180.20712 C 22.250093 180.73886 24.530512 181.44243 26.179485 183.0914" fill="white"/>
              </g>
            </g>
          </g>
          <g id="Group_120">
            <title>B</title>
            <g id="Group_121">
              <title>Graphic_6</title>
              <g id="Graphic_122">
                <path d="M 12.90497 178.8226 C 12.98558 178.90321 13.058411 178.99302 13.123465 179.09343 C 16.08695 183.67901 18.402725 186.43602 21.98422 189.63427 C 22.651022 190.22329 22.718197 191.27334 22.114328 191.94933 C 21.511873 192.62391 20.475962 192.6812 19.800675 192.07944 C 16.028967 188.70937 13.472069 185.67023 10.370699 180.8718 C 9.879259 180.11166 10.097048 179.09767 10.857895 178.60552 C 11.517626 178.17914 12.370397 178.28803 12.90497 178.8226" fill="white"/>
              </g>
            </g>
          </g>
          <g id="Group_117">
            <title>B</title>
            <g id="Group_118">
              <title>Graphic_4</title>
              <g id="Graphic_119">
                <path d="M 225.94069 211.32547 C 233.36248 218.74727 239.63098 227.37043 244.43082 236.94042 C 244.8374 237.75005 244.51072 238.73435 243.7018 239.14023 C 242.89286 239.5461 241.90645 239.22013 241.50199 238.40979 C 229.2563 213.9948 207.11255 195.9367 180.74808 188.8621 L 180.45958 188.78432 C 159.02222 183.03343 135.86518 187.89478 118.51773 201.78873 C 115.93679 203.8563 114.28782 206.60837 113.87487 209.53862 C 113.52273 212.0432 114.06225 214.16097 115.52384 216.01289 C 119.75941 221.3869 130.02165 222.40867 130.1256 222.41786 C 131.02433 222.502 131.68689 223.30174 131.60133 224.2033 C 131.51718 225.10486 130.71744 225.766 129.81588 225.68045 C 129.33788 225.6352 118.04892 224.49746 112.95139 218.0437 C 110.9333 215.4868 110.15266 212.4717 110.62995 209.08112 C 111.15887 205.32072 113.23281 201.82267 116.46854 199.23041 C 134.62774 184.68735 158.86737 179.599 181.30952 185.61931 L 181.59731 185.6964 C 198.5297 190.24026 213.78199 199.16677 225.94069 211.32547" fill="white"/>
              </g>
            </g>
          </g>
        </g>
      </g>
      <g id="Group_99">
        <title>Group_45</title>
        <g id="Group_114">
          <title>Graphic_37</title>
          <g id="Graphic_115">
            <path d="M 383.9919 143.81781 L 383.9919 142.84615 L 388.07287 142.84615 C 389.498 142.84615 390.68016 142.48988 391.61943 141.77733 C 392.5587 141.06477 393.02834 139.3158 393.02834 136.53036 L 393.02834 75.412955 L 386.8097 75.412955 C 381.56273 75.412955 377.7409 76.44938 375.34413 78.52227 C 372.94736 80.59515 371.58705 84.09309 371.26316 89.01619 L 370.97166 93.2915 L 370 93.2915 L 370.68016 74.4413 L 430.8259 74.4413 L 431.50607 93.2915 L 430.5344 93.2915 L 430.2429 89.01619 C 429.91903 84.09309 428.5587 80.59515 426.16194 78.52227 C 423.76517 76.44938 419.94335 75.412955 414.69636 75.412955 L 408.47773 75.412955 L 408.47773 136.53036 C 408.47773 139.3158 408.94736 141.06477 409.88664 141.77733 C 410.8259 142.48988 412.0081 142.84615 413.4332 142.84615 L 417.51417 142.84615 L 417.51417 143.81781 Z" fill="white"/>
          </g>
        </g>
        <g id="Group_112">
          <title>Graphic_38</title>
          <g id="Graphic_113">
            <path d="M 434.12955 143.81781 L 434.12955 142.84615 L 435.29555 142.84615 C 436.2672 142.84615 437.28744 142.7004 438.3563 142.4089 C 439.4251 142.1174 440.332 141.53442 441.0769 140.65992 C 441.82187 139.78542 442.19433 138.40892 442.19433 136.53036 L 442.19433 76.870445 C 442.19433 75.12145 441.80567 73.825915 441.02834 72.98381 C 440.251 72.1417 439.32794 71.59109 438.2591 71.33198 C 437.1903 71.07287 436.20243 70.94332 435.29555 70.94332 L 434.12955 70.94332 L 434.12955 69.97166 L 456.96356 69.97166 L 456.96356 89.50202 C 456.96356 91.38058 456.96356 93.24291 456.96356 95.08907 C 456.96356 96.93523 456.9312 98.79756 456.8664 100.67611 L 457.06073 100.67611 C 457.83806 97.76112 458.95546 95.57491 460.41296 94.11741 C 461.87045 92.65991 463.53845 91.68826 465.417 91.20243 C 467.29556 90.7166 469.1741 90.47368 471.05263 90.47368 C 476.75306 90.47368 480.99594 91.96355 483.7814 94.94332 C 486.5668 97.92309 487.9595 102.68418 487.9595 109.22672 L 487.9595 135.94737 C 487.9595 138.99192 488.4939 140.90283 489.56275 141.68016 C 490.6316 142.4575 492.2672 142.84615 494.46964 142.84615 L 494.76113 142.84615 L 494.76113 143.81781 L 473.1903 143.81781 L 473.1903 106.02024 C 473.1903 101.8097 472.6235 98.65183 471.4899 96.54656 C 470.35627 94.44129 468.49394 93.38866 465.90283 93.38866 C 462.4696 93.38866 460.12146 95.10525 458.8583 98.53846 C 457.59514 101.97168 456.96356 106.40888 456.96356 111.8502 L 456.96356 136.53036 C 456.96356 138.40892 457.33603 139.78542 458.08097 140.65992 C 458.8259 141.53442 459.7328 142.1174 460.8016 142.4089 C 461.87045 142.7004 462.8907 142.84615 463.86235 142.84615 L 465.02834 142.84615 L 465.02834 143.81781 Z" fill="white"/>
          </g>
        </g>
        <g id="Group_110">
          <title>Graphic_39</title>
          <g id="Graphic_111">
            <path d="M 527.5061 144.78947 C 519.085 144.78947 512.7045 142.45751 508.3644 137.79352 C 504.0243 133.12953 501.85425 126.5547 501.85425 118.06883 C 501.85425 108.93518 503.9433 102.05265 508.12146 97.42105 C 512.2996 92.78945 518.2429 90.47368 525.9514 90.47368 C 533.0122 90.47368 538.5668 92.44937 542.6154 96.40081 C 546.664 100.35225 548.68826 106.18215 548.68826 113.89069 L 548.68826 116.22267 L 516.8178 116.22267 C 516.8178 126.06888 517.82185 133.11334 519.82996 137.35628 C 521.8381 141.59921 525.1417 143.72065 529.7409 143.72065 C 533.1093 143.72065 536.0081 142.60325 538.43725 140.36842 C 540.8664 138.1336 542.40486 134.36035 543.0526 129.04858 C 544.3482 129.3077 545.27125 129.8583 545.82186 130.7004 C 546.3725 131.54251 546.6478 132.51416 546.6478 133.61538 C 546.6478 135.49394 545.9352 137.2753 544.5101 138.95951 C 543.085 140.64373 540.9636 142.03643 538.14575 143.13765 C 535.3279 144.23887 531.7814 144.78947 527.5061 144.78947 Z M 516.8178 115.25101 L 533.919 115.25101 C 533.919 109.42102 533.6923 104.7571 533.2389 101.25911 C 532.7854 97.76112 531.9757 95.25102 530.8097 93.72874 C 529.6437 92.20647 528.0243 91.44534 525.9514 91.44534 C 522.7773 91.44534 520.47774 93.21051 519.0526 96.74089 C 517.6275 100.27127 516.8826 106.44125 516.8178 115.25101 Z" fill="white"/>
          </g>
        </g>
        <g id="Group_108">
          <title>Graphic_40</title>
          <g id="Graphic_109">
            <path d="M 577.3522 143.81781 L 577.3522 142.84615 L 581.4332 142.84615 C 582.7935 142.84615 583.9595 142.52227 584.9312 141.8745 C 585.90284 141.22672 586.38866 139.6073 586.38866 137.0162 L 586.38866 81.728745 C 586.38866 78.94331 585.919 77.19434 584.97976 76.48178 C 584.0405 75.76923 582.8583 75.412955 581.4332 75.412955 L 577.3522 75.412955 L 577.3522 74.4413 L 631.085 74.4413 L 631.668 92.31984 L 630.69636 92.31984 L 630.40486 89.01619 C 629.9514 84.09309 628.5425 80.59515 626.17814 78.52227 C 623.81375 76.44938 620.0405 75.412955 614.8583 75.412955 L 601.83806 75.412955 L 601.83806 107.08907 L 624.8664 107.08907 L 624.8664 108.06073 L 601.83806 108.06073 L 601.83806 136.53036 C 601.83806 139.3158 602.3077 141.06477 603.24696 141.77733 C 604.18624 142.48988 605.3684 142.84615 606.7935 142.84615 L 612.8178 142.84615 L 612.8178 143.81781 Z" fill="white"/>
          </g>
        </g>
        <g id="Group_106">
          <title>Graphic_41</title>
          <g id="Graphic_107">
            <path d="M 651.58704 82.9919 C 649.7085 82.9919 648.1053 82.42511 646.7773 81.2915 C 645.4494 80.15789 644.7854 78.39272 644.7854 75.99595 C 644.7854 73.5344 645.4494 71.75304 646.7773 70.65182 C 648.1053 69.5506 649.7085 69 651.58704 69 C 653.4656 69 655.085 69.5506 656.44534 70.65182 C 657.8057 71.75304 658.4858 73.5344 658.4858 75.99595 C 658.4858 78.39272 657.8057 80.15789 656.44534 81.2915 C 655.085 82.42511 653.4656 82.9919 651.58704 82.9919 Z M 636.6235 143.81781 L 636.6235 142.84615 L 637.7895 142.84615 C 638.76114 142.84615 639.7814 142.7004 640.8502 142.4089 C 641.919 142.1174 642.8259 141.53442 643.57085 140.65992 C 644.3158 139.78542 644.68826 138.40892 644.68826 136.53036 L 644.68826 98.63563 C 644.68826 96.88663 644.2996 95.5911 643.5223 94.74899 C 642.7449 93.90688 641.8219 93.35628 640.753 93.09717 C 639.6842 92.83806 638.69636 92.7085 637.7895 92.7085 L 636.6235 92.7085 L 636.6235 91.73684 L 659.4575 91.73684 L 659.4575 136.53036 C 659.4575 138.40892 659.82996 139.78542 660.5749 140.65992 C 661.31984 141.53442 662.2267 142.1174 663.29555 142.4089 C 664.3644 142.7004 665.3846 142.84615 666.3563 142.84615 L 667.5223 142.84615 L 667.5223 143.81781 Z" fill="white"/>
          </g>
        </g>
        <g id="Group_104">
          <title>Graphic_42</title>
          <g id="Graphic_105">
            <path d="M 670.8259 143.81781 L 670.8259 142.84615 L 671.9919 142.84615 C 672.9636 142.84615 673.9838 142.7004 675.0526 142.4089 C 676.1215 142.1174 677.0283 141.53442 677.7733 140.65992 C 678.5182 139.78542 678.8907 138.40892 678.8907 136.53036 L 678.8907 98.63563 C 678.8907 96.88663 678.502 95.5911 677.7247 94.74899 C 676.9474 93.90688 676.0243 93.35628 674.9555 93.09717 C 673.8866 92.83806 672.8988 92.7085 671.9919 92.7085 L 670.8259 92.7085 L 670.8259 91.73684 L 693.6599 91.73684 L 693.6599 100.57895 L 693.85425 100.57895 C 694.6316 97.66395 695.7328 95.49393 697.1579 94.06883 C 698.583 92.64372 700.2348 91.68826 702.1134 91.20243 C 703.9919 90.7166 705.8704 90.47368 707.749 90.47368 C 713.4494 90.47368 717.6923 91.96355 720.4777 94.94332 C 723.2632 97.92309 724.6559 102.68418 724.6559 109.22672 L 724.6559 135.94737 C 724.6559 138.99192 725.1903 140.90283 726.2591 141.68016 C 727.3279 142.4575 728.96355 142.84615 731.166 142.84615 L 731.4575 142.84615 L 731.4575 143.81781 L 709.8866 143.81781 L 709.8866 106.02024 C 709.8866 101.8097 709.3198 98.65183 708.1862 96.54656 C 707.0526 94.44129 705.1903 93.38866 702.5992 93.38866 C 699.166 93.38866 696.8178 95.10525 695.5547 98.53846 C 694.2915 101.97168 693.6599 106.40888 693.6599 111.8502 L 693.6599 136.53036 C 693.6599 138.40892 694.0324 139.78542 694.7773 140.65992 C 695.5223 141.53442 696.4291 142.1174 697.498 142.4089 C 698.5668 142.7004 699.587 142.84615 700.5587 142.84615 L 701.7247 142.84615 L 701.7247 143.81781 Z" fill="white"/>
          </g>
        </g>
        <g id="Group_102">
          <title>Graphic_43</title>
          <g id="Graphic_103">
            <path d="M 762.7449 144.78947 C 757.9514 144.78947 753.7247 143.93118 750.0648 142.21457 C 746.4048 140.49797 743.5709 137.68018 741.56275 133.76113 C 739.55465 129.84209 738.5506 124.57898 738.5506 117.97166 C 738.5506 110.97567 739.587 105.48585 741.6599 101.50202 C 743.7328 97.5182 746.5992 94.68422 750.2591 93 C 753.91905 91.31578 758.1133 90.47368 762.8421 90.47368 C 768.7369 90.47368 773.336 91.44533 776.6397 93.38866 C 779.9433 95.33199 781.5951 97.85828 781.5951 100.96761 C 781.5951 102.19839 781.2551 103.42914 780.5749 104.65992 C 779.8947 105.8907 778.6478 106.91093 776.834 107.72065 C 775.0202 108.53037 772.4292 108.93522 769.0607 108.93522 C 769.0607 104.46556 768.8502 100.96762 768.42915 98.4413 C 768.0081 95.91497 767.31175 94.11741 766.3401 93.04858 C 765.3684 91.97975 764.0081 91.44534 762.2591 91.44534 C 760.12145 91.44534 758.4049 92.25505 757.1093 93.87449 C 755.8138 95.49394 754.8907 98.23075 754.3401 102.08502 C 753.7895 105.93929 753.5142 111.2024 753.5142 117.8745 C 753.5142 127.20248 754.4372 133.84209 756.2834 137.79352 C 758.1296 141.74496 761.22265 143.72065 765.56275 143.72065 C 768.9312 143.72065 771.7976 142.63564 774.1619 140.46559 C 776.5263 138.29554 778.0324 134.5223 778.6802 129.14575 C 779.7166 129.46964 780.5263 130.08502 781.1093 130.9919 C 781.6923 131.89879 781.9838 132.93522 781.9838 134.10121 C 781.9838 135.72066 781.30365 137.35627 779.9433 139.0081 C 778.583 140.65993 776.4939 142.03643 773.6761 143.13765 C 770.8583 144.23887 767.2146 144.78947 762.7449 144.78947 Z" fill="white"/>
          </g>
        </g>
        <g id="Group_100">
          <title>Graphic_44</title>
          <g id="Graphic_101">
            <path d="M 786.8421 143.81781 L 786.8421 142.84615 L 788.0081 142.84615 C 788.9798 142.84615 790 142.7004 791.0688 142.4089 C 792.1377 142.1174 793.0445 141.53442 793.7895 140.65992 C 794.5344 139.78542 794.9069 138.40892 794.9069 136.53036 L 794.9069 76.870445 C 794.9069 75.12145 794.5182 73.825915 793.7409 72.98381 C 792.9636 72.1417 792.0405 71.59109 790.9717 71.33198 C 789.9028 71.07287 788.915 70.94332 788.0081 70.94332 L 786.8421 70.94332 L 786.8421 69.97166 L 809.6761 69.97166 L 809.6761 89.50202 C 809.6761 91.38058 809.6761 93.24291 809.6761 95.08907 C 809.6761 96.93523 809.6437 98.79756 809.5789 100.67611 L 809.7733 100.67611 C 810.5506 97.76112 811.668 95.57491 813.1255 94.11741 C 814.583 92.65991 816.251 91.68826 818.1296 91.20243 C 820.0081 90.7166 821.8866 90.47368 823.7652 90.47368 C 829.4656 90.47368 833.7085 91.96355 836.4939 94.94332 C 839.2794 97.92309 840.6721 102.68418 840.6721 109.22672 L 840.6721 135.94737 C 840.6721 138.99192 841.2065 140.90283 842.2753 141.68016 C 843.3441 142.4575 844.9797 142.84615 847.1822 142.84615 L 847.4737 142.84615 L 847.4737 143.81781 L 825.9028 143.81781 L 825.9028 106.02024 C 825.9028 101.8097 825.336 98.65183 824.2024 96.54656 C 823.0688 94.44129 821.2065 93.38866 818.6154 93.38866 C 815.1822 93.38866 812.834 95.10525 811.57085 98.53846 C 810.3077 101.97168 809.6761 106.40888 809.6761 111.8502 L 809.6761 136.53036 C 809.6761 138.40892 810.0486 139.78542 810.7935 140.65992 C 811.5385 141.53442 812.4453 142.1174 813.5142 142.4089 C 814.583 142.7004 815.6032 142.84615 816.5749 142.84615 L 817.7409 142.84615 L 817.7409 143.81781 Z" fill="white"/>
          </g>
        </g>
      </g>
    </g>
  </g>
</svg>
