<?xml version="1.0" encoding="UTF-8" standalone="no"?>
<!DOCTYPE svg PUBLIC "-//W3C//DTD SVG 1.1//EN" "http://www.w3.org/Graphics/SVG/1.1/DTD/svg11.dtd">
<svg xmlns:dc="http://purl.org/dc/elements/1.1/" xmlns="http://www.w3.org/2000/svg" xmlns:xl="http://www.w3.org/1999/xlink" version="1.1" viewBox="0 0 850 240" width="850" height="240">
  <defs/>
  <metadata> Produced by OmniGraffle 7.16 
    <dc:date>2020-07-14 21:12:00 +0000</dc:date>
  </metadata>
  <g id="Canvas_1" stroke="none" fill="none" stroke-dasharray="none" stroke-opacity="1" fill-opacity="1">
    <title>Canvas 1</title>
    <g id="Canvas_1: Layer 1">
      <title>Layer 1</title>
      <g id="Group_2">
        <title>Canvas_1</title>
        <g id="Group_4">
          <title>Group_30</title>
          <g id="Group_51">
            <title>Group_95</title>
            <g id="Group_82">
              <title>Group_91</title>
              <g id="Group_83">
                <title>Group_92</title>
                <g id="Group_84">
                  <title>Group_93</title>
                  <g id="Group_85">
                    <title>Graphic_94</title>
                    <g id="Graphic_86">
                      <path d="M 279.23978 159.25367 L 279.23978 162.9643 C 279.23978 169.16364 284.28428 174.20882 290.4843 174.20882 L 294.19562 174.20882 L 294.19562 170.49817 C 294.19562 164.29749 289.15044 159.25367 282.95043 159.25367 L 279.23978 159.25367 M 295.30637 176.43099 L 290.4843 176.43099 C 283.05893 176.43099 277.0176 170.38969 277.0176 162.9643 L 277.0176 158.14224 C 277.0176 157.52854 277.51534 157.03149 278.12835 157.03149 L 282.95043 157.03149 C 290.37648 157.03149 296.4178 163.0728 296.4178 170.49817 L 296.4178 175.31957 C 296.4178 175.93327 295.92006 176.43099 295.30637 176.43099" fill="white"/>
                    </g>
                  </g>
                </g>
              </g>
            </g>
            <g id="Group_77">
              <title>Group_63</title>
              <g id="Group_78">
                <title>Group_64</title>
                <g id="Group_79">
                  <title>Group_65</title>
                  <g id="Group_80">
                    <title>Graphic_66</title>
                    <g id="Graphic_81">
                      <rect x="160.2" y="144.27838" width="689.8" height="2.2228615" fill="white"/>
                    </g>
                  </g>
                </g>
              </g>
            </g>
            <g id="Group_72">
              <title>Group_59</title>
              <g id="Group_73">
                <title>Group_60</title>
                <g id="Group_74">
                  <title>Group_61</title>
                  <g id="Group_75">
                    <title>Graphic_62</title>
                    <g id="Graphic_76">
                      <path d="M 278.12768 159.25367 C 277.8727 159.25367 277.61706 159.16619 277.40752 158.98785 L 262.45304 146.2352 C 261.98582 145.83716 261.93022 145.1353 262.32827 144.66877 C 262.72632 144.20155 263.4275 144.14594 263.8954 144.54399 L 278.8492 157.29663 C 279.3164 157.69536 279.37202 158.39585 278.97396 158.86375 C 278.75426 159.12144 278.44232 159.25367 278.12768 159.25367" fill="white"/>
                    </g>
                  </g>
                </g>
              </g>
            </g>
            <g id="Group_67">
              <title>Group_55</title>
              <g id="Group_68">
                <title>Group_56</title>
                <g id="Group_69">
                  <title>Group_57</title>
                  <g id="Group_70">
                    <title>Graphic_58</title>
                    <g id="Graphic_71">
                      <path d="M 207.73678 155.04573 C 208.57154 157.93043 208.23384 160.96839 206.78538 163.5988 C 205.33557 166.22989 202.9486 168.13878 200.0639 168.9742 L 196.49974 170.0063 L 195.46696 166.44214 C 193.7425 160.48625 197.18464 154.23878 203.1405 152.51365 L 206.7047 151.48156 L 207.73678 155.04573 M 195.7416 172.4943 C 195.84332 172.4943 195.94707 172.48007 196.05082 172.45024 L 200.68234 171.10825 C 204.13666 170.1087 206.9956 167.82278 208.73157 164.67158 C 210.46687 161.52105 210.8717 157.88297 209.8708 154.42729 L 208.53017 149.79509 C 208.44812 149.51299 208.2569 149.2736 207.99854 149.1312 C 207.74152 148.9888 207.43637 148.95558 207.1536 149.03763 L 202.52274 150.37894 C 195.38966 152.44448 191.26739 159.92748 193.33294 167.06058 L 194.67424 171.6921 C 194.8146 172.1783 195.25946 172.4943 195.7416 172.4943" fill="white"/>
                    </g>
                  </g>
                </g>
              </g>
            </g>
            <g id="Group_62">
              <title>Group_51</title>
              <g id="Group_63">
                <title>Group_52</title>
                <g id="Group_64">
                  <title>Group_53</title>
                  <g id="Group_65">
                    <title>Graphic_54</title>
                    <g id="Graphic_66">
                      <path d="M 207.06893 151.18643 C 207.46633 151.18643 207.84945 150.9735 208.05017 150.59918 L 210.2771 146.43556 C 210.56666 145.89442 210.36255 145.22106 209.8214 144.9315 C 209.27893 144.64194 208.6069 144.84673 208.31735 145.3872 L 206.09043 149.55082 C 205.80087 150.09196 206.00498 150.76532 206.5461 151.05488 C 206.71293 151.1444 206.89263 151.18643 207.06893 151.18643" fill="white"/>
                    </g>
                  </g>
                </g>
              </g>
            </g>
            <g id="Group_57">
              <title>Group_47</title>
              <g id="Group_58">
                <title>Group_48</title>
                <g id="Group_59">
                  <title>Group_49</title>
                  <g id="Group_60">
                    <title>Graphic_50</title>
                    <g id="Graphic_61">
                      <path d="M 281.5098 124.96973 L 277.80457 125.17723 C 274.80595 125.34473 272.05212 126.67044 270.05033 128.90958 C 268.04853 131.14872 267.03882 134.03342 267.2063 137.03204 L 267.4138 140.73659 L 271.11837 140.52908 C 274.11767 140.36159 276.8715 139.03655 278.8726 136.79674 C 280.8744 134.55828 281.8848 131.67358 281.7173 128.67427 L 281.5098 124.96973 M 266.36613 143.0198 C 266.0942 143.0198 265.83042 142.92012 265.62562 142.73703 C 265.40592 142.54105 265.27367 142.26506 265.25673 141.97076 L 264.98752 137.15682 C 264.78612 133.56484 265.99587 130.11052 268.393 127.4279 C 270.79083 124.74663 274.08987 123.15916 277.68117 122.95776 L 282.4951 122.68855 C 282.79143 122.67228 283.07827 122.77332 283.29797 122.96929 C 283.5177 123.16595 283.64993 123.44126 283.66687 123.73556 L 283.9361 128.55018 C 284.1368 132.14216 282.92707 135.59647 280.5306 138.27842 C 278.13277 140.96037 274.83443 142.54783 271.24245 142.74856 L 266.4285 143.01844 C 266.4075 143.01912 266.38715 143.0198 266.36613 143.0198" fill="white"/>
                    </g>
                  </g>
                </g>
              </g>
            </g>
            <g id="Group_52">
              <title>Group_43</title>
              <g id="Group_53">
                <title>Group_44</title>
                <g id="Group_54">
                  <title>Group_45</title>
                  <g id="Group_55">
                    <title>Graphic_46</title>
                    <g id="Graphic_56">
                      <path d="M 263.17357 146.50124 C 262.90503 146.50124 262.6365 146.40427 262.42357 146.20898 C 261.97057 145.79465 261.94007 145.09144 262.3544 144.63914 L 265.54425 141.15838 C 265.95857 140.7054 266.66247 140.67488 267.11477 141.08989 C 267.56707 141.50421 267.59757 142.20674 267.18327 142.65904 L 263.99272 146.14049 C 263.7737 146.37986 263.47397 146.50124 263.17357 146.50124" fill="white"/>
                    </g>
                  </g>
                </g>
              </g>
            </g>
          </g>
          <g id="Group_5">
            <title>Group_96</title>
            <g id="Group_46">
              <title>Group_87</title>
              <g id="Group_47">
                <title>Group_88</title>
                <g id="Group_48">
                  <title>Group_89</title>
                  <g id="Group_49">
                    <title>Graphic_90</title>
                    <g id="Graphic_50">
                      <path d="M 118.47997 183.81812 L 130.07187 195.41002 C 130.50534 195.8435 130.50534 196.5474 130.0714 196.98135 C 129.63745 197.4153 128.93354 197.4153 128.50007 196.98182 L 116.90817 185.38992 C 95.10291 163.58466 59.6228 163.58467 37.817545 185.38992 L 21.267612 201.93986 C 20.83366 202.3738 20.130715 202.3738 19.696763 201.93985 C 19.262338 201.50543 19.262335 200.80248 19.696287 200.36853 L 36.24622 183.8186 C 58.91793 161.14689 95.80826 161.1464 118.47997 183.81812" fill="white"/>
                    </g>
                  </g>
                </g>
              </g>
            </g>
            <g id="Group_41">
              <title>Group_83</title>
              <g id="Group_42">
                <title>Group_84</title>
                <g id="Group_43">
                  <title>Group_85</title>
                  <g id="Group_44">
                    <title>Graphic_86</title>
                    <g id="Graphic_45">
                      <path d="M 173.03266 238.40054 C 173.23405 238.60193 173.35872 238.87908 173.35872 239.18596 C 173.35824 239.8002 172.861 240.29745 172.24724 240.29744 L 67.626615 240.29505 L 36.29561 240.2984 C 30.040053 240.2984 24.15899 237.86303 19.736088 233.44012 C 12.640448 226.34448 10.805875 215.5912 15.170287 206.68115 C 15.440243 206.1302 16.10579 205.90196 16.656739 206.17192 C 17.208635 206.44188 17.436402 207.10695 17.16597 207.65837 C 13.219203 215.7154 14.884029 225.44446 21.30789 231.86832 C 25.31075 235.87118 30.633673 238.0764 36.295133 238.07593 L 67.62661 238.07304 L 172.24772 238.07497 C 172.55412 238.07448 172.83175 238.19963 173.03266 238.40054" fill="white"/>
                    </g>
                  </g>
                </g>
              </g>
            </g>
            <g id="Group_36">
              <title>Group_79</title>
              <g id="Group_37">
                <title>Group_80</title>
                <g id="Group_38">
                  <title>Group_81</title>
                  <g id="Group_39">
                    <title>Graphic_82</title>
                    <g id="Graphic_40">
                      <path d="M 227.50672 211.8027 C 231.13414 215.4301 233.39738 220.42745 233.42998 225.93595 C 233.4319 226.23516 233.3125 226.52237 233.09913 226.73288 C 232.88623 226.94386 232.5971 227.0594 232.2974 227.05318 L 166.15615 225.77675 C 165.54287 225.7638 165.05427 225.25697 165.06625 224.6437 C 165.07824 224.0304 165.58555 223.54228 166.19883 223.55427 L 231.16483 224.80912 C 230.51894 215.5006 222.71412 208.1091 213.26174 208.10863 L 149.05143 206.8317 C 148.43863 206.81925 147.95098 206.31146 147.96249 205.69866 C 147.97448 205.0844 148.48227 204.59772 149.09555 204.6097 L 213.2838 205.88662 C 218.8182 205.88662 223.85485 208.15082 227.50672 211.8027" fill="white"/>
                    </g>
                  </g>
                </g>
              </g>
            </g>
            <g id="Group_31">
              <title>Group_75</title>
              <g id="Group_32">
                <title>Group_76</title>
                <g id="Group_33">
                  <title>Group_77</title>
                  <g id="Group_34">
                    <title>Graphic_78</title>
                    <g id="Graphic_35">
                      <path d="M 210.36076 228.80096 C 213.20947 231.64967 214.98746 235.57486 215.01287 239.9014 C 215.01432 240.2001 214.89588 240.48733 214.68298 240.6983 C 214.47008 240.90833 214.1814 241.02437 213.8827 241.0191 L 172.22758 240.29696 C 171.61382 240.28642 171.12473 239.78102 171.13528 239.1663 C 171.14583 238.55254 171.65266 238.06393 172.26546 238.0745 L 212.7362 238.77647 C 212.11478 231.8429 206.25337 226.37757 199.17307 226.37853 L 166.15712 225.7758 C 165.54383 225.76477 165.05523 225.25793 165.06577 224.64513 C 165.07728 224.03137 165.58363 223.54325 166.1974 223.55475 L 199.1937 224.15604 C 203.53797 224.15604 207.49335 225.93355 210.36076 228.80096" fill="white"/>
                    </g>
                  </g>
                </g>
              </g>
            </g>
            <g id="Group_26">
              <title>Group_71</title>
              <g id="Group_27">
                <title>Group_72</title>
                <g id="Group_28">
                  <title>Group_73</title>
                  <g id="Group_29">
                    <title>Graphic_74</title>
                    <g id="Graphic_30">
                      <path d="M 157.26383 211.28675 C 164.75218 218.7751 170.39254 228.19583 173.31892 238.893 C 173.481 239.4847 173.1324 240.09606 172.5407 240.25813 C 171.94852 240.41972 171.33763 240.07064 171.17508 239.47942 C 164.02526 213.34716 140.07185 195.09595 112.92496 195.09547 C 88.56206 195.09595 68.740485 214.87437 68.74001 239.18548 C 68.740485 239.79973 68.24277 240.29744 67.629005 240.2965 C 67.016205 240.29744 66.518006 239.79925 66.51849 239.18597 C 66.518006 213.64925 87.33597 192.87347 112.92448 192.873 C 129.95967 192.87348 145.78364 199.80656 157.26383 211.28675" fill="white"/>
                    </g>
                  </g>
                </g>
              </g>
            </g>
            <g id="Group_21">
              <title>Group_67</title>
              <g id="Group_22">
                <title>Group_68</title>
                <g id="Group_23">
                  <title>Group_69</title>
                  <g id="Group_24">
                    <title>Graphic_70</title>
                    <g id="Graphic_25">
                      <path d="M 29.96813 226.05822 C 30.70944 226.79953 31.91682 226.79953 32.658608 226.05774 C 33.400394 225.31596 33.39991 224.10906 32.6586 223.36775 C 31.916336 222.62548 30.709916 222.62548 29.96813 223.36726 C 29.226344 224.10905 29.225866 225.31595 29.96813 226.05822 M 34.230403 221.79594 C 35.838647 223.4042 35.83817 226.02082 34.229926 227.62906 C 32.621204 229.23778 30.005052 229.23778 28.39681 227.62954 C 26.788565 226.0213 26.78809 223.40467 28.39681 221.79595 C 30.005055 220.1877 32.62216 220.1877 34.230403 221.79594" fill="white"/>
                    </g>
                  </g>
                </g>
              </g>
            </g>
            <g id="Group_16">
              <title>Group_39</title>
              <g id="Group_17">
                <title>Group_40</title>
                <g id="Group_18">
                  <title>Group_41</title>
                  <g id="Group_19">
                    <title>Graphic_42</title>
                    <g id="Graphic_20">
                      <path d="M 23.072924 209.39752 C 23.33713 209.02686 23.77443 208.24624 23.934586 207.96045 C 24.02953 207.7907 24.105288 207.6574 24.148924 207.58405 C 25.059967 206.0813 24.989964 205.32273 23.809916 203.89334 C 23.104566 203.0384 21.837735 202.65192 20.603024 202.3292 C 19.209114 201.96623 17.792197 201.6397 16.375749 201.3539 C 16.413154 206.3762 17.13144 208.57517 21.49249 209.34285 C 21.717855 209.37834 22.611645 209.41766 23.072924 209.39752 M 25.211974 202.1355 C 25.320338 202.24386 25.423434 202.3575 25.523172 202.47834 C 27.293003 204.62027 27.445003 206.43325 26.049662 208.73677 C 26.012737 208.7967 25.952322 208.907 25.873685 209.04605 C 24.935304 210.7219 24.567043 211.21482 24.081784 211.44306 C 23.338085 211.79262 21.12663 211.53465 21.106494 211.53177 C 14.051616 210.2894 14.104833 205.05756 14.155664 199.99692 C 14.159023 199.66943 14.307189 199.3592 14.560365 199.15108 C 14.813064 198.9425 15.145354 198.85667 15.467576 198.91517 C 17.37215 199.2652 19.288714 199.69053 21.163554 200.1796 C 22.54739 200.5402 24.093777 201.0173 25.211974 202.1355" fill="white"/>
                    </g>
                  </g>
                </g>
              </g>
            </g>
            <g id="Group_11">
              <title>Group_35</title>
              <g id="Group_12">
                <title>Group_36</title>
                <g id="Group_13">
                  <title>Group_37</title>
                  <g id="Group_14">
                    <title>Graphic_38</title>
                    <g id="Graphic_15">
                      <path d="M 16.21032 199.24075 C 16.26498 199.2954 16.314374 199.3563 16.358488 199.4244 C 18.368064 202.53395 19.938428 204.40352 22.3671 206.5723 C 22.819273 206.97173 22.864825 207.68378 22.455325 208.1422 C 22.04679 208.59963 21.344326 208.63847 20.886404 208.2304 C 18.328753 205.94512 16.59488 203.88423 14.49179 200.63034 C 14.158537 200.11488 14.30623 199.42728 14.822171 199.09355 C 15.269544 198.8044 15.847816 198.87825 16.21032 199.24075" fill="white"/>
                    </g>
                  </g>
                </g>
              </g>
            </g>
            <g id="Group_6">
              <title>Group_31</title>
              <g id="Group_7">
                <title>Group_32</title>
                <g id="Group_8">
                  <title>Group_33</title>
                  <g id="Group_9">
                    <title>Graphic_34</title>
                    <g id="Graphic_10">
                      <path d="M 161.38018 220.57433 C 166.41301 225.60717 170.66378 231.45467 173.91862 237.94422 C 174.19434 238.49324 173.9728 239.1607 173.42426 239.43594 C 172.8757 239.71118 172.2068 239.49012 171.93253 238.94062 C 163.62856 222.38445 148.61254 210.13898 130.73439 205.34158 L 130.53875 205.28884 C 116.00176 201.38906 100.29861 204.68563 88.53504 214.10732 C 86.78487 215.50938 85.66668 217.3756 85.38665 219.36264 C 85.14786 221.06102 85.51372 222.49713 86.50485 223.75294 C 89.37705 227.39714 96.33603 228.09002 96.40652 228.09625 C 97.01596 228.1533 97.46525 228.69563 97.40723 229.30698 C 97.35017 229.91835 96.80786 230.36668 96.19649 230.30866 C 95.87235 230.27797 88.21713 229.50646 84.76043 225.13006 C 83.39194 223.3962 82.86256 221.3516 83.18622 219.0524 C 83.54489 216.50242 84.95126 214.13034 87.14545 212.3725 C 99.4595 202.51062 115.89674 199.06014 131.11512 203.1426 L 131.31026 203.19487 C 142.79237 206.27613 153.13518 212.32934 161.38018 220.57433" fill="white"/>
                    </g>
                  </g>
                </g>
              </g>
            </g>
          </g>
        </g>
      </g>
      <g id="Group_120">
        <title>Group_128</title>
        <g id="Group_135">
          <title>Graphic_136</title>
          <g id="Graphic_136">
            <path d="M 378.80155 123.14081 L 378.80155 51.67003 L 355.12897 51.67003 L 355.12897 43.854685 L 411.98845 43.854685 L 411.98845 51.67003 L 388.3159 51.67003 L 388.3159 123.14081 Z" fill="white"/>
          </g>
        </g>
        <g id="Group_133">
          <title>Graphic_135</title>
          <g id="Graphic_134">
            <path d="M 423.0885 123.14081 L 423.0885 41.589367 L 432.60284 41.589367 L 432.60284 76.58853 C 434.4906 73.11502 437.1712 70.41555 440.6447 68.49002 C 444.11823 66.56449 447.8937 65.60174 451.9713 65.60174 C 458.46526 65.60174 463.67543 67.62162 467.602 71.66146 C 471.5286 75.7013 473.49183 81.91198 473.49183 90.2937 L 473.49183 123.14081 L 464.09076 123.14081 L 464.09076 91.31309 C 464.09076 79.60889 459.3714 73.75688 449.9325 73.75688 C 445.0243 73.75688 440.909 75.51248 437.58654 79.02374 C 434.26406 82.535 432.60284 87.53753 432.60284 94.03148 L 432.60284 123.14081 Z" fill="white"/>
          </g>
        </g>
        <g id="Group_131">
          <title>Graphic_134</title>
          <g id="Graphic_132">
            <path d="M 513.1349 124.5 C 507.7736 124.5 503.0165 123.27297 498.8634 120.81886 C 494.7103 118.36475 491.4445 114.94793 489.0659 110.5683 C 486.6873 106.18866 485.498 101.01623 485.498 95.05087 C 485.498 89.16101 486.6684 84.00747 489.00926 79.59007 C 491.3501 75.17268 494.6159 71.73698 498.80676 69.28288 C 502.9976 66.82877 507.8491 65.60174 513.3614 65.60174 C 518.7982 65.60174 523.4987 66.82877 527.463 69.28288 C 531.42735 71.73698 534.4666 74.96503 536.5809 78.96711 C 538.69524 82.96919 539.7524 87.27325 539.7524 91.87942 C 539.7524 92.71004 539.7335 93.54065 539.69575 94.37127 C 539.658 95.20189 539.6391 96.14577 539.6391 97.20292 L 494.8991 97.20292 C 495.1256 101.50705 496.1261 105.07489 497.90063 107.90655 C 499.67514 110.73821 501.9027 112.87136 504.5833 114.30607 C 507.26396 115.74078 510.11445 116.45812 513.1349 116.45812 C 517.06146 116.45812 520.34614 115.552 522.989 113.73974 C 525.6319 111.92748 527.5574 109.47341 528.7656 106.37746 L 538.16666 106.37746 C 536.65644 111.58771 533.7682 115.91065 529.5018 119.3464 C 525.23544 122.78215 519.77986 124.5 513.1349 124.5 Z M 513.1349 73.64361 C 508.60424 73.64361 504.58334 75.02167 501.0721 77.77782 C 497.5608 80.53397 495.5409 84.55487 495.01235 89.84064 L 530.3513 89.84064 C 530.1248 84.7814 528.38805 80.81714 525.1411 77.94772 C 521.8941 75.0783 517.8921 73.64361 513.1349 73.64361 Z" fill="white"/>
          </g>
        </g>
        <g id="Group_129">
          <title>Graphic_133</title>
          <g id="Graphic_130">
            <path d="M 582.9067 123.14081 L 582.9067 43.854685 L 631.15795 43.854685 L 631.15795 51.67003 L 592.421 51.67003 L 592.421 79.53344 L 625.3814 79.53344 L 625.3814 87.23552 L 592.421 87.23552 L 592.421 123.14081 Z" fill="white"/>
          </g>
        </g>
        <g id="Group_127">
          <title>Graphic_132</title>
          <g id="Graphic_128">
            <path d="M 648.6009 54.50168 C 646.7131 54.50168 645.1463 53.87872 643.9004 52.63279 C 642.6544 51.38686 642.0315 49.82003 642.0315 47.932257 C 642.0315 46.119994 642.6544 44.609797 643.9004 43.40162 C 645.1463 42.193446 646.7131 41.589367 648.6009 41.589367 C 650.4132 41.589367 651.9611 42.193446 653.2448 43.40162 C 654.5285 44.609797 655.1703 46.119994 655.1703 47.932257 C 655.1703 49.82003 654.5285 51.38686 653.2448 52.63279 C 651.9611 53.87872 650.4132 54.50168 648.6009 54.50168 Z M 643.8437 123.14081 L 643.8437 66.96093 L 653.3581 66.96093 L 653.3581 123.14081 Z" fill="white"/>
          </g>
        </g>
        <g id="Group_125">
          <title>Graphic_131</title>
          <g id="Graphic_126">
            <path d="M 669.8949 123.14081 L 669.8949 66.96093 L 678.5031 66.96093 L 679.0694 77.04159 C 680.8817 73.49258 683.4868 70.69871 686.8848 68.659915 C 690.2828 66.62112 694.1338 65.60174 698.4379 65.60174 C 705.0829 65.60174 710.3874 67.62162 714.35175 71.66146 C 718.3161 75.7013 720.2982 81.91198 720.2982 90.2937 L 720.2982 123.14081 L 710.7839 123.14081 L 710.7839 91.31309 C 710.7839 79.60889 705.95125 73.75688 696.2858 73.75688 C 691.4531 73.75688 687.4322 75.51248 684.223 79.02374 C 681.0138 82.535 679.4092 87.53753 679.4092 94.03148 L 679.4092 123.14081 Z" fill="white"/>
          </g>
        </g>
        <g id="Group_123">
          <title>Graphic_130</title>
          <g id="Graphic_124">
            <path d="M 760.5076 124.5 C 755.1463 124.5 750.3326 123.27297 746.0662 120.81886 C 741.7998 118.36475 738.4396 114.92905 735.9855 110.51166 C 733.5314 106.09427 732.3044 100.94072 732.3044 95.05087 C 732.3044 89.16101 733.5314 84.00747 735.9855 79.59007 C 738.4396 75.17268 741.7998 71.73698 746.0662 69.28288 C 750.3326 66.82877 755.1463 65.60174 760.5076 65.60174 C 767.1526 65.60174 772.7592 67.33846 777.3276 70.81197 C 781.896 74.28547 784.78425 78.92933 785.9924 84.74367 L 776.2516 84.74367 C 775.49645 81.27017 773.6465 78.57069 770.7015 76.64516 C 767.7566 74.71963 764.3209 73.75688 760.3943 73.75688 C 757.2229 73.75688 754.2402 74.54973 751.4463 76.13546 C 748.6524 77.72119 746.3871 80.09975 744.6504 83.27122 C 742.9136 86.44268 742.0453 90.36919 742.0453 95.05087 C 742.0453 99.73255 742.9136 103.65906 744.6504 106.83052 C 746.3871 110.00198 748.6524 112.39942 751.4463 114.0229 C 754.2402 115.64639 757.2229 116.45812 760.3943 116.45812 C 764.3209 116.45812 767.7566 115.49537 770.7015 113.56984 C 773.6465 111.64431 775.49645 108.90708 776.2516 105.35806 L 785.9924 105.35806 C 784.8598 111.02139 781.9904 115.62749 777.3842 119.1765 C 772.77805 122.72552 767.1526 124.5 760.5076 124.5 Z" fill="white"/>
          </g>
        </g>
        <g id="Group_121">
          <title>Graphic_129</title>
          <g id="Graphic_122">
            <path d="M 799.2445 123.14081 L 799.2445 41.589367 L 808.7589 41.589367 L 808.7589 76.58853 C 810.6466 73.11502 813.3272 70.41555 816.80075 68.49002 C 820.2743 66.56449 824.0497 65.60174 828.1273 65.60174 C 834.6213 65.60174 839.8315 67.62162 843.758 71.66146 C 847.6846 75.7013 849.6479 81.91198 849.6479 90.2937 L 849.6479 123.14081 L 840.2468 123.14081 L 840.2468 91.31309 C 840.2468 79.60889 835.5274 73.75688 826.0886 73.75688 C 821.1803 73.75688 817.0651 75.51248 813.7426 79.02374 C 810.4201 82.535 808.7589 87.53753 808.7589 94.03148 L 808.7589 123.14081 Z" fill="white"/>
          </g>
        </g>
      </g>
    </g>
  </g>
</svg>
