<?xml version="1.0" encoding="UTF-8" standalone="no"?>
<!DOCTYPE svg PUBLIC "-//W3C//DTD SVG 1.1//EN" "http://www.w3.org/Graphics/SVG/1.1/DTD/svg11.dtd">
<svg xmlns:dc="http://purl.org/dc/elements/1.1/" xmlns="http://www.w3.org/2000/svg" xmlns:xl="http://www.w3.org/1999/xlink" version="1.1" viewBox="0 0 850 240" width="850" height="240">
  <defs/>
  <metadata> Produced by OmniGraffle 7.16 
    <dc:date>2020-07-14 20:48:39 +0000</dc:date>
  </metadata>
  <g id="Canvas_1" stroke="none" fill="none" stroke-dasharray="none" stroke-opacity="1" fill-opacity="1">
    <title>Canvas 1</title>
    <g id="Canvas_1: Layer 1">
      <title>Layer 1</title>
      <g id="Group_30">
        <title>wordmark-large--shape</title>
        <g id="Group_91">
          <title>Group_67</title>
          <g id="Group_92">
            <title>Group_68</title>
            <g id="Group_93">
              <title>Graphic_69</title>
              <g id="Graphic_94">
                <path d="M 143.5156 159.25388 L 143.5156 162.96452 C 143.5156 169.16385 148.5601 174.20903 154.76011 174.20903 L 158.47144 174.20903 L 158.47144 170.49838 C 158.47144 164.2977 153.42626 159.25388 147.22625 159.25388 L 143.5156 159.25388 M 159.58219 176.4312 L 154.76011 176.4312 C 147.33475 176.4312 141.29342 170.3899 141.29342 162.96452 L 141.29342 158.14245 C 141.29342 157.52875 141.79116 157.0317 142.40417 157.0317 L 147.22625 157.0317 C 154.6523 157.0317 160.69362 163.07302 160.69362 170.49838 L 160.69362 175.31978 C 160.69362 175.93348 160.19588 176.4312 159.58219 176.4312" fill="white"/>
              </g>
            </g>
          </g>
        </g>
        <g id="Group_87">
          <title>Group_64</title>
          <g id="Group_88">
            <title>Group_65</title>
            <g id="Group_89">
              <title>Graphic_66</title>
              <g id="Graphic_90">
                <path d="M 111.39329 146.49989 L 94.99986 146.49989 C 94.38684 146.49989 93.8891 146.00215 93.8891 145.38846 C 93.8891 144.77476 94.38684 144.27703 94.99986 144.27703 L 111.39329 144.27703 C 142.23058 144.27703 167.3188 119.1888 167.3188 88.35151 L 167.3188 64.94637 C 167.3188 64.33267 167.81586 63.835614 168.42956 63.835614 C 169.04393 63.835614 169.541 64.33267 169.541 64.94637 L 169.541 88.35151 C 169.541 120.41415 143.45593 146.49989 111.39329 146.49989" fill="white"/>
              </g>
            </g>
          </g>
        </g>
        <g id="Group_83">
          <title>Group_61</title>
          <g id="Group_84">
            <title>Group_62</title>
            <g id="Group_85">
              <title>Graphic_63</title>
              <g id="Graphic_86">
                <path d="M 34.223105 146.47887 C 33.938296 146.47887 33.654166 146.37105 33.43717 146.15405 C 33.003175 145.71938 33.003175 145.01617 33.43717 144.58218 L 107.41682 70.60592 L 129.56881 48.44918 C 133.99216 44.025835 139.87277 41.589367 146.1277 41.589367 C 156.16245 41.589367 165.0634 47.89584 168.27766 57.28231 C 168.47635 57.862775 168.16713 58.49478 167.58666 58.69347 C 167.00552 58.89283 166.37419 58.58361 166.1755 58.00247 C 163.2691 49.5145 155.21241 43.81223 146.1277 43.81223 C 140.4668 43.81223 135.1436 46.01678 131.14068 50.020373 L 108.98802 72.17711 L 35.00836 146.15405 C 34.792043 146.37105 34.507235 146.47887 34.223105 146.47887" fill="white"/>
              </g>
            </g>
          </g>
        </g>
        <g id="Group_79">
          <title>Group_58</title>
          <g id="Group_80">
            <title>Group_59</title>
            <g id="Group_81">
              <title>Graphic_60</title>
              <g id="Graphic_82">
                <path d="M 14.511653 203.80537 C 9.381711 203.80537 4.247701 201.87206 .32955176 198.00002 C .1166236 197.7898 -.0020465594 197.5023 -1221383e-11 197.20256 C .0013440165 196.90283 .12408286 196.61667 .3404016 196.40917 L 48.0119 150.54281 C 48.45471 150.11831 49.15859 150.1312 49.58377 150.57333 C 50.00895 151.01546 49.995385 151.71934 49.553254 152.14452 L 2.728045 197.1951 C 9.766881 203.32052 20.512294 203.02825 27.196475 196.34474 L 73.50293 151.84411 C 73.94506 151.41961 74.64894 151.43385 75.07412 151.8753 C 75.499975 152.31812 75.48506 153.02132 75.04293 153.4465 L 28.75207 197.93153 C 24.83867 201.84494 19.676178 203.80537 14.511653 203.80537" fill="white"/>
              </g>
            </g>
          </g>
        </g>
        <g id="Group_75">
          <title>Group_55</title>
          <g id="Group_76">
            <title>Group_56</title>
            <g id="Group_77">
              <title>Graphic_57</title>
              <g id="Graphic_78">
                <path d="M 14.616082 179.66175 C 10.5874 179.66175 6.554649 178.14345 3.4773624 175.1021 C 3.2651124 174.8919 3.145764 174.60505 3.1471203 174.30532 C 3.1491547 174.00627 3.2712154 173.7201 3.486178 173.5126 L 33.45141 144.56862 C 33.89286 144.14208 34.59607 144.15361 35.02328 144.59574 C 35.449815 145.0372 35.43693 145.74108 34.996156 146.16693 L 5.882637 174.2877 C 11.224828 178.75105 19.234047 178.47098 24.239893 173.46378 L 48.0119 150.54417 C 48.45335 150.11831 49.157235 150.1312 49.58309 150.57197 C 50.00895 151.0141 49.996064 151.7173 49.55393 152.14316 L 25.796845 175.0499 C 22.724984 178.12176 18.67121 179.66175 14.616082 179.66175" fill="white"/>
              </g>
            </g>
          </g>
        </g>
        <g id="Group_71">
          <title>Group_52</title>
          <g id="Group_72">
            <title>Group_53</title>
            <g id="Group_73">
              <title>Graphic_54</title>
              <g id="Graphic_74">
                <path d="M 64.5457 154.50097 C 53.95558 154.50097 43.30578 151.82784 33.672475 146.33307 C 33.139476 146.02928 32.953673 145.35048 33.25747 144.81748 C 33.56194 144.28449 34.240735 144.09936 34.773734 144.40248 C 58.30772 157.82509 88.15089 153.79302 107.34698 134.59761 C 124.57381 117.3701 124.60433 89.36868 107.41411 72.17779 C 106.97944 71.74379 106.97944 71.03991 107.41411 70.60659 C 107.84675 70.1726 108.55131 70.1726 108.98462 70.60659 C 127.04215 88.66344 127.01232 118.07466 108.91885 136.1688 C 96.87281 148.21416 80.78114 154.50097 64.5457 154.50097" fill="white"/>
              </g>
            </g>
          </g>
        </g>
        <g id="Group_67">
          <title>Group_49</title>
          <g id="Group_68">
            <title>Group_50</title>
            <g id="Group_69">
              <title>Graphic_51</title>
              <g id="Graphic_70">
                <path d="M 144.11235 54.04431 C 143.06398 54.04431 142.21023 54.898056 142.21023 55.9471 C 142.21023 56.996144 143.06398 57.84921 144.11235 57.84921 C 145.16207 57.84921 146.01514 56.996144 146.01514 55.9471 C 146.01514 54.898056 145.16207 54.04431 144.11235 54.04431 M 144.11235 60.072075 C 141.83795 60.072075 139.98805 58.2215 139.98805 55.9471 C 139.98805 53.672024 141.83795 51.822126 144.11235 51.822126 C 146.38675 51.822126 148.23732 53.672024 148.23732 55.9471 C 148.23732 58.2215 146.38675 60.072075 144.11235 60.072075" fill="white"/>
              </g>
            </g>
          </g>
        </g>
        <g id="Group_63">
          <title>Group_46</title>
          <g id="Group_64">
            <title>Group_47</title>
            <g id="Group_65">
              <title>Graphic_48</title>
              <g id="Graphic_66">
                <rect x="93.88571" y="144.27838" width="756.1143" height="2.2228615" fill="white"/>
              </g>
            </g>
          </g>
        </g>
        <g id="Group_59">
          <title>Group_43</title>
          <g id="Group_60">
            <title>Group_44</title>
            <g id="Group_61">
              <title>Graphic_45</title>
              <g id="Graphic_62">
                <path d="M 142.4035 159.25388 C 142.14853 159.25388 141.89288 159.1664 141.68334 158.98806 L 126.72886 146.23542 C 126.26164 145.83737 126.20604 145.13552 126.60409 144.66898 C 127.00214 144.20176 127.70332 144.14615 128.17122 144.5442 L 143.12501 157.29684 C 143.59223 157.69557 143.64784 158.39606 143.24978 158.86396 C 143.03008 159.12165 142.71814 159.25388 142.4035 159.25388" fill="white"/>
              </g>
            </g>
          </g>
        </g>
        <g id="Group_55">
          <title>Group_40</title>
          <g id="Group_56">
            <title>Group_41</title>
            <g id="Group_57">
              <title>Graphic_42</title>
              <g id="Graphic_58">
                <path d="M 183.17856 154.49622 C 182.3438 157.38092 182.6815 160.41888 184.12996 163.04929 C 185.57977 165.68038 187.96673 167.58927 190.85144 168.4247 L 194.4156 169.4568 L 195.44838 165.89263 C 197.17283 159.93674 193.7307 153.68927 187.77483 151.96414 L 184.21065 150.93205 L 183.17856 154.49622 M 195.17374 171.9448 C 195.07202 171.9448 194.96827 171.93056 194.86452 171.90073 L 190.233 170.55874 C 186.77868 169.5592 183.91974 167.27327 182.18377 164.12207 C 180.44847 160.97154 180.04364 157.33346 181.04453 153.87778 L 182.38517 149.24558 C 182.46722 148.96348 182.65845 148.7241 182.9168 148.5817 C 183.17382 148.4393 183.47897 148.40607 183.76174 148.48812 L 188.3926 149.82943 C 195.52568 151.89497 199.64795 159.37797 197.5824 166.51107 L 196.2411 171.1426 C 196.10073 171.6288 195.65588 171.9448 195.17374 171.9448" fill="white"/>
              </g>
            </g>
          </g>
        </g>
        <g id="Group_51">
          <title>Group_37</title>
          <g id="Group_52">
            <title>Group_38</title>
            <g id="Group_53">
              <title>Graphic_39</title>
              <g id="Graphic_54">
                <path d="M 183.4566 150.66487 C 183.0592 150.66487 182.67608 150.45194 182.47536 150.07762 L 180.24843 145.914 C 179.95887 145.37286 180.16298 144.6995 180.70412 144.40994 C 181.2466 144.12038 181.91862 144.32517 182.20818 144.86563 L 184.4351 149.02926 C 184.72466 149.5704 184.52055 150.24376 183.97942 150.53332 C 183.8126 150.62283 183.6329 150.66487 183.4566 150.66487" fill="white"/>
              </g>
            </g>
          </g>
        </g>
        <g id="Group_47">
          <title>Group_34</title>
          <g id="Group_48">
            <title>Group_35</title>
            <g id="Group_49">
              <title>Graphic_36</title>
              <g id="Graphic_50">
                <path d="M 199.56182 124.96973 L 195.8566 125.17723 C 192.85798 125.34473 190.10415 126.67044 188.10236 128.90958 C 186.10056 131.14872 185.09085 134.03342 185.25834 137.03204 L 185.46584 140.73659 L 189.1704 140.52908 C 192.1697 140.36159 194.92352 139.03655 196.92463 136.79674 C 198.92643 134.55828 199.93682 131.67358 199.76933 128.67427 L 199.56182 124.96973 M 184.41816 143.0198 C 184.14623 143.0198 183.88245 142.92012 183.67765 142.73703 C 183.45795 142.54105 183.3257 142.26506 183.30876 141.97076 L 183.03955 137.15682 C 182.83815 133.56484 184.0479 130.11052 186.44504 127.4279 C 188.84286 124.74663 192.1419 123.15916 195.7332 122.95776 L 200.54713 122.68855 C 200.84346 122.67228 201.1303 122.77332 201.35 122.96929 C 201.56972 123.16595 201.70196 123.44126 201.7189 123.73556 L 201.98812 128.55018 C 202.18884 132.14216 200.9791 135.59647 198.58263 138.27842 C 196.1848 140.96037 192.88646 142.54783 189.29448 142.74856 L 184.48054 143.01844 C 184.45952 143.01912 184.43918 143.0198 184.41816 143.0198" fill="white"/>
              </g>
            </g>
          </g>
        </g>
        <g id="Group_43">
          <title>Group_31</title>
          <g id="Group_44">
            <title>Group_32</title>
            <g id="Group_45">
              <title>Graphic_33</title>
              <g id="Graphic_46">
                <path d="M 181.2256 146.50124 C 180.95706 146.50124 180.68852 146.40427 180.4756 146.20898 C 180.0226 145.79465 179.9921 145.09144 180.40643 144.63914 L 183.59628 141.15838 C 184.0106 140.7054 184.7145 140.67488 185.1668 141.08989 C 185.6191 141.50421 185.6496 142.20674 185.2353 142.65904 L 182.04475 146.14049 C 181.82572 146.37986 181.526 146.50124 181.2256 146.50124" fill="white"/>
              </g>
            </g>
          </g>
        </g>
        <g id="Group_39">
          <title>Group_28</title>
          <g id="Group_40">
            <title>Group_29</title>
            <g id="Group_41">
              <title>Graphic_30</title>
              <g id="Graphic_42">
                <path d="M 160.76889 60.949556 C 160.84416 61.39847 161.08693 62.259674 161.17576 62.575 C 161.22865 62.76216 161.26934 62.90999 161.29036 62.99272 C 161.70876 64.69953 162.29465 65.18642 164.1398 65.36273 C 165.2431 65.468515 166.41216 64.846006 167.51342 64.20112 C 168.75573 63.472144 169.98854 62.70113 171.1922 61.90163 C 167.61446 58.37679 165.55164 57.32978 161.92508 59.870675 C 161.74063 60.00494 161.08082 60.60914 160.76889 60.949556 M 164.39138 67.59712 C 164.23813 67.59712 164.08487 67.58966 163.9289 67.57474 C 161.16287 67.31163 159.77342 66.13714 159.13124 63.52165 C 159.11497 63.45316 159.0797 63.33245 159.03698 63.17852 C 158.51551 61.32998 158.42736 60.72103 158.6091 60.21651 C 158.8878 59.44346 160.63395 58.06214 160.65022 58.049935 C 166.51727 53.93988 170.1791 57.67697 173.72157 61.291326 C 173.95077 61.525276 174.06537 61.849415 174.0335 62.17559 C 174.0023 62.50176 173.82803 62.79742 173.55882 62.9839 C 171.96457 64.083126 170.3086 65.137595 168.63706 66.11747 C 167.40357 66.84102 165.97275 67.59712 164.39138 67.59712" fill="white"/>
              </g>
            </g>
          </g>
        </g>
        <g id="Group_35">
          <title>Group_25</title>
          <g id="Group_36">
            <title>Group_26</title>
            <g id="Group_37">
              <title>Graphic_27</title>
              <g id="Graphic_38">
                <path d="M 172.8034 63.27888 C 172.7261 63.27888 172.6481 63.270744 172.56877 63.25379 C 168.949 62.47599 166.5166 62.26442 163.26571 62.44819 C 162.66354 62.48549 162.12783 62.0142 162.09325 61.4005 C 162.05867 60.788164 162.52792 60.26398 163.14026 60.22872 C 166.56474 60.036135 169.24804 60.26737 173.036 61.08111 C 173.63613 61.20995 174.0179 61.80059 173.88906 62.4014 C 173.77717 62.92219 173.31606 63.27888 172.8034 63.27888" fill="white"/>
              </g>
            </g>
          </g>
        </g>
        <g id="Group_31">
          <title>Group_22</title>
          <g id="Group_32">
            <title>Group_23</title>
            <g id="Group_33">
              <title>Graphic_24</title>
              <g id="Graphic_34">
                <path d="M 55.06769 149.84435 C 47.95019 149.84435 40.809637 148.71529 33.91931 146.428 C 33.33613 146.23475 33.020806 145.60613 33.21407 145.02363 C 33.40733 144.44113 34.036623 144.12445 34.619124 144.31907 C 52.1979 150.15425 71.47468 148.19518 87.50872 138.94569 L 87.68435 138.84465 C 100.72111 131.323 109.49389 117.88817 111.14985 102.90793 C 111.396 100.67897 110.86707 98.56867 109.66003 96.96561 C 108.62794 95.59582 107.35376 94.83904 105.76493 94.65188 C 101.15714 94.106 95.74646 98.5368 95.69221 98.58224 C 95.22092 98.97283 94.51975 98.90705 94.12848 98.43373 C 93.73653 97.96108 93.80298 97.26059 94.27631 96.86932 C 94.52721 96.66181 100.48581 91.7943 106.02465 92.44462 C 108.21835 92.70298 110.03842 93.7744 111.43533 95.62904 C 112.98483 97.68577 113.66769 100.35754 113.35915 103.15205 C 111.6252 118.83279 102.44217 132.89554 88.79442 140.76982 L 88.61947 140.87085 C 78.32161 146.81114 66.72788 149.84435 55.06769 149.84435" fill="white"/>
              </g>
            </g>
          </g>
        </g>
      </g>
      <g id="Group_5">
        <title>wordmark-large--text</title>
        <g id="Group_27">
          <title>Group_19</title>
          <g id="Group_28">
            <title>Graphic_20</title>
            <g id="Graphic_29">
              <path d="M 258.0951 131.74321 L 258.0951 130.50232 L 263.30685 130.50232 C 265.12686 130.50232 266.63658 130.04733 267.8361 129.13735 C 269.03563 128.22735 269.6354 125.99377 269.6354 122.43653 L 269.6354 44.38451 L 261.69368 44.38451 C 254.99286 44.38451 250.11206 45.70811 247.0512 48.355365 C 243.9903 51.002605 242.25308 55.469766 241.83945 61.756975 L 241.46718 67.2169 L 240.2263 67.2169 L 241.0949 43.14362 L 317.90603 43.14362 L 318.77467 67.2169 L 317.53376 67.2169 L 317.1615 61.756975 C 316.7479 55.469766 315.01063 51.002605 311.94977 48.355365 C 308.8889 45.70811 304.0081 44.38451 297.30727 44.38451 L 289.36556 44.38451 L 289.36556 122.43653 C 289.36556 125.99377 289.9653 128.22735 291.16485 129.13735 C 292.36437 130.04733 293.87413 130.50232 295.6941 130.50232 L 300.90584 130.50232 L 300.90584 131.74321 Z" fill="white"/>
            </g>
          </g>
        </g>
        <g id="Group_24">
          <title>Group_17</title>
          <g id="Group_25">
            <title>Graphic_18</title>
            <g id="Graphic_26">
              <path d="M 322.12507 131.74321 L 322.12507 130.50232 L 323.61415 130.50232 C 324.85503 130.50232 326.15796 130.31619 327.523 129.94392 C 328.88793 129.57165 330.0461 128.82713 330.9974 127.71032 C 331.9488 126.59351 332.42447 124.83561 332.42447 122.43653 L 332.42447 46.245847 C 332.42447 44.012234 331.9281 42.35773 330.9354 41.28229 C 329.94267 40.206845 328.76385 39.503675 327.39885 39.172765 C 326.0339 38.84186 324.7723 38.676414 323.61415 38.676414 L 322.12507 38.676414 L 322.12507 37.435523 L 351.286 37.435523 L 351.286 62.37742 C 351.286 64.7765 351.286 67.15485 351.286 69.51255 C 351.286 71.87025 351.2447 74.2486 351.1619 76.647665 L 351.4101 76.647665 C 352.4028 72.92498 353.82983 70.13301 355.69117 68.27166 C 357.5525 66.41031 359.6827 65.16943 362.08175 64.548986 C 364.48083 63.92854 366.8799 63.61831 369.2789 63.61831 C 376.55884 63.61831 381.97736 65.521 385.5346 69.32641 C 389.0918 73.13183 390.8704 79.21214 390.8704 87.56751 L 390.8704 121.692 C 390.8704 125.58015 391.5529 128.02054 392.9179 129.01325 C 394.2829 130.00598 396.3717 130.50232 399.1844 130.50232 L 399.55665 130.50232 L 399.55665 131.74321 L 372.0089 131.74321 L 372.0089 83.47256 C 372.0089 78.09535 371.28505 74.06249 369.83735 71.37389 C 368.3896 68.68528 366.01126 67.34098 362.7022 67.34098 C 358.3177 67.34098 355.3189 69.53321 353.70574 73.91771 C 352.0926 78.30222 351.286 83.96889 351.286 90.91791 L 351.286 122.43653 C 351.286 124.83561 351.7617 126.59351 352.71303 127.71032 C 353.66437 128.82713 354.82255 129.57165 356.1875 129.94392 C 357.5525 130.31619 358.85546 130.50232 360.09633 130.50232 L 361.5854 130.50232 L 361.5854 131.74321 Z" fill="white"/>
            </g>
          </g>
        </g>
        <g id="Group_21">
          <title>Group_15</title>
          <g id="Group_22">
            <title>Graphic_16</title>
            <g id="Graphic_23">
              <path d="M 441.3747 132.9841 C 430.62026 132.9841 422.47183 130.006 416.92916 124.04969 C 411.38645 118.09339 408.61516 109.69678 408.61516 98.85962 C 408.61516 87.19519 411.28305 78.40562 416.6189 72.49068 C 421.95474 66.57574 429.54483 63.61831 439.3892 63.61831 C 448.40646 63.61831 455.50014 66.14143 460.67054 71.18775 C 465.84094 76.23407 468.4261 83.67934 468.4261 93.52379 L 468.4261 96.50192 L 427.72486 96.50192 C 427.72486 109.07635 429.0071 118.07271 431.57164 123.4913 C 434.13616 128.90987 438.35517 131.61913 444.22873 131.61913 C 448.53046 131.61913 452.23247 130.19212 455.3347 127.33805 C 458.4369 124.484 460.40166 119.66525 461.2289 112.88167 C 462.88347 113.21259 464.0623 113.91575 464.76546 114.99119 C 465.46867 116.06663 465.82025 117.30751 465.82025 118.71386 C 465.82025 121.11294 464.9102 123.38788 463.09023 125.53876 C 461.27026 127.68965 458.56106 129.46824 454.9624 130.87459 C 451.3638 132.28094 446.8346 132.9841 441.3747 132.9841 Z M 427.72486 95.26103 L 449.5645 95.26103 C 449.5645 87.81564 449.275 81.85943 448.69593 77.392205 C 448.1168 72.92498 447.08276 69.71937 445.5937 67.775295 C 444.1046 65.83123 442.0365 64.8592 439.3892 64.8592 C 435.33563 64.8592 432.3989 67.11347 430.5789 71.62206 C 428.7589 76.13065 427.8076 84.01023 427.72486 95.26103 Z" fill="white"/>
            </g>
          </g>
        </g>
        <g id="Group_18">
          <title>Group_13</title>
          <g id="Group_19">
            <title>Graphic_14</title>
            <g id="Graphic_20">
              <path d="M 505.0323 131.74321 L 505.0323 130.50232 L 510.2441 130.50232 C 511.9813 130.50232 513.4704 130.0887 514.71135 129.26144 C 515.9522 128.43417 516.57264 126.36604 516.57264 123.05699 L 516.57264 52.4503 C 516.57264 48.89307 515.97285 46.65949 514.77336 45.74949 C 513.57385 44.839503 512.0641 44.38451 510.2441 44.38451 L 505.0323 44.38451 L 505.0323 43.14362 L 573.6536 43.14362 L 574.3981 65.97601 L 573.1573 65.97601 L 572.785 61.756975 C 572.2059 55.469766 570.4066 51.002605 567.3871 48.355365 C 564.3676 45.70811 559.54885 44.38451 552.93075 44.38451 L 536.3028 44.38451 L 536.3028 84.83755 L 565.7119 84.83755 L 565.7119 86.07844 L 536.3028 86.07844 L 536.3028 122.43653 C 536.3028 125.99377 536.9026 128.22735 538.1021 129.13735 C 539.30164 130.04733 540.81135 130.50232 542.6313 130.50232 L 550.32486 130.50232 L 550.32486 131.74321 Z" fill="white"/>
            </g>
          </g>
        </g>
        <g id="Group_15">
          <title>Group_11</title>
          <g id="Group_16">
            <title>Graphic_12</title>
            <g id="Graphic_17">
              <path d="M 599.8364 54.063455 C 597.43736 54.063455 595.38994 53.33962 593.694 51.8919 C 591.9981 50.44419 591.15015 48.18992 591.15015 45.129044 C 591.15015 41.98544 591.9981 39.710494 593.694 38.304144 C 595.38994 36.897795 597.43736 36.194633 599.8364 36.194633 C 602.2355 36.194633 604.3036 36.897795 606.04086 38.304144 C 607.77816 39.710494 608.6467 41.98544 608.6467 45.129044 C 608.6467 48.18992 607.77816 50.44419 606.04086 51.8919 C 604.3036 53.33962 602.2355 54.063455 599.8364 54.063455 Z M 580.7267 131.74321 L 580.7267 130.50232 L 582.2158 130.50232 C 583.4567 130.50232 584.7596 130.31619 586.1246 129.94392 C 587.4895 129.57165 588.6477 128.82713 589.5991 127.71032 C 590.5504 126.59351 591.0261 124.83561 591.0261 122.43653 L 591.0261 74.0418 C 591.0261 71.80818 590.52974 70.15368 589.53706 69.07824 C 588.54426 68.00279 587.3655 67.29963 586.00044 66.96873 C 584.6355 66.63782 583.37394 66.47236 582.2158 66.47236 L 580.7267 66.47236 L 580.7267 65.23147 L 609.88764 65.23147 L 609.88764 122.43653 C 609.88764 124.83561 610.3633 126.59351 611.31465 127.71032 C 612.266 128.82713 613.42414 129.57165 614.78915 129.94392 C 616.15416 130.31619 617.45704 130.50232 618.698 130.50232 L 620.1871 130.50232 L 620.1871 131.74321 Z" fill="white"/>
            </g>
          </g>
        </g>
        <g id="Group_12">
          <title>Group_9</title>
          <g id="Group_13">
            <title>Graphic_10</title>
            <g id="Graphic_14">
              <path d="M 624.406 131.74321 L 624.406 130.50232 L 625.8951 130.50232 C 627.13606 130.50232 628.43894 130.31619 629.8039 129.94392 C 631.16896 129.57165 632.327 128.82713 633.27845 127.71032 C 634.22974 126.59351 634.70546 124.83561 634.70546 122.43653 L 634.70546 74.0418 C 634.70546 71.80818 634.20906 70.15368 633.2164 69.07824 C 632.2237 68.00279 631.0448 67.29963 629.6799 66.96873 C 628.3148 66.63782 627.0533 66.47236 625.8951 66.47236 L 624.406 66.47236 L 624.406 65.23147 L 653.56696 65.23147 L 653.56696 76.52358 L 653.81516 76.52358 C 654.8079 72.80089 656.2142 70.02959 658.0342 68.20962 C 659.8542 66.38963 661.96365 65.16943 664.3628 64.548986 C 666.7618 63.92854 669.1608 63.61831 671.5599 63.61831 C 678.8398 63.61831 684.2583 65.521 687.8155 69.32641 C 691.3728 73.13183 693.1514 79.21214 693.1514 87.56751 L 693.1514 121.692 C 693.1514 125.58015 693.8339 128.02054 695.19885 129.01325 C 696.5638 130.00598 698.6527 130.50232 701.4654 130.50232 L 701.8376 130.50232 L 701.8376 131.74321 L 674.2898 131.74321 L 674.2898 83.47256 C 674.2898 78.09535 673.566 74.06249 672.11825 71.37389 C 670.67055 68.68528 668.2922 67.34098 664.9832 67.34098 C 660.5987 67.34098 657.59986 69.53321 655.9867 73.91771 C 654.3736 78.30222 653.56696 83.96889 653.56696 90.91791 L 653.56696 122.43653 C 653.56696 124.83561 654.0427 126.59351 654.994 127.71032 C 655.9454 128.82713 657.1035 129.57165 658.4685 129.94392 C 659.8335 130.31619 661.13636 130.50232 662.3773 130.50232 L 663.8664 130.50232 L 663.8664 131.74321 Z" fill="white"/>
            </g>
          </g>
        </g>
        <g id="Group_9">
          <title>Group_7</title>
          <g id="Group_10">
            <title>Graphic_8</title>
            <g id="Graphic_11">
              <path d="M 741.7943 132.9841 C 735.6726 132.9841 730.2747 131.888 725.6007 129.69574 C 720.9266 127.5035 717.3075 123.90495 714.7429 118.9 C 712.1784 113.89505 710.8961 107.17362 710.8961 98.73552 C 710.8961 89.80106 712.2197 82.7901 714.867 77.70242 C 717.5142 72.61475 721.1749 68.99552 725.84885 66.84463 C 730.5229 64.69374 735.8793 63.61831 741.9184 63.61831 C 749.4465 63.61831 755.32 64.85919 759.5391 67.34098 C 763.75805 69.82278 765.8675 73.04906 765.8675 77.019935 C 765.8675 78.59174 765.4333 80.16351 764.5647 81.73532 C 763.696 83.30713 762.1036 84.61005 759.7872 85.64413 C 757.4708 86.67821 754.1619 87.19524 749.8601 87.19524 C 749.8601 81.48711 749.5912 77.01995 749.0535 73.79363 C 748.5158 70.56729 747.6265 68.27166 746.3856 66.90667 C 745.1447 65.54169 743.4075 64.8592 741.17385 64.8592 C 738.4439 64.8592 736.2517 65.89327 734.5971 67.96143 C 732.9427 70.0296 731.7638 73.52474 731.0606 78.44696 C 730.3575 83.36918 730.0059 90.09061 730.0059 98.61144 C 730.0059 110.52405 731.1846 119.00339 733.5424 124.04969 C 735.9001 129.09601 739.8502 131.61913 745.3929 131.61913 C 749.6947 131.61913 753.3553 130.23348 756.3747 127.46215 C 759.3943 124.69081 761.3177 119.87207 762.145 113.00577 C 763.4685 113.4194 764.5026 114.2053 765.2471 115.36346 C 765.9917 116.52163 766.3639 117.84524 766.3639 119.3343 C 766.3639 121.40248 765.4953 123.49129 763.75805 125.60081 C 762.0208 127.71034 759.3529 129.46824 755.7543 130.87459 C 752.15575 132.28094 747.5024 132.9841 741.7943 132.9841 Z" fill="white"/>
            </g>
          </g>
        </g>
        <g id="Group_6">
          <title>Group_5</title>
          <g id="Group_7">
            <title>Graphic_6</title>
            <g id="Graphic_8">
              <path d="M 772.5684 131.74321 L 772.5684 130.50232 L 774.0575 130.50232 C 775.2984 130.50232 776.6013 130.31619 777.9662 129.94392 C 779.3313 129.57165 780.4894 128.82713 781.4408 127.71032 C 782.3921 126.59351 782.8678 124.83561 782.8678 122.43653 L 782.8678 46.245847 C 782.8678 44.012234 782.3714 42.35773 781.3787 41.28229 C 780.3861 40.206845 779.2072 39.503675 777.8422 39.172765 C 776.4772 38.84186 775.2157 38.676414 774.0575 38.676414 L 772.5684 38.676414 L 772.5684 37.435523 L 801.7293 37.435523 L 801.7293 62.37742 C 801.7293 64.7765 801.7293 67.15485 801.7293 69.51255 C 801.7293 71.87025 801.6879 74.2486 801.6052 76.647665 L 801.8534 76.647665 C 802.8461 72.92498 804.2731 70.13301 806.1345 68.27166 C 807.9958 66.41031 810.126 65.16943 812.5251 64.548986 C 814.9241 63.92854 817.3231 63.61831 819.7223 63.61831 C 827.0022 63.61831 832.4207 65.521 835.9779 69.32641 C 839.5352 73.13183 841.3138 79.21214 841.3138 87.56751 L 841.3138 121.692 C 841.3138 125.58015 841.9963 128.02054 843.3612 129.01325 C 844.7262 130.00598 846.815 130.50232 849.6277 130.50232 L 850 130.50232 L 850 131.74321 L 822.4522 131.74321 L 822.4522 83.47256 C 822.4522 78.09535 821.7283 74.06249 820.2806 71.37389 C 818.8329 68.68528 816.4546 67.34098 813.1455 67.34098 C 808.7611 67.34098 805.7622 69.53321 804.1491 73.91771 C 802.5359 78.30222 801.7293 83.96889 801.7293 90.91791 L 801.7293 122.43653 C 801.7293 124.83561 802.205 126.59351 803.1563 127.71032 C 804.1078 128.82713 805.2658 129.57165 806.6309 129.94392 C 807.9958 130.31619 809.2987 130.50232 810.5397 130.50232 L 812.0287 130.50232 L 812.0287 131.74321 Z" fill="white"/>
            </g>
          </g>
        </g>
      </g>
    </g>
  </g>
</svg>
