<?xml version="1.0" encoding="UTF-8" standalone="no"?>
<!DOCTYPE svg PUBLIC "-//W3C//DTD SVG 1.1//EN" "http://www.w3.org/Graphics/SVG/1.1/DTD/svg11.dtd">
<svg xmlns:dc="http://purl.org/dc/elements/1.1/" xmlns="http://www.w3.org/2000/svg" xmlns:xl="http://www.w3.org/1999/xlink" version="1.1" viewBox="0 0 850 240" width="850" height="240">
  <defs/>
  <metadata> Produced by OmniGraffle 7.16 
    <dc:date>2020-07-14 20:56:10 +0000</dc:date>
  </metadata>
  <g id="Canvas_1" stroke="none" fill="none" stroke-dasharray="none" stroke-opacity="1" fill-opacity="1">
    <title>Canvas 1</title>
    <g id="Canvas_1: Layer 1">
      <title>Layer 1</title>
      <g id="Group_21">
        <title>Group_2</title>
        <g id="Group_67">
          <title>Group_33</title>
          <g id="Group_68">
            <title>Graphic_34</title>
            <g id="Graphic_69">
              <path d="M 211.639 173.517 L 211.639 178.989 C 211.639 188.131 219.078 195.571 228.221 195.571 L 233.694 195.571 L 233.694 190.099 C 233.694 180.955 226.254 173.517 217.111 173.517 L 211.639 173.517 M 235.332 198.848 L 228.221 198.848 C 217.271 198.848 208.362 189.939 208.362 178.989 L 208.362 171.878 C 208.362 170.973 209.096 170.24 210 170.24 L 217.111 170.24 C 228.062 170.24 236.971 179.149 236.971 190.099 L 236.971 197.209 C 236.971 198.114 236.237 198.848 235.332 198.848" fill="white"/>
            </g>
          </g>
        </g>
        <g id="Group_64">
          <title>Group_31</title>
          <g id="Group_65">
            <title>Graphic_32</title>
            <g id="Graphic_66">
              <path d="M 164.269 154.709 L 140.094 154.709 C 139.19 154.709 138.456 153.975 138.456 153.07 C 138.456 152.165 139.19 151.431 140.094 151.431 L 164.269 151.431 C 209.744 151.431 246.741 114.434 246.741 68.959 L 246.741 34.444 C 246.741 33.539 247.474 32.806 248.379 32.806 C 249.285 32.806 250.018 33.539 250.018 34.444 L 250.018 68.959 C 250.018 116.241 211.551 154.709 164.269 154.709" fill="white"/>
            </g>
          </g>
        </g>
        <g id="Group_61">
          <title>Group_29</title>
          <g id="Group_62">
            <title>Graphic_30</title>
            <g id="Graphic_63">
              <path d="M 50.468 154.678 C 50.048 154.678 49.629 154.519 49.309 154.199 C 48.669 153.558 48.669 152.521 49.309 151.881 L 158.405 42.79 L 191.072 10.116 C 197.595 3.593 206.267 2842171e-20 215.491 2842171e-20 C 230.289 2842171e-20 243.415 9.3 248.155 23.142 C 248.448 23.998 247.992 24.93 247.136 25.223 C 246.279 25.517 245.348 25.061 245.055 24.204 C 240.769 11.687 228.888 3.278 215.491 3.278 C 207.143 3.278 199.293 6.529 193.39 12.433 L 160.722 45.107 L 51.626 154.199 C 51.307 154.519 50.887 154.678 50.468 154.678" fill="white"/>
            </g>
          </g>
        </g>
        <g id="Group_58">
          <title>Group_27</title>
          <g id="Group_59">
            <title>Graphic_28</title>
            <g id="Graphic_60">
              <path d="M 21.4 239.216 C 13.835 239.216 6.264 236.365 .486 230.655 C .172 230.345 -.003 229.921 -14210855e-21 229.479 C .002 229.037 .183 228.615 .502 228.309 L 70.802 160.671 C 71.455 160.045 72.493 160.064 73.12 160.716 C 73.747 161.368 73.727 162.406 73.075 163.033 L 4.023 229.468 C 14.403 238.501 30.249 238.07 40.106 228.214 L 108.393 162.59 C 109.045 161.964 110.083 161.985 110.71 162.636 C 111.338 163.289 111.316 164.326 110.664 164.953 L 42.4 230.554 C 36.629 236.325 29.016 239.216 21.4 239.216" fill="white"/>
            </g>
          </g>
        </g>
        <g id="Group_55">
          <title>Group_25</title>
          <g id="Group_56">
            <title>Graphic_26</title>
            <g id="Graphic_57">
              <path d="M 21.554 203.612 C 15.613 203.612 9.666 201.373 5.128 196.888 C 4.815 196.578 4.639 196.155 4.641 195.713 C 4.644 195.272 4.824 194.85 5.141 194.544 L 49.33 151.861 C 49.981 151.232 51.018 151.249 51.648 151.901 C 52.277 152.552 52.258 153.59 51.608 154.218 L 8.675 195.687 C 16.553 202.269 28.364 201.856 35.746 194.472 L 70.802 160.673 C 71.453 160.045 72.491 160.064 73.119 160.714 C 73.747 161.366 73.728 162.403 73.076 163.031 L 38.042 196.811 C 33.512 201.341 27.534 203.612 21.554 203.612" fill="white"/>
            </g>
          </g>
        </g>
        <g id="Group_52">
          <title>Group_23</title>
          <g id="Group_53">
            <title>Graphic_24</title>
            <g id="Graphic_54">
              <path d="M 95.184 166.508 C 79.567 166.508 63.862 162.566 49.656 154.463 C 48.87 154.015 48.596 153.014 49.044 152.228 C 49.493 151.442 50.494 151.169 51.28 151.616 C 85.985 171.41 129.994 165.464 158.302 137.157 C 183.706 111.752 183.751 70.459 158.401 45.108 C 157.76 44.468 157.76 43.43 158.401 42.791 C 159.039 42.151 160.078 42.151 160.717 42.791 C 187.346 69.419 187.302 112.791 160.62 139.474 C 142.856 157.237 119.126 166.508 95.184 166.508" fill="white"/>
            </g>
          </g>
        </g>
        <g id="Group_49">
          <title>Group_21</title>
          <g id="Group_50">
            <title>Graphic_22</title>
            <g id="Graphic_51">
              <path d="M 212.519 18.367 C 210.973 18.367 209.714 19.626 209.714 21.173 C 209.714 22.72 210.973 23.978 212.519 23.978 C 214.067 23.978 215.325 22.72 215.325 21.173 C 215.325 19.626 214.067 18.367 212.519 18.367 M 212.519 27.256 C 209.165 27.256 206.437 24.527 206.437 21.173 C 206.437 17.818 209.165 15.09 212.519 15.09 C 215.873 15.09 218.602 17.818 218.602 21.173 C 218.602 24.527 215.873 27.256 212.519 27.256" fill="white"/>
            </g>
          </g>
        </g>
        <g id="Group_46">
          <title>Group_19</title>
          <g id="Group_47">
            <title>Graphic_20</title>
            <g id="Graphic_48">
              <rect x="138.451" y="151.433" width="711.549" height="3.278" fill="white"/>
            </g>
          </g>
        </g>
        <g id="Group_43">
          <title>Group_17</title>
          <g id="Group_44">
            <title>Graphic_18</title>
            <g id="Graphic_45">
              <path d="M 209.999 173.517 C 209.623 173.517 209.246 173.388 208.937 173.125 L 186.884 154.319 C 186.195 153.732 186.113 152.697 186.7 152.009 C 187.287 151.32 188.321 151.238 189.011 151.825 L 211.063 170.631 C 211.752 171.219 211.834 172.252 211.247 172.942 C 210.923 173.322 210.463 173.517 209.999 173.517" fill="white"/>
            </g>
          </g>
        </g>
        <g id="Group_40">
          <title>Group_15</title>
          <g id="Group_41">
            <title>Graphic_16</title>
            <g id="Graphic_42">
              <path d="M 270.129 166.501 C 268.898 170.755 269.396 175.235 271.532 179.114 C 273.67 182.994 277.19 185.809 281.444 187.041 L 286.7 188.563 L 288.223 183.307 C 290.766 174.524 285.69 165.311 276.907 162.767 L 271.651 161.245 L 270.129 166.501 M 287.818 192.232 C 287.668 192.232 287.515 192.211 287.362 192.167 L 280.532 190.188 C 275.438 188.714 271.222 185.343 268.662 180.696 C 266.103 176.05 265.506 170.685 266.982 165.589 L 268.959 158.758 C 269.08 158.342 269.362 157.989 269.743 157.779 C 270.122 157.569 270.572 157.52 270.989 157.641 L 277.818 159.619 C 288.337 162.665 294.416 173.7 291.37 184.219 L 289.392 191.049 C 289.185 191.766 288.529 192.232 287.818 192.232" fill="white"/>
            </g>
          </g>
        </g>
        <g id="Group_37">
          <title>Group_13</title>
          <g id="Group_38">
            <title>Graphic_14</title>
            <g id="Graphic_39">
              <path d="M 270.539 160.851 C 269.953 160.851 269.388 160.537 269.092 159.985 L 265.808 153.845 C 265.381 153.047 265.682 152.054 266.48 151.627 C 267.28 151.2 268.271 151.502 268.698 152.299 L 271.982 158.439 C 272.409 159.237 272.108 160.23 271.31 160.657 C 271.064 160.789 270.799 160.851 270.539 160.851" fill="white"/>
            </g>
          </g>
        </g>
        <g id="Group_34">
          <title>Group_11</title>
          <g id="Group_35">
            <title>Graphic_12</title>
            <g id="Graphic_36">
              <path d="M 294.289 122.959 L 288.825 123.265 C 284.403 123.512 280.342 125.467 277.39 128.769 C 274.438 132.071 272.949 136.325 273.196 140.747 L 273.502 146.21 L 278.965 145.904 C 283.388 145.657 287.449 143.703 290.4 140.4 C 293.352 137.099 294.842 132.845 294.595 128.422 L 294.289 122.959 M 271.957 149.577 C 271.556 149.577 271.167 149.43 270.865 149.16 C 270.541 148.871 270.346 148.464 270.321 148.03 L 269.924 140.931 C 269.627 135.634 271.411 130.54 274.946 126.584 C 278.482 122.63 283.347 120.289 288.643 119.992 L 295.742 119.595 C 296.179 119.571 296.602 119.72 296.926 120.009 C 297.25 120.299 297.445 120.705 297.47 121.139 L 297.867 128.239 C 298.163 133.536 296.379 138.63 292.845 142.585 C 289.309 146.54 284.445 148.881 279.148 149.177 L 272.049 149.575 C 272.018 149.576 271.988 149.577 271.957 149.577" fill="white"/>
            </g>
          </g>
        </g>
        <g id="Group_31">
          <title>Group_9</title>
          <g id="Group_32">
            <title>Graphic_10</title>
            <g id="Graphic_33">
              <path d="M 267.249 154.711 C 266.853 154.711 266.457 154.568 266.143 154.28 C 265.475 153.669 265.43 152.632 266.041 151.965 L 270.745 146.832 C 271.356 146.164 272.394 146.119 273.061 146.731 C 273.728 147.342 273.773 148.378 273.162 149.045 L 268.457 154.179 C 268.134 154.532 267.692 154.711 267.249 154.711" fill="white"/>
            </g>
          </g>
        </g>
        <g id="Group_28">
          <title>Group_7</title>
          <g id="Group_29">
            <title>Graphic_8</title>
            <g id="Graphic_30">
              <path d="M 237.082 28.55 C 237.193 29.212 237.551 30.482 237.682 30.947 C 237.76 31.223 237.82 31.441 237.851 31.563 C 238.468 34.08 239.332 34.798 242.053 35.058 C 243.68 35.214 245.404 34.296 247.028 33.345 C 248.86 32.27 250.678 31.133 252.453 29.954 C 247.177 24.756 244.135 23.212 238.787 26.959 C 238.515 27.157 237.542 28.048 237.082 28.55 M 242.424 38.353 C 242.198 38.353 241.972 38.342 241.742 38.32 C 237.663 37.932 235.614 36.2 234.667 32.343 C 234.643 32.242 234.591 32.064 234.528 31.837 C 233.759 29.111 233.629 28.213 233.897 27.469 C 234.308 26.329 236.883 24.292 236.907 24.274 C 245.559 18.213 250.959 23.724 256.183 29.054 C 256.521 29.399 256.69 29.877 256.643 30.358 C 256.597 30.839 256.34 31.275 255.943 31.55 C 253.592 33.171 251.15 34.726 248.685 36.171 C 246.866 37.238 244.756 38.353 242.424 38.353" fill="white"/>
            </g>
          </g>
        </g>
        <g id="Group_25">
          <title>Group_5</title>
          <g id="Group_26">
            <title>Graphic_6</title>
            <g id="Graphic_27">
              <path d="M 254.829 31.985 C 254.715 31.985 254.6 31.973 254.483 31.948 C 249.145 30.801 245.558 30.489 240.764 30.76 C 239.876 30.815 239.086 30.12 239.035 29.215 C 238.984 28.312 239.676 27.539 240.579 27.487 C 245.629 27.203 249.586 27.544 255.172 28.744 C 256.057 28.934 256.62 29.805 256.43 30.691 C 256.265 31.459 255.585 31.985 254.829 31.985" fill="white"/>
            </g>
          </g>
        </g>
        <g id="Group_22">
          <title>Group_3</title>
          <g id="Group_23">
            <title>Graphic_4</title>
            <g id="Graphic_24">
              <path d="M 81.207 159.641 C 70.711 159.641 60.181 157.976 50.02 154.603 C 49.16 154.318 48.695 153.391 48.98 152.532 C 49.265 151.673 50.193 151.206 51.052 151.493 C 76.975 160.098 105.402 157.209 129.047 143.569 L 129.306 143.42 C 148.531 132.328 161.468 112.516 163.91 90.425 C 164.273 87.138 163.493 84.026 161.713 81.662 C 160.191 79.642 158.312 78.526 155.969 78.25 C 149.174 77.445 141.195 83.979 141.115 84.046 C 140.42 84.622 139.386 84.525 138.809 83.827 C 138.231 83.13 138.329 82.097 139.027 81.52 C 139.397 81.214 148.184 74.036 156.352 74.995 C 159.587 75.376 162.271 76.956 164.331 79.691 C 166.616 82.724 167.623 86.664 167.168 90.785 C 164.611 113.909 151.069 134.647 130.943 146.259 L 130.685 146.408 C 115.499 155.168 98.402 159.641 81.207 159.641" fill="white"/>
            </g>
          </g>
        </g>
      </g>
      <g id="Group_89">
        <title>The Finch</title>
        <g id="Graphic_97">
          <path d="M 378.80155 123.14081 L 378.80155 51.67003 L 355.12897 51.67003 L 355.12897 43.854685 L 411.98845 43.854685 L 411.98845 51.67003 L 388.3159 51.67003 L 388.3159 123.14081 Z" fill="white"/>
        </g>
        <g id="Graphic_96">
          <path d="M 423.0885 123.14081 L 423.0885 41.589367 L 432.60284 41.589367 L 432.60284 76.58853 C 434.4906 73.11502 437.1712 70.41555 440.6447 68.49002 C 444.11823 66.56449 447.8937 65.60174 451.9713 65.60174 C 458.46526 65.60174 463.67543 67.621624 467.602 71.66146 C 471.5286 75.7013 473.49183 81.91198 473.49183 90.2937 L 473.49183 123.14081 L 464.09076 123.14081 L 464.09076 91.31309 C 464.09076 79.60889 459.3714 73.75688 449.9325 73.75688 C 445.0243 73.75688 440.909 75.51248 437.58654 79.02374 C 434.26406 82.535 432.60284 87.53753 432.60284 94.03148 L 432.60284 123.14081 Z" fill="white"/>
        </g>
        <g id="Graphic_95">
          <path d="M 513.1349 124.5 C 507.7736 124.5 503.0165 123.27297 498.8634 120.81886 C 494.7103 118.36475 491.4445 114.94793 489.0659 110.5683 C 486.6873 106.18866 485.498 101.01623 485.498 95.05087 C 485.498 89.16101 486.6684 84.00747 489.00926 79.59007 C 491.3501 75.17268 494.6159 71.73698 498.80676 69.28288 C 502.9976 66.82877 507.8491 65.60174 513.3614 65.60174 C 518.7982 65.60174 523.4987 66.82877 527.463 69.28288 C 531.42735 71.73698 534.4666 74.96503 536.58093 78.96711 C 538.69524 82.96919 539.7524 87.27325 539.7524 91.87942 C 539.7524 92.71004 539.7335 93.54065 539.69575 94.37127 C 539.658 95.20189 539.6391 96.14577 539.6391 97.20292 L 494.8991 97.20292 C 495.1256 101.50705 496.1261 105.07489 497.90063 107.90655 C 499.67514 110.73821 501.9027 112.87136 504.5833 114.30607 C 507.26396 115.74078 510.11445 116.45812 513.1349 116.45812 C 517.06146 116.45812 520.34614 115.552 522.989 113.73974 C 525.6319 111.92748 527.5574 109.47341 528.7656 106.37746 L 538.16666 106.37746 C 536.65644 111.58771 533.7682 115.91065 529.5018 119.3464 C 525.23544 122.78215 519.77986 124.5 513.1349 124.5 Z M 513.1349 73.643614 C 508.60424 73.643614 504.58334 75.02167 501.0721 77.77782 C 497.5608 80.53397 495.5409 84.55487 495.01235 89.84064 L 530.3513 89.84064 C 530.1248 84.7814 528.38805 80.81714 525.1411 77.94772 C 521.8941 75.0783 517.8921 73.643614 513.1349 73.643614 Z" fill="white"/>
        </g>
        <g id="Graphic_94">
          <path d="M 582.9067 123.14081 L 582.9067 43.854685 L 631.15795 43.854685 L 631.15795 51.67003 L 592.421 51.67003 L 592.421 79.53344 L 625.3814 79.53344 L 625.3814 87.23552 L 592.421 87.23552 L 592.421 123.14081 Z" fill="white"/>
        </g>
        <g id="Graphic_93">
          <path d="M 648.6009 54.50168 C 646.7131 54.50168 645.1463 53.87872 643.9004 52.63279 C 642.6544 51.38686 642.0315 49.82003 642.0315 47.932257 C 642.0315 46.119994 642.6544 44.609797 643.9004 43.40162 C 645.1463 42.193446 646.7131 41.589367 648.6009 41.589367 C 650.4132 41.589367 651.9611 42.193446 653.2448 43.40162 C 654.5285 44.609797 655.1703 46.119994 655.1703 47.932257 C 655.1703 49.82003 654.5285 51.38686 653.2448 52.63279 C 651.9611 53.87872 650.4132 54.50168 648.6009 54.50168 Z M 643.8437 123.14081 L 643.8437 66.96093 L 653.3581 66.96093 L 653.3581 123.14081 Z" fill="white"/>
        </g>
        <g id="Graphic_92">
          <path d="M 669.8949 123.14081 L 669.8949 66.96093 L 678.5031 66.96093 L 679.0694 77.04159 C 680.8817 73.492576 683.4868 70.69871 686.8848 68.659915 C 690.2828 66.62112 694.1338 65.60174 698.4379 65.60174 C 705.0829 65.60174 710.3874 67.621624 714.35175 71.66146 C 718.3161 75.7013 720.2982 81.91198 720.2982 90.2937 L 720.2982 123.14081 L 710.7839 123.14081 L 710.7839 91.31309 C 710.7839 79.60889 705.95125 73.75688 696.2858 73.75688 C 691.4531 73.75688 687.4322 75.51248 684.223 79.02374 C 681.0138 82.535 679.4092 87.53753 679.4092 94.03148 L 679.4092 123.14081 Z" fill="white"/>
        </g>
        <g id="Graphic_91">
          <path d="M 760.5076 124.5 C 755.1463 124.5 750.3326 123.27297 746.0662 120.81886 C 741.7998 118.36475 738.4396 114.92905 735.9855 110.51166 C 733.5314 106.09427 732.3044 100.94072 732.3044 95.05087 C 732.3044 89.16101 733.5314 84.00747 735.9855 79.59007 C 738.4396 75.17268 741.7998 71.73698 746.0662 69.28288 C 750.3326 66.82877 755.1463 65.60174 760.5076 65.60174 C 767.1526 65.60174 772.7592 67.33846 777.3276 70.81197 C 781.896 74.28547 784.78425 78.92933 785.9924 84.74367 L 776.2516 84.74367 C 775.49645 81.27017 773.6465 78.57069 770.7015 76.64516 C 767.7566 74.71963 764.3209 73.75688 760.3943 73.75688 C 757.2229 73.75688 754.2402 74.54973 751.4463 76.13546 C 748.6524 77.72119 746.3871 80.09975 744.6504 83.27122 C 742.9136 86.44268 742.0453 90.36919 742.0453 95.05087 C 742.0453 99.73255 742.9136 103.65906 744.6504 106.83052 C 746.3871 110.00198 748.6524 112.39942 751.4463 114.0229 C 754.2402 115.64639 757.2229 116.45812 760.3943 116.45812 C 764.3209 116.45812 767.7566 115.49537 770.7015 113.56984 C 773.6465 111.64431 775.49645 108.90708 776.2516 105.35806 L 785.9924 105.35806 C 784.8598 111.02139 781.9904 115.62749 777.3842 119.1765 C 772.77805 122.72552 767.1526 124.5 760.5076 124.5 Z" fill="white"/>
        </g>
        <g id="Graphic_90">
          <path d="M 799.2445 123.14081 L 799.2445 41.589367 L 808.7589 41.589367 L 808.7589 76.58853 C 810.6466 73.11502 813.3272 70.41555 816.80075 68.49002 C 820.2743 66.56449 824.0497 65.60174 828.1273 65.60174 C 834.6213 65.60174 839.8315 67.621624 843.758 71.66146 C 847.6846 75.7013 849.6479 81.91198 849.6479 90.2937 L 849.6479 123.14081 L 840.2468 123.14081 L 840.2468 91.31309 C 840.2468 79.60889 835.5274 73.75688 826.0886 73.75688 C 821.1803 73.75688 817.0651 75.51248 813.7426 79.02374 C 810.4201 82.535 808.7589 87.53753 808.7589 94.03148 L 808.7589 123.14081 Z" fill="white"/>
        </g>
      </g>
    </g>
  </g>
</svg>
