<?xml version="1.0" encoding="UTF-8" standalone="no"?>
<!DOCTYPE svg PUBLIC "-//W3C//DTD SVG 1.1//EN" "http://www.w3.org/Graphics/SVG/1.1/DTD/svg11.dtd">
<svg xmlns:xl="http://www.w3.org/1999/xlink" xmlns:dc="http://purl.org/dc/elements/1.1/" version="1.1" xmlns="http://www.w3.org/2000/svg" viewBox="0 0 850 240" width="850" height="240">
  <defs/>
  <metadata> Produced by OmniGraffle 7.16 
    <dc:date>2020-07-12 12:19:51 +0000</dc:date>
  </metadata>
  <g id="Canvas_1" stroke-dasharray="none" fill="none" stroke="none" stroke-opacity="1" fill-opacity="1">
    <title>Canvas 1</title>
    <g id="Canvas_1: Layer 1">
      <title>Layer 1</title>
      <g id="Group_2">
        <g id="Group_33">
          <g id="Graphic_34">
            <path d="M 211.639 173.517 L 211.639 178.989 C 211.639 188.131 219.078 195.571 228.221 195.571 L 233.694 195.571 L 233.694 190.099 C 233.694 180.955 226.254 173.517 217.111 173.517 L 211.639 173.517 M 235.332 198.848 L 228.221 198.848 C 217.271 198.848 208.362 189.939 208.362 178.989 L 208.362 171.878 C 208.362 170.973 209.096 170.24 210 170.24 L 217.111 170.24 C 228.062 170.24 236.971 179.149 236.971 190.099 L 236.971 197.209 C 236.971 198.114 236.237 198.848 235.332 198.848" fill="#FFFFFF"/>
          </g>
        </g>
        <g id="Group_31">
          <g id="Graphic_32">
            <path d="M 164.269 154.709 L 140.094 154.709 C 139.19 154.709 138.456 153.975 138.456 153.07 C 138.456 152.165 139.19 151.431 140.094 151.431 L 164.269 151.431 C 209.744 151.431 246.741 114.434 246.741 68.959 L 246.741 34.444 C 246.741 33.539 247.474 32.806 248.379 32.806 C 249.285 32.806 250.018 33.539 250.018 34.444 L 250.018 68.959 C 250.018 116.241 211.551 154.709 164.269 154.709" fill="#FFFFFF"/>
          </g>
        </g>
        <g id="Group_29">
          <g id="Graphic_30">
            <path d="M 50.468 154.678 C 50.048 154.678 49.629 154.519 49.309 154.199 C 48.669 153.558 48.669 152.521 49.309 151.881 L 158.405 42.79 L 191.072 10.116 C 197.595 3.593 206.267 2842171e-20 215.491 2842171e-20 C 230.289 2842171e-20 243.415 9.3 248.155 23.142 C 248.448 23.998 247.992 24.93 247.136 25.223 C 246.279 25.517 245.348 25.061 245.055 24.204 C 240.769 11.687 228.888 3.278 215.491 3.278 C 207.143 3.278 199.293 6.529 193.39 12.433 L 160.722 45.107 L 51.626 154.199 C 51.307 154.519 50.887 154.678 50.468 154.678" fill="#FFFFFF"/>
          </g>
        </g>
        <g id="Group_27">
          <g id="Graphic_28">
            <path d="M 21.4 239.216 C 13.835 239.216 6.264 236.365 .486 230.655 C .172 230.345 -.003 229.921 -14210855e-21 229.479 C .002 229.037 .183 228.615 .502 228.309 L 70.802 160.671 C 71.455 160.045 72.493 160.064 73.12 160.716 C 73.747 161.368 73.727 162.406 73.075 163.033 L 4.023 229.468 C 14.403 238.501 30.249 238.07 40.106 228.214 L 108.393 162.59 C 109.045 161.964 110.083 161.985 110.71 162.636 C 111.338 163.289 111.316 164.326 110.664 164.953 L 42.4 230.554 C 36.629 236.325 29.016 239.216 21.4 239.216" fill="#FFFFFF"/>
          </g>
        </g>
        <g id="Group_25">
          <g id="Graphic_26">
            <path d="M 21.554 203.612 C 15.613 203.612 9.666 201.373 5.128 196.888 C 4.815 196.578 4.639 196.155 4.641 195.713 C 4.644 195.272 4.824 194.85 5.141 194.544 L 49.33 151.861 C 49.981 151.232 51.018 151.249 51.648 151.901 C 52.277 152.552 52.258 153.59 51.608 154.218 L 8.675 195.687 C 16.553 202.269 28.364 201.856 35.746 194.472 L 70.802 160.673 C 71.453 160.045 72.491 160.064 73.119 160.714 C 73.747 161.366 73.728 162.403 73.076 163.031 L 38.042 196.811 C 33.512 201.341 27.534 203.612 21.554 203.612" fill="#FFFFFF"/>
          </g>
        </g>
        <g id="Group_23">
          <g id="Graphic_24">
            <path d="M 95.184 166.508 C 79.567 166.508 63.862 162.566 49.656 154.463 C 48.87 154.015 48.596 153.014 49.044 152.228 C 49.493 151.442 50.494 151.169 51.28 151.616 C 85.985 171.41 129.994 165.464 158.302 137.157 C 183.706 111.752 183.751 70.459 158.401 45.108 C 157.76 44.468 157.76 43.43 158.401 42.791 C 159.039 42.151 160.078 42.151 160.717 42.791 C 187.346 69.419 187.302 112.791 160.62 139.474 C 142.856 157.237 119.126 166.508 95.184 166.508" fill="#FFFFFF"/>
          </g>
        </g>
        <g id="Group_21">
          <g id="Graphic_22">
            <path d="M 212.519 18.367 C 210.973 18.367 209.714 19.626 209.714 21.173 C 209.714 22.72 210.973 23.978 212.519 23.978 C 214.067 23.978 215.325 22.72 215.325 21.173 C 215.325 19.626 214.067 18.367 212.519 18.367 M 212.519 27.256 C 209.165 27.256 206.437 24.527 206.437 21.173 C 206.437 17.818 209.165 15.09 212.519 15.09 C 215.873 15.09 218.602 17.818 218.602 21.173 C 218.602 24.527 215.873 27.256 212.519 27.256" fill="#FFFFFF"/>
          </g>
        </g>
        <g id="Group_19">
          <g id="Graphic_20">
            <rect x="138.451" y="151.433" width="711.549" height="3.278" fill="#FFFFFF"/>
          </g>
        </g>
        <g id="Group_17">
          <g id="Graphic_18">
            <path d="M 209.999 173.517 C 209.623 173.517 209.246 173.388 208.937 173.125 L 186.884 154.319 C 186.195 153.732 186.113 152.697 186.7 152.009 C 187.287 151.32 188.321 151.238 189.011 151.825 L 211.063 170.631 C 211.752 171.219 211.834 172.252 211.247 172.942 C 210.923 173.322 210.463 173.517 209.999 173.517" fill="#FFFFFF"/>
          </g>
        </g>
        <g id="Group_15">
          <g id="Graphic_16">
            <path d="M 270.129 166.501 C 268.898 170.755 269.396 175.235 271.532 179.114 C 273.67 182.994 277.19 185.809 281.444 187.041 L 286.7 188.563 L 288.223 183.307 C 290.766 174.524 285.69 165.311 276.907 162.767 L 271.651 161.245 L 270.129 166.501 M 287.818 192.232 C 287.668 192.232 287.515 192.211 287.362 192.167 L 280.532 190.188 C 275.438 188.714 271.222 185.343 268.662 180.696 C 266.103 176.05 265.506 170.685 266.982 165.589 L 268.959 158.758 C 269.08 158.342 269.362 157.989 269.743 157.779 C 270.122 157.569 270.572 157.52 270.989 157.641 L 277.818 159.619 C 288.337 162.665 294.416 173.7 291.37 184.219 L 289.392 191.049 C 289.185 191.766 288.529 192.232 287.818 192.232" fill="#FFFFFF"/>
          </g>
        </g>
        <g id="Group_13">
          <g id="Graphic_14">
            <path d="M 270.539 160.851 C 269.953 160.851 269.388 160.537 269.092 159.985 L 265.808 153.845 C 265.381 153.047 265.682 152.054 266.48 151.627 C 267.28 151.2 268.271 151.502 268.698 152.299 L 271.982 158.439 C 272.409 159.237 272.108 160.23 271.31 160.657 C 271.064 160.789 270.799 160.851 270.539 160.851" fill="#FFFFFF"/>
          </g>
        </g>
        <g id="Group_11">
          <g id="Graphic_12">
            <path d="M 294.289 122.959 L 288.825 123.265 C 284.403 123.512 280.342 125.467 277.39 128.769 C 274.438 132.071 272.949 136.325 273.196 140.747 L 273.502 146.21 L 278.965 145.904 C 283.388 145.657 287.449 143.703 290.4 140.4 C 293.352 137.099 294.842 132.845 294.595 128.422 L 294.289 122.959 M 271.957 149.577 C 271.556 149.577 271.167 149.43 270.865 149.16 C 270.541 148.871 270.346 148.464 270.321 148.03 L 269.924 140.931 C 269.627 135.634 271.411 130.54 274.946 126.584 C 278.482 122.63 283.347 120.289 288.643 119.992 L 295.742 119.595 C 296.179 119.571 296.602 119.72 296.926 120.009 C 297.25 120.299 297.445 120.705 297.47 121.139 L 297.867 128.239 C 298.163 133.536 296.379 138.63 292.845 142.585 C 289.309 146.54 284.445 148.881 279.148 149.177 L 272.049 149.575 C 272.018 149.576 271.988 149.577 271.957 149.577" fill="#FFFFFF"/>
          </g>
        </g>
        <g id="Group_9">
          <g id="Graphic_10">
            <path d="M 267.249 154.711 C 266.853 154.711 266.457 154.568 266.143 154.28 C 265.475 153.669 265.43 152.632 266.041 151.965 L 270.745 146.832 C 271.356 146.164 272.394 146.119 273.061 146.731 C 273.728 147.342 273.773 148.378 273.162 149.045 L 268.457 154.179 C 268.134 154.532 267.692 154.711 267.249 154.711" fill="#FFFFFF"/>
          </g>
        </g>
        <g id="Group_7">
          <g id="Graphic_8">
            <path d="M 237.082 28.55 C 237.193 29.212 237.551 30.482 237.682 30.947 C 237.76 31.223 237.82 31.441 237.851 31.563 C 238.468 34.08 239.332 34.798 242.053 35.058 C 243.68 35.214 245.404 34.296 247.028 33.345 C 248.86 32.27 250.678 31.133 252.453 29.954 C 247.177 24.756 244.135 23.212 238.787 26.959 C 238.515 27.157 237.542 28.048 237.082 28.55 M 242.424 38.353 C 242.198 38.353 241.972 38.342 241.742 38.32 C 237.663 37.932 235.614 36.2 234.667 32.343 C 234.643 32.242 234.591 32.064 234.528 31.837 C 233.759 29.111 233.629 28.213 233.897 27.469 C 234.308 26.329 236.883 24.292 236.907 24.274 C 245.559 18.213 250.959 23.724 256.183 29.054 C 256.521 29.399 256.69 29.877 256.643 30.358 C 256.597 30.839 256.34 31.275 255.943 31.55 C 253.592 33.171 251.15 34.726 248.685 36.171 C 246.866 37.238 244.756 38.353 242.424 38.353" fill="#FFFFFF"/>
          </g>
        </g>
        <g id="Group_5">
          <g id="Graphic_6">
            <path d="M 254.829 31.985 C 254.715 31.985 254.6 31.973 254.483 31.948 C 249.145 30.801 245.558 30.489 240.764 30.76 C 239.876 30.815 239.086 30.12 239.035 29.215 C 238.984 28.312 239.676 27.539 240.579 27.487 C 245.629 27.203 249.586 27.544 255.172 28.744 C 256.057 28.934 256.62 29.805 256.43 30.691 C 256.265 31.459 255.585 31.985 254.829 31.985" fill="#FFFFFF"/>
          </g>
        </g>
        <g id="Group_3">
          <g id="Graphic_4">
            <path d="M 81.207 159.641 C 70.711 159.641 60.181 157.976 50.02 154.603 C 49.16 154.318 48.695 153.391 48.98 152.532 C 49.265 151.673 50.193 151.206 51.052 151.493 C 76.975 160.098 105.402 157.209 129.047 143.569 L 129.306 143.42 C 148.531 132.328 161.468 112.516 163.91 90.425 C 164.273 87.138 163.493 84.026 161.713 81.662 C 160.191 79.642 158.312 78.526 155.969 78.25 C 149.174 77.445 141.195 83.979 141.115 84.046 C 140.42 84.622 139.386 84.525 138.809 83.827 C 138.231 83.13 138.329 82.097 139.027 81.52 C 139.397 81.214 148.184 74.036 156.352 74.995 C 159.587 75.376 162.271 76.956 164.331 79.691 C 166.616 82.724 167.623 86.664 167.168 90.785 C 164.611 113.909 151.069 134.647 130.943 146.259 L 130.685 146.408 C 115.499 155.168 98.402 159.641 81.207 159.641" fill="#FFFFFF"/>
          </g>
        </g>
      </g>
      <g id="Group_45">
        <title>The Finch</title>
        <g id="Graphic_37">
          <path d="M 383.9919 143.81781 L 383.9919 142.84615 L 388.07287 142.84615 C 389.498 142.84615 390.68016 142.48988 391.61943 141.77733 C 392.5587 141.06477 393.02834 139.3158 393.02834 136.53036 L 393.02834 75.412955 L 386.8097 75.412955 C 381.56273 75.412955 377.7409 76.44938 375.34413 78.52227 C 372.94736 80.59515 371.58705 84.09309 371.26316 89.01619 L 370.97166 93.2915 L 370 93.2915 L 370.68016 74.441296 L 430.8259 74.441296 L 431.50607 93.2915 L 430.5344 93.2915 L 430.2429 89.01619 C 429.91903 84.09309 428.5587 80.59515 426.16194 78.52227 C 423.76517 76.44938 419.94335 75.412955 414.69636 75.412955 L 408.47773 75.412955 L 408.47773 136.53036 C 408.47773 139.3158 408.94736 141.06477 409.88664 141.77733 C 410.8259 142.48988 412.0081 142.84615 413.4332 142.84615 L 417.51417 142.84615 L 417.51417 143.81781 Z" fill="#FFFFFF"/>
        </g>
        <g id="Graphic_38">
          <path d="M 434.12955 143.81781 L 434.12955 142.84615 L 435.29555 142.84615 C 436.2672 142.84615 437.28744 142.7004 438.3563 142.4089 C 439.4251 142.1174 440.332 141.53442 441.0769 140.65992 C 441.82187 139.78542 442.19433 138.40892 442.19433 136.53036 L 442.19433 76.870445 C 442.19433 75.12145 441.80567 73.825915 441.02834 72.98381 C 440.251 72.1417 439.32794 71.591094 438.2591 71.33198 C 437.1903 71.07287 436.20243 70.94332 435.29555 70.94332 L 434.12955 70.94332 L 434.12955 69.97166 L 456.96356 69.97166 L 456.96356 89.50202 C 456.96356 91.38058 456.96356 93.24291 456.96356 95.08907 C 456.96356 96.93523 456.9312 98.79756 456.8664 100.67611 L 457.06073 100.67611 C 457.83806 97.76112 458.95546 95.57491 460.41296 94.11741 C 461.87045 92.65991 463.53845 91.68826 465.417 91.20243 C 467.29556 90.7166 469.1741 90.47368 471.05263 90.47368 C 476.75306 90.47368 480.99594 91.96355 483.7814 94.94332 C 486.5668 97.92309 487.9595 102.68418 487.9595 109.22672 L 487.9595 135.94737 C 487.9595 138.99192 488.4939 140.90283 489.56275 141.68016 C 490.6316 142.4575 492.2672 142.84615 494.46964 142.84615 L 494.76113 142.84615 L 494.76113 143.81781 L 473.1903 143.81781 L 473.1903 106.02024 C 473.1903 101.8097 472.6235 98.65183 471.4899 96.54656 C 470.35627 94.44129 468.49394 93.38866 465.90283 93.38866 C 462.4696 93.38866 460.12146 95.10525 458.8583 98.53846 C 457.59514 101.97168 456.96356 106.40888 456.96356 111.8502 L 456.96356 136.53036 C 456.96356 138.40892 457.33603 139.78542 458.08097 140.65992 C 458.8259 141.53442 459.7328 142.1174 460.8016 142.4089 C 461.87045 142.7004 462.8907 142.84615 463.86235 142.84615 L 465.02834 142.84615 L 465.02834 143.81781 Z" fill="#FFFFFF"/>
        </g>
        <g id="Graphic_39">
          <path d="M 527.5061 144.78947 C 519.085 144.78947 512.7045 142.45751 508.3644 137.79352 C 504.02427 133.12953 501.85425 126.5547 501.85425 118.06883 C 501.85425 108.93518 503.9433 102.05265 508.12146 97.42105 C 512.2996 92.78945 518.2429 90.47368 525.9514 90.47368 C 533.0122 90.47368 538.5668 92.44937 542.6154 96.40081 C 546.664 100.35225 548.68826 106.18215 548.68826 113.89069 L 548.68826 116.22267 L 516.8178 116.22267 C 516.8178 126.06888 517.82185 133.11334 519.82996 137.35628 C 521.83807 141.59921 525.1417 143.72065 529.7409 143.72065 C 533.1093 143.72065 536.0081 142.60325 538.43725 140.36842 C 540.8664 138.1336 542.40486 134.36035 543.0526 129.04858 C 544.3482 129.3077 545.27125 129.8583 545.82186 130.7004 C 546.3725 131.54251 546.6478 132.51416 546.6478 133.61538 C 546.6478 135.49394 545.9352 137.2753 544.5101 138.95951 C 543.085 140.64373 540.9636 142.03643 538.14575 143.13765 C 535.3279 144.23887 531.7814 144.78947 527.5061 144.78947 Z M 516.8178 115.25101 L 533.919 115.25101 C 533.919 109.42102 533.6923 104.7571 533.23887 101.25911 C 532.7854 97.76112 531.9757 95.25102 530.8097 93.72874 C 529.6437 92.20647 528.0243 91.44534 525.9514 91.44534 C 522.7773 91.44534 520.47774 93.21051 519.05263 96.74089 C 517.6275 100.27127 516.8826 106.44125 516.8178 115.25101 Z" fill="#FFFFFF"/>
        </g>
        <g id="Graphic_40">
          <path d="M 577.3522 143.81781 L 577.3522 142.84615 L 581.4332 142.84615 C 582.7935 142.84615 583.9595 142.52227 584.9312 141.8745 C 585.90284 141.22672 586.38866 139.6073 586.38866 137.0162 L 586.38866 81.728745 C 586.38866 78.94331 585.919 77.19434 584.97976 76.48178 C 584.0405 75.76923 582.8583 75.412955 581.4332 75.412955 L 577.3522 75.412955 L 577.3522 74.441296 L 631.085 74.441296 L 631.668 92.31984 L 630.69636 92.31984 L 630.40486 89.01619 C 629.9514 84.09309 628.5425 80.59515 626.17814 78.52227 C 623.81375 76.44938 620.0405 75.412955 614.8583 75.412955 L 601.83806 75.412955 L 601.83806 107.08907 L 624.8664 107.08907 L 624.8664 108.06073 L 601.83806 108.06073 L 601.83806 136.53036 C 601.83806 139.3158 602.3077 141.06477 603.24696 141.77733 C 604.18624 142.48988 605.3684 142.84615 606.7935 142.84615 L 612.8178 142.84615 L 612.8178 143.81781 Z" fill="#FFFFFF"/>
        </g>
        <g id="Graphic_41">
          <path d="M 651.58704 82.9919 C 649.7085 82.9919 648.1053 82.42511 646.7773 81.2915 C 645.4494 80.15789 644.7854 78.39272 644.7854 75.99595 C 644.7854 73.5344 645.4494 71.75304 646.7773 70.65182 C 648.1053 69.5506 649.7085 69 651.58704 69 C 653.4656 69 655.085 69.5506 656.44534 70.65182 C 657.8057 71.75304 658.4858 73.5344 658.4858 75.99595 C 658.4858 78.39272 657.8057 80.15789 656.44534 81.2915 C 655.085 82.42511 653.4656 82.9919 651.58704 82.9919 Z M 636.6235 143.81781 L 636.6235 142.84615 L 637.7895 142.84615 C 638.76114 142.84615 639.7814 142.7004 640.8502 142.4089 C 641.919 142.1174 642.8259 141.53442 643.57085 140.65992 C 644.3158 139.78542 644.68826 138.40892 644.68826 136.53036 L 644.68826 98.63563 C 644.68826 96.88663 644.2996 95.5911 643.5223 94.74899 C 642.7449 93.90688 641.8219 93.35628 640.753 93.09717 C 639.6842 92.83806 638.69636 92.7085 637.7895 92.7085 L 636.6235 92.7085 L 636.6235 91.73684 L 659.4575 91.73684 L 659.4575 136.53036 C 659.4575 138.40892 659.82996 139.78542 660.5749 140.65992 C 661.31984 141.53442 662.2267 142.1174 663.29555 142.4089 C 664.3644 142.7004 665.3846 142.84615 666.3563 142.84615 L 667.5223 142.84615 L 667.5223 143.81781 Z" fill="#FFFFFF"/>
        </g>
        <g id="Graphic_42">
          <path d="M 670.8259 143.81781 L 670.8259 142.84615 L 671.9919 142.84615 C 672.9636 142.84615 673.9838 142.7004 675.0526 142.4089 C 676.1215 142.1174 677.0283 141.53442 677.7733 140.65992 C 678.5182 139.78542 678.8907 138.40892 678.8907 136.53036 L 678.8907 98.63563 C 678.8907 96.88663 678.502 95.5911 677.7247 94.74899 C 676.9474 93.90688 676.0243 93.35628 674.9555 93.09717 C 673.8866 92.83806 672.8988 92.7085 671.9919 92.7085 L 670.8259 92.7085 L 670.8259 91.73684 L 693.6599 91.73684 L 693.6599 100.57895 L 693.85425 100.57895 C 694.6316 97.66395 695.7328 95.49393 697.1579 94.06883 C 698.583 92.64372 700.2348 91.68826 702.1134 91.20243 C 703.9919 90.7166 705.8704 90.47368 707.749 90.47368 C 713.4494 90.47368 717.6923 91.96355 720.4777 94.94332 C 723.2632 97.92309 724.6559 102.68418 724.6559 109.22672 L 724.6559 135.94737 C 724.6559 138.99192 725.1903 140.90283 726.2591 141.68016 C 727.3279 142.4575 728.96355 142.84615 731.166 142.84615 L 731.4575 142.84615 L 731.4575 143.81781 L 709.8866 143.81781 L 709.8866 106.02024 C 709.8866 101.8097 709.31984 98.65183 708.1862 96.54656 C 707.0526 94.44129 705.1903 93.38866 702.5992 93.38866 C 699.166 93.38866 696.8178 95.10525 695.55466 98.53846 C 694.2915 101.97168 693.6599 106.40888 693.6599 111.8502 L 693.6599 136.53036 C 693.6599 138.40892 694.0324 139.78542 694.7773 140.65992 C 695.5223 141.53442 696.42914 142.1174 697.498 142.4089 C 698.5668 142.7004 699.587 142.84615 700.5587 142.84615 L 701.7247 142.84615 L 701.7247 143.81781 Z" fill="#FFFFFF"/>
        </g>
        <g id="Graphic_43">
          <path d="M 762.7449 144.78947 C 757.9514 144.78947 753.7247 143.93118 750.0648 142.21457 C 746.4048 140.49797 743.5709 137.68018 741.56275 133.76113 C 739.55465 129.84209 738.5506 124.57898 738.5506 117.97166 C 738.5506 110.97567 739.587 105.48585 741.6599 101.50202 C 743.7328 97.5182 746.5992 94.68422 750.2591 93 C 753.91905 91.31578 758.1133 90.47368 762.8421 90.47368 C 768.7369 90.47368 773.336 91.44533 776.6397 93.38866 C 779.9433 95.33199 781.5951 97.85828 781.5951 100.96761 C 781.5951 102.19839 781.2551 103.42914 780.5749 104.65992 C 779.8947 105.8907 778.6478 106.91093 776.834 107.72065 C 775.0202 108.53037 772.4292 108.93522 769.0607 108.93522 C 769.0607 104.46556 768.8502 100.96762 768.42915 98.4413 C 768.0081 95.91497 767.31175 94.11741 766.3401 93.04858 C 765.3684 91.97975 764.0081 91.44534 762.2591 91.44534 C 760.12145 91.44534 758.4049 92.25505 757.1093 93.87449 C 755.8138 95.49394 754.8907 98.23075 754.3401 102.08502 C 753.7895 105.93929 753.5142 111.2024 753.5142 117.8745 C 753.5142 127.20248 754.4372 133.84209 756.2834 137.79352 C 758.1296 141.74496 761.22265 143.72065 765.56275 143.72065 C 768.9312 143.72065 771.7976 142.63564 774.1619 140.46559 C 776.5263 138.29554 778.0324 134.5223 778.6802 129.14575 C 779.7166 129.46964 780.5263 130.08502 781.1093 130.9919 C 781.6923 131.89879 781.9838 132.93522 781.9838 134.10121 C 781.9838 135.72066 781.30365 137.35627 779.9433 139.0081 C 778.583 140.65993 776.4939 142.03643 773.6761 143.13765 C 770.8583 144.23887 767.2146 144.78947 762.7449 144.78947 Z" fill="#FFFFFF"/>
        </g>
        <g id="Graphic_44">
          <path d="M 786.8421 143.81781 L 786.8421 142.84615 L 788.0081 142.84615 C 788.9798 142.84615 790 142.7004 791.0688 142.4089 C 792.1377 142.1174 793.0445 141.53442 793.7895 140.65992 C 794.5344 139.78542 794.9069 138.40892 794.9069 136.53036 L 794.9069 76.870445 C 794.9069 75.12145 794.5182 73.825915 793.7409 72.98381 C 792.9636 72.1417 792.0405 71.591094 790.9717 71.33198 C 789.9028 71.07287 788.915 70.94332 788.0081 70.94332 L 786.8421 70.94332 L 786.8421 69.97166 L 809.6761 69.97166 L 809.6761 89.50202 C 809.6761 91.38058 809.6761 93.24291 809.6761 95.08907 C 809.6761 96.93523 809.6437 98.79756 809.5789 100.67611 L 809.7733 100.67611 C 810.5506 97.76112 811.668 95.57491 813.1255 94.11741 C 814.583 92.65991 816.251 91.68826 818.1296 91.20243 C 820.0081 90.7166 821.8866 90.47368 823.7652 90.47368 C 829.4656 90.47368 833.7085 91.96355 836.4939 94.94332 C 839.2794 97.92309 840.6721 102.68418 840.6721 109.22672 L 840.6721 135.94737 C 840.6721 138.99192 841.2065 140.90283 842.2753 141.68016 C 843.3441 142.4575 844.9797 142.84615 847.1822 142.84615 L 847.4737 142.84615 L 847.4737 143.81781 L 825.9028 143.81781 L 825.9028 106.02024 C 825.9028 101.8097 825.336 98.65183 824.2024 96.54656 C 823.0688 94.44129 821.2065 93.38866 818.6154 93.38866 C 815.1822 93.38866 812.834 95.10525 811.57085 98.53846 C 810.3077 101.97168 809.6761 106.40888 809.6761 111.8502 L 809.6761 136.53036 C 809.6761 138.40892 810.0486 139.78542 810.7935 140.65992 C 811.5385 141.53442 812.4453 142.1174 813.5142 142.4089 C 814.583 142.7004 815.6032 142.84615 816.5749 142.84615 L 817.7409 142.84615 L 817.7409 143.81781 Z" fill="#FFFFFF"/>
        </g>
      </g>
    </g>
  </g>
</svg>
