<?xml version="1.0" encoding="UTF-8" standalone="no"?>
<!DOCTYPE svg PUBLIC "-//W3C//DTD SVG 1.1//EN" "http://www.w3.org/Graphics/SVG/1.1/DTD/svg11.dtd">
<svg xmlns="http://www.w3.org/2000/svg" xmlns:dc="http://purl.org/dc/elements/1.1/" xmlns:xl="http://www.w3.org/1999/xlink" version="1.1" viewBox="0 0 32 32" width="32" height="32">
  <defs/>
  <metadata> Produced by OmniGraffle 7.16 
    <dc:date>2020-07-11 11:19:46 +0000</dc:date>
  </metadata>
  <g id="favicon" stroke-dasharray="none" fill-opacity="1" fill="none" stroke="none" stroke-opacity="1">
    <title>favicon</title>
    <rect fill="#010135" x="0" y="0" width="32" height="32"/>
    <g id="favicon: Layer 1">
      <title>Layer 1</title>
      <g id="Graphic_89">
        <path d="M 25.539415 6.857181 L 25.79912 11.493671 C 26.00875 15.247505 24.744176 18.857908 22.23879 21.659492 C 19.734254 24.462773 16.287653 26.121148 12.533819 26.33078 L 7.897329 26.590483 L 7.637624 21.953993 C 7.427993 18.201008 8.691719 14.590605 11.197104 11.788173 C 13.702489 8.98574 17.14909 7.326517 20.902076 7.116886 L 25.539415 6.857181 M 28.57609 11.338358 C 28.57607 11.337957 28.576046 11.337556 28.576023 11.337156 C 28.576023 11.337156 28.576023 11.337156 28.576023 11.337156 L 28.576023 11.337156 L 28.239154 5.3125334 C 28.217936 4.9441943 28.052438 4.599619 27.777457 4.353494 C 27.502476 4.1082173 27.143472 3.98176 26.772587 4.002129 L 20.747611 4.339066 C 16.252856 4.591132 12.123893 6.5779565 9.122863 9.933747 C 6.122681 13.291234 4.6085866 17.61455 4.860653 22.110155 L 5.164696 27.546943 L 1.565121 31.474796 C 1.0465606 32.040884 1.0847524 32.920993 1.6516891 33.439554 C 1.9181833 33.68398 2.2542716 33.805347 2.5903598 33.805347 C 2.9663373 33.805347 3.341466 33.65343 3.6155987 33.353834 L 7.225375 29.41492 L 12.689132 29.1086 C 17.184737 28.85738 21.31285 26.870557 24.31388 23.513918 C 27.313214 20.15728 28.827308 15.833962 28.57609 11.338358 Z M 28.57609 11.338358 L 28.576023 11.337156 Z" fill="white"/>
      </g>
    </g>
  </g>
</svg>
