<?xml version="1.0" encoding="UTF-8" standalone="no"?>
<!DOCTYPE svg PUBLIC "-//W3C//DTD SVG 1.1//EN" "http://www.w3.org/Graphics/SVG/1.1/DTD/svg11.dtd">
<svg xmlns="http://www.w3.org/2000/svg" xmlns:dc="http://purl.org/dc/elements/1.1/" xmlns:xl="http://www.w3.org/1999/xlink" version="1.1" viewBox="0 0 16 16" width="16" height="16">
  <defs/>
  <metadata> Produced by OmniGraffle 7.16 
    <dc:date>2020-07-11 11:19:46 +0000</dc:date>
  </metadata>
  <g id="favicon-pinned-svg" stroke-dasharray="none" fill-opacity="1" fill="none" stroke="none" stroke-opacity="1">
    <title>favicon-pinned-svg</title>
    <g id="favicon-pinned-svg: Layer 1">
      <title>Layer 1</title>
      <g id="Graphic_14">
        <path d="M 13.746187 2.1917187 L 13.664486 4.8001484 C 13.597984 6.911976 12.713182 8.871298 11.173337 10.317034 C 9.633884 11.76376 7.623098 12.523377 5.5112705 12.456875 L 2.9028408 12.375173 L 2.984542 9.766744 C 3.0510026 7.655391 3.935329 5.6960274 5.475216 4.249817 C 7.015103 2.8036065 9.02593 2.0435152 11.137282 2.109976 L 13.746187 2.1917187 M 15.226763 4.849213 C 15.22677 4.8489877 15.226777 4.8487623 15.226784 4.848537 C 15.226784 4.848537 15.226784 4.848537 15.226784 4.848537 L 15.226784 4.848537 L 15.333276 1.4591905 C 15.339438 1.2519389 15.263663 1.0509245 15.121771 .8996643 C 14.979838 .7488792 14.785047 .6604989 14.576411 .6537364 L 11.186864 .54726523 C 8.658157 .46822987 6.249269 1.3783045 4.4047946 3.110032 C 2.5607124 4.842751 1.5013003 7.188972 1.4222233 9.718154 L 1.3261464 12.776797 L -.881439 14.799473 C -1.1994787 15.090995 -1.221205 15.58559 -.9292082 15.90367 C -.7919852 16.053565 -.6097728 16.137972 -.4216159 16.154434 C -.2111273 16.17285 .0063271274 16.106172 .1744726 15.951874 L 2.388311 13.923504 L 5.462164 14.019627 C 7.991304 14.099179 10.399717 13.189063 12.244233 11.45686 C 14.087799 9.724574 15.14721 7.378353 15.226763 4.849213 Z M 15.226763 4.849213 L 15.226784 4.848537 Z" fill="#010135"/>
      </g>
    </g>
  </g>
</svg>
