<?xml version="1.0" encoding="UTF-8" standalone="no"?>
<!DOCTYPE svg PUBLIC "-//W3C//DTD SVG 1.1//EN" "http://www.w3.org/Graphics/SVG/1.1/DTD/svg11.dtd">
<svg xmlns="http://www.w3.org/2000/svg" xmlns:dc="http://purl.org/dc/elements/1.1/" xmlns:xl="http://www.w3.org/1999/xlink" version="1.1" viewBox="0 0 125 100" width="125" height="100">
  <defs/>
  <metadata> Produced by OmniGraffle 7.17 
    <dc:date>2020-07-19 10:37:04 +0000</dc:date>
  </metadata>
  <g id="Canvas_1" stroke="none" fill-opacity="1" fill="none" stroke-dasharray="none" stroke-opacity="1">
    <title>Canvas 1</title>
    <g id="Canvas_1: Layer 1">
      <title>Layer 1</title>
      <g id="Group_50">
        <title>Group_33</title>
        <g id="Group_51">
          <title>Graphic_34</title>
          <g id="Graphic_52">
            <path d="M 88.58904 73.23169 L 88.58904 75.51917 C 88.58904 79.34082 91.69879 82.45098 95.52086 82.45098 L 97.80875 82.45098 L 97.80875 80.163505 C 97.80875 76.34102 94.69859 73.23169 90.87652 73.23169 L 88.58904 73.23169 M 98.49348 83.82087 L 95.52086 83.82087 C 90.9434 83.82087 87.21915 80.09662 87.21915 75.51917 L 87.21915 72.54654 C 87.21915 72.16822 87.52599 71.8618 87.90389 71.8618 L 90.87652 71.8618 C 95.45439 71.8618 99.17864 75.58605 99.17864 80.163505 L 99.17864 83.13571 C 99.17864 83.51403 98.8718 83.82087 98.49348 83.82087" fill="white"/>
          </g>
        </g>
      </g>
      <g id="Group_29">
        <title>Group_19</title>
        <g id="Group_30">
          <title>Graphic_20</title>
          <g id="Graphic_31">
            <rect x="-5684342e-20" y="64" width="125" height="2" fill="white"/>
          </g>
        </g>
      </g>
      <g id="Group_26">
        <title>Group_17</title>
        <g id="Group_27">
          <title>Graphic_18</title>
          <g id="Graphic_28">
            <path d="M 87.90347 73.23169 C 87.74629 73.23169 87.58869 73.17777 87.45952 73.06783 L 78.24066 65.20631 C 77.95263 64.96093 77.91835 64.52826 78.16374 64.24066 C 78.40912 63.95263 78.84137 63.918354 79.12981 64.16374 L 88.34826 72.02525 C 88.63628 72.27106 88.67056 72.70288 88.42518 72.99133 C 88.28973 73.15018 88.09744 73.23169 87.90347 73.23169" fill="white"/>
          </g>
        </g>
      </g>
      <g id="Group_23">
        <title>Group_15</title>
        <g id="Group_24">
          <title>Graphic_16</title>
          <g id="Graphic_25">
            <path d="M 109.88746 71.298875 C 109.37287 73.07718 109.58105 74.94997 110.47396 76.57152 C 111.36772 78.19348 112.83919 79.37024 114.6175 79.88526 L 116.81468 80.5215 L 117.45134 78.324325 C 118.5144 74.65275 116.39246 70.80142 112.72089 69.73794 L 110.52371 69.1017 L 109.88746 71.298875 M 117.28204 82.05526 C 117.21933 82.05526 117.15537 82.04648 117.09141 82.02809 L 114.23625 81.200805 C 112.1068 80.58463 110.34437 79.17544 109.27421 77.23284 C 108.20447 75.290665 107.9549 73.04792 108.57192 70.91763 L 109.39837 68.06205 C 109.44895 67.88815 109.56683 67.740585 109.7261 67.6528 C 109.88454 67.56501 110.07265 67.54453 110.24697 67.59511 L 113.10171 68.42198 C 117.499 69.6953 120.04021 74.30829 118.76689 78.70557 L 117.94002 81.56073 C 117.85349 81.86046 117.57926 82.05526 117.28204 82.05526" fill="white"/>
          </g>
        </g>
      </g>
      <g id="Group_20">
        <title>Group_13</title>
        <g id="Group_21">
          <title>Graphic_14</title>
          <g id="Graphic_22">
            <path d="M 110.05886 68.93699 C 109.81389 68.93699 109.5777 68.80573 109.45396 68.57498 L 108.08115 66.00826 C 107.90265 65.67467 108.02847 65.25956 108.36206 65.08106 C 108.69649 64.902564 109.11076 65.02881 109.28926 65.36198 L 110.66208 67.9287 C 110.84058 68.26229 110.71475 68.677395 110.38116 68.855895 C 110.27832 68.911075 110.16755 68.93699 110.05886 68.93699" fill="white"/>
          </g>
        </g>
      </g>
      <g id="Group_17">
        <title>Group_11</title>
        <g id="Group_18">
          <title>Graphic_12</title>
          <g id="Graphic_19">
            <path d="M 121.29144 52.40731 L 119.00731 52.53523 C 117.15877 52.63848 115.46114 53.455734 114.22711 54.836076 C 112.99308 56.21642 112.37063 57.99473 112.47389 59.84327 L 112.6018 62.12698 L 114.88551 61.99906 C 116.73447 61.895805 118.4321 61.07897 119.66571 59.69821 C 120.89974 58.318285 121.52261 56.539976 121.41936 54.69102 L 121.29144 52.40731 M 111.95594 63.53449 C 111.78831 63.53449 111.6257 63.47304 111.49945 63.36017 C 111.36401 63.23936 111.28249 63.06922 111.27204 62.887795 L 111.10608 59.920184 C 110.98193 57.70587 111.7277 55.57641 113.20544 53.922676 C 114.6836 52.269776 116.71733 51.29116 118.93123 51.16701 L 121.89884 51.00105 C 122.08152 50.991016 122.25835 51.0533 122.39379 51.174114 C 122.52923 51.29534 122.61075 51.465064 122.6212 51.64649 L 122.78716 54.61452 C 122.9109 56.828836 122.16513 58.95829 120.6878 60.61161 C 119.20964 62.26493 117.17633 63.24354 114.96201 63.36728 L 111.9944 63.533655 C 111.98144 63.53407 111.9689 63.53449 111.95594 63.53449" fill="white"/>
          </g>
        </g>
      </g>
      <g id="Group_14">
        <title>Group_9</title>
        <g id="Group_15">
          <title>Graphic_10</title>
          <g id="Graphic_16">
            <path d="M 109.74702 66 C 109.56644 66 109.38587 65.93479 109.24269 65.803465 C 108.93808 65.52485 108.91756 65.05198 109.19617 64.74783 L 111.34119 62.40719 C 111.6198 62.102586 112.09313 62.082066 112.39728 62.36114 C 112.70143 62.63975 112.72195 63.112165 112.44333 63.416316 L 110.29786 65.75741 C 110.15058 65.91838 109.94903 66 109.74702 66" fill="white"/>
          </g>
        </g>
      </g>
    </g>
  </g>
</svg>
