<?xml version="1.0" encoding="UTF-8" standalone="no"?>
<!DOCTYPE svg PUBLIC "-//W3C//DTD SVG 1.1//EN" "http://www.w3.org/Graphics/SVG/1.1/DTD/svg11.dtd">
<svg width="100%" height="100%" viewBox="0 0 27 41" version="1.1" xmlns="http://www.w3.org/2000/svg" xmlns:xlink="http://www.w3.org/1999/xlink" xml:space="preserve" xmlns:serif="http://www.serif.com/" style="fill-rule:evenodd;clip-rule:evenodd;stroke-linejoin:round;stroke-miterlimit:2;">
    <g transform="matrix(1,0,0,1,-1116.66,-988.132)">
        <g transform="matrix(1,0,0,1,1121.18,1019.95)">
            <path d="M0,-16.75C-1.231,-12.496 -0.733,-8.016 1.403,-4.137C3.541,-0.257 7.061,2.558 11.315,3.79L16.571,5.312L18.094,0.056C20.637,-8.727 15.561,-17.94 6.778,-20.484L1.522,-22.006L0,-16.75ZM17.689,8.981C17.539,8.981 17.386,8.96 17.233,8.916L10.403,6.937C5.309,5.463 1.093,2.092 -1.467,-2.555C-4.026,-7.201 -4.623,-12.566 -3.147,-17.662L-1.17,-24.493C-1.049,-24.909 -0.767,-25.262 -0.386,-25.472C-0.007,-25.682 0.443,-25.731 0.86,-25.61L7.689,-23.632C18.208,-20.586 24.287,-9.551 21.241,0.968L19.263,7.798C19.056,8.515 18.4,8.981 17.689,8.981" style="fill:rgb(1,1,53);fill-rule:nonzero;"/>
        </g>
        <g transform="matrix(1,0,0,1,1121.59,987.899)">
            <path d="M0,9.651C-0.586,9.651 -1.151,9.337 -1.447,8.785L-4.731,2.645C-5.158,1.847 -4.857,0.854 -4.059,0.427C-3.259,0 -2.268,0.302 -1.841,1.099L1.443,7.239C1.87,8.037 1.569,9.03 0.771,9.457C0.525,9.589 0.26,9.651 0,9.651" style="fill:rgb(1,1,53);fill-rule:nonzero;"/>
        </g>
    </g>
</svg>
