<?xml version="1.0" encoding="UTF-8" standalone="no"?>
<!DOCTYPE svg PUBLIC "-//W3C//DTD SVG 1.1//EN" "http://www.w3.org/Graphics/SVG/1.1/DTD/svg11.dtd">
<svg xmlns:xl="http://www.w3.org/1999/xlink" version="1.1" xmlns:dc="http://purl.org/dc/elements/1.1/" xmlns="http://www.w3.org/2000/svg" viewBox="0 0 67.5 45" width="67.5" height="45">
  <defs>
    <linearGradient x1="0" x2="1" id="Gradient" gradientUnits="userSpaceOnUse">
      <stop offset="0" stop-color="#010135" stop-opacity="0"/>
      <stop offset=".503196" stop-color="#212b5a" stop-opacity=".25"/>
      <stop offset="1" stop-color="#3f4f7a" stop-opacity=".5"/>
    </linearGradient>
    <linearGradient id="Obj_Gradient" xl:href="#Gradient" gradientTransform="translate(22.499992 15.000007) rotate(-45) scale(21.213214)"/>
    <linearGradient x1="0" x2="1" id="Gradient_2" gradientUnits="userSpaceOnUse">
      <stop offset="0" stop-color="#010135" stop-opacity="0"/>
      <stop offset=".503196" stop-color="#214553" stop-opacity=".20247854"/>
      <stop offset="1" stop-color="#417d6e" stop-opacity=".4049571"/>
    </linearGradient>
    <linearGradient id="Obj_Gradient_2" xl:href="#Gradient_2" gradientTransform="translate(-7593132e-12 15.000007) rotate(-45) scale(21.213214)"/>
    <linearGradient id="Obj_Gradient_3" xl:href="#Gradient_2" gradientTransform="translate(29.999992 37.500007) rotate(-45) scale(21.213214)"/>
    <linearGradient x1="0" x2="1" id="Gradient_3" gradientUnits="userSpaceOnUse">
      <stop offset="0" stop-color="#010135" stop-opacity="0"/>
      <stop offset=".503196" stop-color="#92143f" stop-opacity=".12428477"/>
      <stop offset="1" stop-color="#ff0048" stop-opacity=".24856954"/>
    </linearGradient>
    <linearGradient id="Obj_Gradient_4" xl:href="#Gradient_3" gradientTransform="translate(7.499992 37.500007) rotate(-45) scale(21.213214)"/>
    <linearGradient id="Obj_Gradient_5" xl:href="#Gradient_3" gradientTransform="translate(45 15.000007) rotate(-45) scale(21.213214)"/>
    <linearGradient id="Obj_Gradient_6" xl:href="#Gradient" gradientTransform="translate(52.5 37.500007) rotate(-45) scale(21.213214)"/>
  </defs>
  <metadata> Produced by OmniGraffle 7.17 
    <dc:date>2020-07-18 12:18:52 +0000</dc:date>
  </metadata>
  <g id="Canvas_2" stroke-opacity="1" fill="none" fill-opacity="1" stroke="none" stroke-dasharray="none">
    <title>Canvas 2</title>
    <g id="Canvas_2: Layer 1">
      <title>Layer 1</title>
      <g id="Graphic_56">
        <path d="M 27.499996 .4270888 C 26.476366 .7880976 25.515435 1.3779709 24.6967 2.1967087 C 23.359467 3.5339354 22.63276 5.250491 22.516575 7.000004 L 22.516575 7.000004 L 22.499996 7.000004 L 22.499996 7.49248 C 22.49999 7.497496 22.49999 7.502511 22.499996 7.507527 L 22.499996 15.000003 L 29.992473 15.000003 C 29.99749 15.000008 30.002504 15.000008 30.00752 15.000003 L 30.499996 15.000003 L 30.499996 14.983425 C 32.24951 14.86724 33.966065 14.140532 35.30329 12.803298 C 36.640525 11.466072 37.367234 9.749516 37.483417 8.000003 L 37.499996 8.000003 L 37.499996 7.5076015 C 37.5 7.502536 37.5 7.497471 37.499996 7.492406 L 37.499996 375e-8 L 30.00752 375e-8 C 30.002504 -125e-8 29.99749 -125e-8 29.992473 375e-8 L 29.499996 375e-8 L 29.499996 .016582517 C 28.821644 .0616314 28.148247 .19846682 27.499996 .42708875 Z M 27.499996 .42708875 L 27.499996 375e-8 L 27.499996 375e-8 Z M 28.33333 2.7847327 C 28.7655 2.6323183 29.21443 2.5410948 29.666663 2.5110622 L 29.666663 2.5000097 L 29.99498 2.5000097 C 29.998324 2.5000064 30.001668 2.5000064 30.005012 2.5000097 L 34.99999 2.5000097 L 34.99999 7.494938 C 34.999994 7.498315 34.999994 7.501692 34.99999 7.505069 L 34.99999 7.833336 L 34.988938 7.833336 C 34.91148 8.999677 34.42701 10.144046 33.53552 11.035529 C 32.64404 11.927017 31.49967 12.411489 30.33333 12.488945 L 30.33333 12.499998 L 30.005012 12.499998 C 30.001668 12.500001 29.998324 12.500001 29.99498 12.499998 L 25.000002 12.499998 L 25.000002 7.505019 C 25 7.5016755 25 7.498332 25.000002 7.494988 L 25.000002 7.166671 L 25.011055 7.166671 L 25.011055 7.166671 C 25.08851 6.00033 25.572982 4.8559613 26.46447 3.964478 C 27.010292 3.4186533 27.650912 3.025405 28.33333 2.7847327 Z M 28.33333 2.7847327 L 28.33333 2.5000097 L 28.33333 2.5000097 Z" fill="url(#Obj_Gradient)"/>
      </g>
      <g id="Graphic_57">
        <path d="M 4.999996 .4270888 C 3.9763656 .7880976 3.0154347 1.3779709 2.196701 2.1967087 C .8594675 3.5339354 .1327587 5.250491 .016574778 7.000004 L .016574778 7.000004 L -39735175e-13 7.000004 L -39735175e-13 7.49248 C -8973518e-12 7.497496 -8973518e-12 7.502511 -39735175e-13 7.507527 L -39735175e-13 15.000003 L 7.492473 15.000003 C 7.497488 15.000008 7.502504 15.000008 7.50752 15.000003 L 7.999996 15.000003 L 7.999996 14.983425 C 9.749509 14.86724 11.466065 14.140532 12.803291 12.803298 C 14.140525 11.466072 14.867234 9.749516 14.983417 8.000003 L 14.999996 8.000003 L 14.999996 7.5076015 C 15.000001 7.502536 15.000001 7.497471 14.999996 7.492406 L 14.999996 375e-8 L 7.50752 375e-8 C 7.502504 -125e-8 7.497488 -125e-8 7.492473 375e-8 L 6.999996 375e-8 L 6.999996 .016582517 C 6.321644 .0616314 5.648247 .19846682 4.999996 .42708875 Z M 4.999996 .42708875 L 4.999996 375e-8 L 4.999996 375e-8 Z M 5.8333314 2.7847327 C 6.2654984 2.6323183 6.714429 2.5410948 7.166663 2.5110622 L 7.166663 2.5000097 L 7.4949805 2.5000097 C 7.498324 2.5000064 7.501668 2.5000064 7.505012 2.5000097 L 12.49999 2.5000097 L 12.49999 7.494938 C 12.499994 7.498315 12.499994 7.501692 12.49999 7.505069 L 12.49999 7.833336 L 12.488938 7.833336 C 12.411482 8.999677 11.92701 10.144046 11.035522 11.035529 C 10.144039 11.927017 8.99967 12.411489 7.833329 12.488945 L 7.833329 12.499998 L 7.505012 12.499998 C 7.501668 12.500001 7.498324 12.500001 7.4949805 12.499998 L 2.500002 12.499998 L 2.500002 7.505019 C 2.4999987 7.5016755 2.4999987 7.498332 2.500002 7.494988 L 2.500002 7.166671 L 2.5110546 7.166671 L 2.5110546 7.166671 C 2.5885104 6.00033 3.0729823 4.8559613 3.9644703 3.964478 C 4.510292 3.4186533 5.150912 3.025405 5.8333314 2.7847327 Z M 5.8333314 2.7847327 L 5.8333314 2.5000097 L 5.8333314 2.5000097 Z" fill="url(#Obj_Gradient_2)"/>
      </g>
      <g id="Graphic_59">
        <path d="M 34.999996 22.92709 C 33.976366 23.288098 33.015435 23.87797 32.1967 24.69671 C 30.859467 26.033935 30.13276 27.75049 30.016575 29.500004 L 30.016575 29.500004 L 29.999996 29.500004 L 29.999996 29.99248 C 29.99999 29.997496 29.99999 30.00251 29.999996 30.007527 L 29.999996 37.500003 L 37.492473 37.500003 C 37.49749 37.50001 37.502504 37.50001 37.50752 37.500003 L 37.999996 37.500003 L 37.999996 37.483425 C 39.74951 37.36724 41.466065 36.64053 42.80329 35.3033 C 44.140525 33.96607 44.867234 32.249516 44.98342 30.500003 L 44.999996 30.500003 L 44.999996 30.0076 C 45 30.002536 45 29.99747 44.999996 29.992406 L 44.999996 22.500004 L 37.50752 22.500004 C 37.502504 22.5 37.49749 22.5 37.492473 22.500004 L 36.999996 22.500004 L 36.999996 22.516583 C 36.321644 22.561631 35.648247 22.698467 34.999996 22.92709 Z M 34.999996 22.92709 L 34.999996 22.500004 L 34.999996 22.500004 Z M 35.83333 25.284733 C 36.2655 25.132318 36.71443 25.041095 37.166663 25.011062 L 37.166663 25.00001 L 37.49498 25.00001 C 37.498324 25.000006 37.50167 25.000006 37.50501 25.00001 L 42.49999 25.00001 L 42.49999 29.99494 C 42.499994 29.998315 42.499994 30.001692 42.49999 30.00507 L 42.49999 30.333336 L 42.48894 30.333336 C 42.41148 31.499677 41.92701 32.644046 41.03552 33.53553 C 40.14404 34.427017 38.99967 34.91149 37.83333 34.988945 L 37.83333 34.999998 L 37.50501 34.999998 C 37.50167 35 37.498324 35 37.49498 34.999998 L 32.500002 34.999998 L 32.500002 30.00502 C 32.5 30.001675 32.5 29.99833 32.500002 29.994988 L 32.500002 29.66667 L 32.511055 29.66667 L 32.511055 29.66667 C 32.58851 28.50033 33.072982 27.35596 33.96447 26.464478 C 34.510292 25.918653 35.15091 25.525405 35.83333 25.284733 Z M 35.83333 25.284733 L 35.83333 25.00001 L 35.83333 25.00001 Z" fill="url(#Obj_Gradient_3)"/>
      </g>
      <g id="Graphic_58">
        <path d="M 12.499996 22.92709 C 11.476366 23.288098 10.515435 23.87797 9.696701 24.69671 C 8.359467 26.033935 7.632759 27.75049 7.516575 29.500004 L 7.516575 29.500004 L 7.499996 29.500004 L 7.499996 29.99248 C 7.499991 29.997496 7.499991 30.00251 7.499996 30.007527 L 7.499996 37.500003 L 14.992473 37.500003 C 14.997488 37.50001 15.002504 37.50001 15.00752 37.500003 L 15.499996 37.500003 L 15.499996 37.483425 C 17.24951 37.36724 18.966065 36.64053 20.303291 35.3033 C 21.640525 33.96607 22.367234 32.249516 22.483417 30.500003 L 22.499996 30.500003 L 22.499996 30.0076 C 22.5 30.002536 22.5 29.99747 22.499996 29.992406 L 22.499996 22.500004 L 15.00752 22.500004 C 15.002504 22.5 14.997488 22.5 14.992473 22.500004 L 14.499996 22.500004 L 14.499996 22.516583 C 13.821644 22.561631 13.148247 22.698467 12.499996 22.92709 Z M 12.499996 22.92709 L 12.499996 22.500004 L 12.499996 22.500004 Z M 13.333331 25.284733 C 13.765498 25.132318 14.21443 25.041095 14.666663 25.011062 L 14.666663 25.00001 L 14.99498 25.00001 C 14.998324 25.000006 15.001668 25.000006 15.005012 25.00001 L 19.99999 25.00001 L 19.99999 29.99494 C 19.999994 29.998315 19.999994 30.001692 19.99999 30.00507 L 19.99999 30.333336 L 19.988938 30.333336 C 19.911482 31.499677 19.42701 32.644046 18.535522 33.53553 C 17.644039 34.427017 16.49967 34.91149 15.33333 34.988945 L 15.33333 34.999998 L 15.005012 34.999998 C 15.001668 35 14.998324 35 14.99498 34.999998 L 10.000002 34.999998 L 10.000002 30.00502 C 9.999999 30.001675 9.999999 29.99833 10.000002 29.994988 L 10.000002 29.66667 L 10.011055 29.66667 L 10.011055 29.66667 C 10.08851 28.50033 10.572982 27.35596 11.46447 26.464478 C 12.010292 25.918653 12.650912 25.525405 13.333331 25.284733 Z M 13.333331 25.284733 L 13.333331 25.00001 L 13.333331 25.00001 Z" fill="url(#Obj_Gradient_4)"/>
      </g>
      <g id="Graphic_61">
        <path d="M 50.000004 .4270888 C 48.976373 .7880976 48.01544 1.3779709 47.19671 2.1967087 C 45.859475 3.5339354 45.132766 5.250491 45.01658 7.000004 L 45.01658 7.000004 L 45.000004 7.000004 L 45.000004 7.49248 C 45 7.497496 45 7.502511 45.000004 7.507527 L 45.000004 15.000003 L 52.49248 15.000003 C 52.497496 15.000008 52.50251 15.000008 52.50753 15.000003 L 53.000004 15.000003 L 53.000004 14.983425 C 54.74952 14.86724 56.46607 14.140532 57.8033 12.803298 C 59.14053 11.466072 59.86724 9.749516 59.983425 8.000003 L 60.000004 8.000003 L 60.000004 7.5076015 C 60.00001 7.502536 60.00001 7.497471 60.000004 7.492406 L 60.000004 375e-8 L 52.50753 375e-8 C 52.50251 -125e-8 52.497496 -125e-8 52.49248 375e-8 L 52.000004 375e-8 L 52.000004 .016582517 C 51.32165 .0616314 50.648255 .19846682 50.000004 .42708875 Z M 50.000004 .42708875 L 50.000004 375e-8 L 50.000004 375e-8 Z M 50.83334 2.7847327 C 51.265506 2.6323183 51.714437 2.5410948 52.16667 2.5110622 L 52.16667 2.5000097 L 52.49499 2.5000097 C 52.49833 2.5000064 52.501676 2.5000064 52.50502 2.5000097 L 57.5 2.5000097 L 57.5 7.494938 C 57.5 7.498315 57.5 7.501692 57.5 7.505069 L 57.5 7.833336 L 57.488945 7.833336 C 57.41149 8.999677 56.92702 10.144046 56.03553 11.035529 C 55.144046 11.927017 53.99968 12.411489 52.833337 12.488945 L 52.833337 12.499998 L 52.50502 12.499998 C 52.501676 12.500001 52.49833 12.500001 52.49499 12.499998 L 47.50001 12.499998 L 47.50001 7.505019 C 47.500006 7.5016755 47.500006 7.498332 47.50001 7.494988 L 47.50001 7.166671 L 47.51106 7.166671 L 47.51106 7.166671 C 47.58852 6.00033 48.07299 4.8559613 48.96448 3.964478 C 49.5103 3.4186533 50.15092 3.025405 50.83334 2.7847327 Z M 50.83334 2.7847327 L 50.83334 2.5000097 L 50.83334 2.5000097 Z" fill="url(#Obj_Gradient_5)"/>
      </g>
      <g id="Graphic_60">
        <path d="M 57.500004 22.92709 C 56.47637 23.288098 55.51544 23.87797 54.69671 24.69671 C 53.359475 26.033935 52.632766 27.75049 52.51658 29.500004 L 52.51658 29.500004 L 52.500004 29.500004 L 52.500004 29.99248 C 52.5 29.997496 52.5 30.00251 52.500004 30.007527 L 52.500004 37.500003 L 59.99248 37.500003 C 59.997496 37.50001 60.00251 37.50001 60.00753 37.500003 L 60.500004 37.500003 L 60.500004 37.483425 C 62.24952 37.36724 63.96607 36.64053 65.3033 35.3033 C 66.64053 33.96607 67.36724 32.249516 67.483425 30.500003 L 67.5 30.500003 L 67.5 30.0076 C 67.50001 30.002536 67.50001 29.99747 67.5 29.992406 L 67.5 22.500004 L 60.00753 22.500004 C 60.00251 22.5 59.997496 22.5 59.99248 22.500004 L 59.500004 22.500004 L 59.500004 22.516583 C 58.82165 22.561631 58.148255 22.698467 57.500004 22.92709 Z M 57.500004 22.92709 L 57.500004 22.500004 L 57.500004 22.500004 Z M 58.33334 25.284733 C 58.765506 25.132318 59.21444 25.041095 59.66667 25.011062 L 59.66667 25.00001 L 59.99499 25.00001 C 59.99833 25.000006 60.001676 25.000006 60.00502 25.00001 L 65 25.00001 L 65 29.99494 C 65 29.998315 65 30.001692 65 30.00507 L 65 30.333336 L 64.988945 30.333336 C 64.91149 31.499677 64.42702 32.644046 63.53553 33.53553 C 62.64405 34.427017 61.49968 34.91149 60.33334 34.988945 L 60.33334 34.999998 L 60.00502 34.999998 C 60.001676 35 59.99833 35 59.99499 34.999998 L 55.00001 34.999998 L 55.00001 30.00502 C 55.000006 30.001675 55.000006 29.99833 55.00001 29.994988 L 55.00001 29.66667 L 55.01106 29.66667 L 55.01106 29.66667 C 55.08852 28.50033 55.57299 27.35596 56.46448 26.464478 C 57.0103 25.918653 57.65092 25.525405 58.33334 25.284733 Z M 58.33334 25.284733 L 58.33334 25.00001 L 58.33334 25.00001 Z" fill="url(#Obj_Gradient_6)"/>
      </g>
    </g>
  </g>
</svg>
