<?xml version="1.0" encoding="UTF-8" standalone="no"?>
<!DOCTYPE svg PUBLIC "-//W3C//DTD SVG 1.1//EN" "http://www.w3.org/Graphics/SVG/1.1/DTD/svg11.dtd">
<svg xmlns="http://www.w3.org/2000/svg" version="1.1" xmlns:xl="http://www.w3.org/1999/xlink" xmlns:dc="http://purl.org/dc/elements/1.1/" viewBox="0 0 850 240" width="850" height="240">
  <defs>
    <style type="text/css">
        @media screen and (max-width: 250px) {
            #wordmark-small{
                display: none !important;
            }
            #wordmark-large{
                display: block !important;
            }
        }
        @media screen and (min-width: 251px) {
            #wordmark-large{
                display: none !important;
            }
            #wordmark-small{
                display: block !important;
            }
        }
    </style> 
  </defs>
  <metadata> Produced by OmniGraffle 7.16 
    <dc:date>2020-07-12 17:45:11 +0000</dc:date>
  </metadata>
  <g id="Canvas_1" stroke-dasharray="none" stroke="none" stroke-opacity="1" fill="none" fill-opacity="1">
    <title>Canvas 1</title>
    
    
   
    <g id="wordmark-small" style="">
      <title>Layer 1</title>
      <g id="Group_116">
        <title>Group_2</title>
        <g id="Group_162">
          <title>L</title>
          <g id="Group_163">
            <title>Graphic_34</title>
            <g id="Graphic_164">
              <path d="M 584.077 173.077 L 584.077 178.549 C 584.077 187.691 591.516 195.131 600.659 195.131 L 606.132 195.131 L 606.132 189.659 C 606.132 180.515 598.692 173.077 589.549 173.077 L 584.077 173.077 M 607.77 198.408 L 600.659 198.408 C 589.709 198.408 580.8 189.499 580.8 178.549 L 580.8 171.438 C 580.8 170.533 581.534 169.8 582.438 169.8 L 589.549 169.8 C 600.5 169.8 609.409 178.709 609.409 189.659 L 609.409 196.769 C 609.409 197.674 608.675 198.408 607.77 198.408" fill="white"/>
            </g>
          </g>
        </g>
        <g id="Group_141">
          <title>t</title>
          <g id="Group_142">
            <title>Graphic_20</title>
            <g id="Graphic_143">
              <rect x="358.6" y="151.433" width="491.4" height="3.278" fill="white"/>
            </g>
          </g>
        </g>
        <g id="Group_138">
          <title>t</title>
          <g id="Group_139">
            <title>Graphic_18</title>
            <g id="Graphic_140">
              <path d="M 582.6907 173.4047 C 582.3147 173.4047 581.9377 173.2757 581.6287 173.0127 L 559.5757 154.2067 C 558.8867 153.6197 558.8047 152.5847 559.3917 151.8967 C 559.9787 151.2077 561.0127 151.1257 561.7027 151.7127 L 583.7547 170.5187 C 584.4437 171.1067 584.5257 172.1397 583.9387 172.8297 C 583.6147 173.2097 583.1547 173.4047 582.6907 173.4047" fill="white"/>
            </g>
          </g>
        </g>
        <g id="Group_135">
          <title>L</title>
          <g id="Group_136">
            <title>Graphic_16</title>
            <g id="Graphic_137">
              <path d="M 356.1697 139.531 C 357.4007 135.277 356.9027 130.797 354.7667 126.918 C 352.6287 123.038 349.1087 120.223 344.8547 118.991 L 339.5987 117.469 L 338.0757 122.725 C 335.5327 131.508 340.6087 140.721 349.3917 143.265 L 354.6477 144.787 L 356.1697 139.531 M 338.4807 113.8 C 338.6307 113.8 338.7837 113.821 338.9367 113.865 L 345.7667 115.844 C 350.8607 117.318 355.0767 120.689 357.6367 125.336 C 360.1957 129.982 360.7927 135.347 359.3167 140.443 L 357.3397 147.274 C 357.2187 147.69 356.9367 148.043 356.5557 148.253 C 356.1767 148.463 355.7267 148.512 355.3097 148.391 L 348.4807 146.413 C 337.9617 143.367 331.8827 132.332 334.9287 121.813 L 336.9067 114.983 C 337.1137 114.266 337.7697 113.8 338.4807 113.8" fill="white"/>
            </g>
          </g>
        </g>
        <g id="Group_132">
          <title>t</title>
          <g id="Group_133">
            <title>Graphic_14</title>
            <g id="Graphic_134">
              <path d="M 355.7597 145.181 C 356.3457 145.181 356.9107 145.495 357.2067 146.047 L 360.4907 152.187 C 360.9177 152.985 360.6167 153.978 359.8187 154.405 C 359.0187 154.832 358.0277 154.53 357.6007 153.733 L 354.3167 147.593 C 353.8897 146.795 354.1907 145.802 354.9887 145.375 C 355.2347 145.243 355.4997 145.181 355.7597 145.181" fill="white"/>
            </g>
          </g>
        </g>
        <g id="Group_129">
          <title>L</title>
          <g id="Group_130">
            <title>Graphic_12</title>
            <g id="Graphic_131">
              <path d="M 332.0097 183.073 L 337.4737 182.767 C 341.8957 182.52 345.9567 180.565 348.9087 177.263 C 351.8607 173.961 353.3497 169.707 353.1027 165.285 L 352.7967 159.822 L 347.3337 160.128 C 342.9107 160.375 338.8497 162.329 335.8987 165.632 C 332.9467 168.933 331.4567 173.187 331.7037 177.61 L 332.0097 183.073 M 354.3417 156.455 C 354.7427 156.455 355.1317 156.602 355.4337 156.872 C 355.7577 157.161 355.9527 157.568 355.9777 158.002 L 356.3747 165.101 C 356.6717 170.398 354.8877 175.492 351.3527 179.448 C 347.8167 183.402 342.9517 185.743 337.6557 186.04 L 330.5567 186.437 C 330.1197 186.461 329.6967 186.312 329.3727 186.023 C 329.0487 185.733 328.8537 185.327 328.8287 184.893 L 328.4317 177.793 C 328.1357 172.496 329.9197 167.402 333.4537 163.447 C 336.9897 159.492 341.8537 157.151 347.1507 156.855 L 354.2497 156.457 C 354.2807 156.456 354.3107 156.455 354.3417 156.455" fill="white"/>
            </g>
          </g>
        </g>
        <g id="Group_126">
          <title>t</title>
          <g id="Group_127">
            <title>Graphic_10</title>
            <g id="Graphic_128">
              <path d="M 359.0497 151.321 C 359.4457 151.321 359.8417 151.464 360.1557 151.752 C 360.8237 152.363 360.8687 153.4 360.2577 154.067 L 355.5537 159.2 C 354.9427 159.868 353.9047 159.913 353.2377 159.301 C 352.5707 158.69 352.5257 157.654 353.1367 156.987 L 357.8417 151.853 C 358.1647 151.5 358.6067 151.321 359.0497 151.321" fill="white"/>
            </g>
          </g>
        </g>
        <g id="Group_165">
          <g id="Group_159">
            <title>B</title>
            <g id="Group_160">
              <title>Graphic_32</title>
              <g id="Graphic_161">
                <path d="M 163.71953 156.07922 L 180.81384 173.17353 C 181.45306 173.81275 181.45306 174.85079 180.81313 175.49072 C 180.1732 176.13065 179.13517 176.13065 178.49594 175.49142 L 161.40164 158.39712 C 129.24596 126.24144 76.9243 126.24144 44.768615 158.39712 L 20.362825 182.8029 C 19.722893 183.44284 18.686274 183.44284 18.046343 182.8029 C 17.405704 182.16227 17.405704 181.12565 18.045636 180.48572 L 42.451426 156.07993 C 75.88485 122.6465 130.28611 122.6458 163.71953 156.07922" fill="white"/>
              </g>
            </g>
          </g>
          <g id="Group_156">
            <title>B</title>
            <g id="Group_157">
              <title>Graphic_30</title>
              <g id="Graphic_158">
                <path d="M 244.16707 236.5706 C 244.46406 236.86759 244.6479 237.2763 244.6479 237.72884 C 244.6472 238.63465 243.91393 239.36792 243.00883 239.36792 L 88.72732 239.36438 L 42.52426 239.36933 C 33.299343 239.36933 24.626678 235.77793 18.104325 229.25558 C 7.640559 218.79182 4.935169 202.93424 11.371255 189.79478 C 11.769356 188.98231 12.75082 188.64573 13.563286 189.04383 C 14.377166 189.44193 14.713041 190.4227 14.314233 191.23586 C 8.494037 203.11738 10.949112 217.46458 20.422221 226.93769 C 26.32515 232.8406 34.17474 236.0926 42.52355 236.0919 L 88.72732 236.08765 L 243.00954 236.09048 C 243.46138 236.08977 243.8708 236.27432 244.16707 236.5706" fill="white"/>
              </g>
            </g>
          </g>
          <g id="Group_153">
            <title>B</title>
            <g id="Group_154">
              <title>Graphic_28</title>
              <g id="Graphic_155">
                <path d="M 324.49864 197.34739 C 329.8479 202.69665 333.18545 210.06612 333.23353 218.18936 C 333.23636 218.6306 333.0603 219.05415 332.74563 219.36457 C 332.43167 219.6757 332.0053 219.8461 331.56335 219.83692 L 234.02645 217.9546 C 233.12206 217.9355 232.40152 217.1881 232.4192 216.2837 C 232.43688 215.37932 233.185 214.65948 234.08938 214.67716 L 329.89316 216.52766 C 328.9407 202.8006 317.4311 191.90054 303.4919 191.89984 L 208.80254 190.01681 C 207.89886 189.99843 207.17973 189.2496 207.1967 188.34592 C 207.21438 187.44011 207.9632 186.7224 208.8676 186.74008 L 303.52444 188.6231 C 311.68587 188.6231 319.1133 191.96206 324.49864 197.34739" fill="white"/>
              </g>
            </g>
          </g>
          <g id="Group_150">
            <title>B</title>
            <g id="Group_151">
              <title>Graphic_26</title>
              <g id="Graphic_152">
                <path d="M 299.21392 222.41432 C 303.41484 226.61524 306.0368 232.40362 306.07427 238.78385 C 306.0764 239.22437 305.90174 239.64793 305.58778 239.95906 C 305.27382 240.26877 304.84815 240.4399 304.40762 240.4321 L 242.97984 239.3672 C 242.07474 239.35165 241.3535 238.60636 241.36905 237.69985 C 241.3846 236.79475 242.13202 236.0742 243.0357 236.08977 L 302.71693 237.12497 C 301.8005 226.9002 293.15684 218.8406 282.7157 218.84202 L 234.02787 217.95319 C 233.12348 217.93692 232.40293 217.1895 232.4185 216.28583 C 232.43546 215.38073 233.18217 214.6609 234.08726 214.67787 L 282.7461 215.56458 C 289.1525 215.56458 294.98542 218.18582 299.21392 222.41432" fill="white"/>
              </g>
            </g>
          </g>
          <g id="Group_147">
            <title>B</title>
            <g id="Group_148">
              <title>Graphic_24</title>
              <g id="Graphic_149">
                <path d="M 220.91316 196.58654 C 231.95604 207.62943 240.27374 221.52195 244.5892 237.2968 C 244.82822 238.16937 244.31415 239.07093 243.44158 239.30993 C 242.5683 239.54823 241.66745 239.03345 241.42774 238.1616 C 230.88407 199.62498 195.56055 172.71037 155.5277 172.70967 C 119.60031 172.71037 90.36993 201.87711 90.36922 237.72813 C 90.36993 238.63394 89.63595 239.36792 88.73086 239.3665 C 87.82718 239.36792 87.09249 238.63323 87.0932 237.72884 C 87.09249 200.07046 117.79224 169.43293 155.527 169.43223 C 180.64838 169.43293 203.9836 179.657 220.91316 196.58654" fill="white"/>
              </g>
            </g>
          </g>
          <g id="Group_144">
            <title>B</title>
            <g id="Group_145">
              <title>Graphic_22</title>
              <g id="Graphic_146">
                <path d="M 33.193277 218.36967 C 34.286464 219.46286 36.06696 219.46286 37.160853 218.36897 C 38.254747 217.27507 38.25404 215.49528 37.160853 214.4021 C 36.06625 213.3075 34.28717 213.3075 33.193277 214.4014 C 32.099383 215.49528 32.098676 217.27507 33.193277 218.36967 M 39.47875 212.0842 C 41.850385 214.45584 41.84968 218.31452 39.47804 220.68615 C 37.1057 223.0585 33.247724 223.0585 30.876088 220.68686 C 28.504452 218.31523 28.503745 214.45654 30.876088 212.0842 C 33.247724 209.71256 37.107113 209.71256 39.47875 212.0842" fill="white"/>
              </g>
            </g>
          </g>
          <g id="Group_123">
            <title>B</title>
            <g id="Group_124">
              <title>Graphic_8</title>
              <g id="Graphic_125">
                <path d="M 23.025082 193.80054 C 23.414697 193.25395 24.05958 192.10278 24.295752 191.68134 C 24.43576 191.43103 24.547482 191.23445 24.61183 191.12626 C 25.955332 188.9102 25.852094 187.79155 24.111905 185.68366 C 23.07175 184.4229 21.203574 183.85296 19.382775 183.37708 C 17.327215 182.8418 15.237715 182.36026 13.148921 181.93882 C 13.204075 189.34506 14.263321 192.58785 20.694458 193.71993 C 21.026798 193.77226 22.344845 193.83024 23.025082 193.80054 M 26.179485 183.0914 C 26.33929 183.25121 26.49132 183.4188 26.638397 183.597 C 29.24833 186.75564 29.47248 189.4292 27.4148 192.82615 C 27.360353 192.91454 27.271258 193.07717 27.155292 193.28223 C 25.771484 195.75357 25.228426 196.48047 24.512834 196.81706 C 23.416112 197.33254 20.154935 196.95212 20.125237 196.94787 C 9.721575 195.11576 9.800063 187.40052 9.875017 179.93771 C 9.879966 179.45476 10.098462 178.99726 10.471815 178.69038 C 10.84446 178.38278 11.334485 178.25621 11.809661 178.34248 C 14.618289 178.85867 17.444595 179.48587 20.209382 180.20712 C 22.250093 180.73886 24.530512 181.44243 26.179485 183.0914" fill="white"/>
              </g>
            </g>
          </g>
          <g id="Group_120">
            <title>B</title>
            <g id="Group_121">
              <title>Graphic_6</title>
              <g id="Graphic_122">
                <path d="M 12.90497 178.8226 C 12.98558 178.90321 13.058411 178.99302 13.123465 179.09343 C 16.08695 183.67901 18.402725 186.43602 21.98422 189.63427 C 22.651022 190.22329 22.718197 191.27334 22.114328 191.94933 C 21.511873 192.62391 20.475962 192.6812 19.800675 192.07944 C 16.028967 188.70937 13.472069 185.67023 10.370699 180.8718 C 9.879259 180.11166 10.097048 179.09767 10.857895 178.60552 C 11.517626 178.17914 12.370397 178.28803 12.90497 178.8226" fill="white"/>
              </g>
            </g>
          </g>
          <g id="Group_117">
            <title>B</title>
            <g id="Group_118">
              <title>Graphic_4</title>
              <g id="Graphic_119">
                <path d="M 225.94069 211.32547 C 233.36248 218.74727 239.63098 227.37043 244.43082 236.94042 C 244.8374 237.75005 244.51072 238.73435 243.7018 239.14023 C 242.89286 239.5461 241.90645 239.22013 241.50199 238.40979 C 229.2563 213.9948 207.11255 195.9367 180.74808 188.8621 L 180.45958 188.78432 C 159.02222 183.03343 135.86518 187.89478 118.51773 201.78873 C 115.93679 203.8563 114.28782 206.60837 113.87487 209.53862 C 113.52273 212.0432 114.06225 214.16097 115.52384 216.01289 C 119.75941 221.3869 130.02165 222.40867 130.1256 222.41786 C 131.02433 222.502 131.68689 223.30174 131.60133 224.2033 C 131.51718 225.10486 130.71744 225.766 129.81588 225.68045 C 129.33788 225.6352 118.04892 224.49746 112.95139 218.0437 C 110.9333 215.4868 110.15266 212.4717 110.62995 209.08112 C 111.15887 205.32072 113.23281 201.82267 116.46854 199.23041 C 134.62774 184.68735 158.86737 179.599 181.30952 185.61931 L 181.59731 185.6964 C 198.5297 190.24026 213.78199 199.16677 225.94069 211.32547" fill="white"/>
              </g>
            </g>
          </g>
        </g>
      </g>
      <g id="Group_99">
        <title>Group_45</title>
        <g id="Group_114">
          <title>Graphic_37</title>
          <g id="Graphic_115">
            <path d="M 383.9919 143.81781 L 383.9919 142.84615 L 388.07287 142.84615 C 389.498 142.84615 390.68016 142.48988 391.61943 141.77733 C 392.5587 141.06477 393.02834 139.3158 393.02834 136.53036 L 393.02834 75.412955 L 386.8097 75.412955 C 381.56273 75.412955 377.7409 76.44938 375.34413 78.52227 C 372.94736 80.59515 371.58705 84.09309 371.26316 89.01619 L 370.97166 93.2915 L 370 93.2915 L 370.68016 74.4413 L 430.8259 74.4413 L 431.50607 93.2915 L 430.5344 93.2915 L 430.2429 89.01619 C 429.91903 84.09309 428.5587 80.59515 426.16194 78.52227 C 423.76517 76.44938 419.94335 75.412955 414.69636 75.412955 L 408.47773 75.412955 L 408.47773 136.53036 C 408.47773 139.3158 408.94736 141.06477 409.88664 141.77733 C 410.8259 142.48988 412.0081 142.84615 413.4332 142.84615 L 417.51417 142.84615 L 417.51417 143.81781 Z" fill="white"/>
          </g>
        </g>
        <g id="Group_112">
          <title>Graphic_38</title>
          <g id="Graphic_113">
            <path d="M 434.12955 143.81781 L 434.12955 142.84615 L 435.29555 142.84615 C 436.2672 142.84615 437.28744 142.7004 438.3563 142.4089 C 439.4251 142.1174 440.332 141.53442 441.0769 140.65992 C 441.82187 139.78542 442.19433 138.40892 442.19433 136.53036 L 442.19433 76.870445 C 442.19433 75.12145 441.80567 73.825915 441.02834 72.98381 C 440.251 72.1417 439.32794 71.59109 438.2591 71.33198 C 437.1903 71.07287 436.20243 70.94332 435.29555 70.94332 L 434.12955 70.94332 L 434.12955 69.97166 L 456.96356 69.97166 L 456.96356 89.50202 C 456.96356 91.38058 456.96356 93.24291 456.96356 95.08907 C 456.96356 96.93523 456.9312 98.79756 456.8664 100.67611 L 457.06073 100.67611 C 457.83806 97.76112 458.95546 95.57491 460.41296 94.11741 C 461.87045 92.65991 463.53845 91.68826 465.417 91.20243 C 467.29556 90.7166 469.1741 90.47368 471.05263 90.47368 C 476.75306 90.47368 480.99594 91.96355 483.7814 94.94332 C 486.5668 97.92309 487.9595 102.68418 487.9595 109.22672 L 487.9595 135.94737 C 487.9595 138.99192 488.4939 140.90283 489.56275 141.68016 C 490.6316 142.4575 492.2672 142.84615 494.46964 142.84615 L 494.76113 142.84615 L 494.76113 143.81781 L 473.1903 143.81781 L 473.1903 106.02024 C 473.1903 101.8097 472.6235 98.65183 471.4899 96.54656 C 470.35627 94.44129 468.49394 93.38866 465.90283 93.38866 C 462.4696 93.38866 460.12146 95.10525 458.8583 98.53846 C 457.59514 101.97168 456.96356 106.40888 456.96356 111.8502 L 456.96356 136.53036 C 456.96356 138.40892 457.33603 139.78542 458.08097 140.65992 C 458.8259 141.53442 459.7328 142.1174 460.8016 142.4089 C 461.87045 142.7004 462.8907 142.84615 463.86235 142.84615 L 465.02834 142.84615 L 465.02834 143.81781 Z" fill="white"/>
          </g>
        </g>
        <g id="Group_110">
          <title>Graphic_39</title>
          <g id="Graphic_111">
            <path d="M 527.5061 144.78947 C 519.085 144.78947 512.7045 142.45751 508.3644 137.79352 C 504.0243 133.12953 501.85425 126.5547 501.85425 118.06883 C 501.85425 108.93518 503.9433 102.05265 508.12146 97.42105 C 512.2996 92.78945 518.2429 90.47368 525.9514 90.47368 C 533.0122 90.47368 538.5668 92.44937 542.6154 96.40081 C 546.664 100.35225 548.68826 106.18215 548.68826 113.89069 L 548.68826 116.22267 L 516.8178 116.22267 C 516.8178 126.06888 517.82185 133.11334 519.82996 137.35628 C 521.8381 141.59921 525.1417 143.72065 529.7409 143.72065 C 533.1093 143.72065 536.0081 142.60325 538.43725 140.36842 C 540.8664 138.1336 542.40486 134.36035 543.0526 129.04858 C 544.3482 129.3077 545.27125 129.8583 545.82186 130.7004 C 546.3725 131.54251 546.6478 132.51416 546.6478 133.61538 C 546.6478 135.49394 545.9352 137.2753 544.5101 138.95951 C 543.085 140.64373 540.9636 142.03643 538.14575 143.13765 C 535.3279 144.23887 531.7814 144.78947 527.5061 144.78947 Z M 516.8178 115.25101 L 533.919 115.25101 C 533.919 109.42102 533.6923 104.7571 533.2389 101.25911 C 532.7854 97.76112 531.9757 95.25102 530.8097 93.72874 C 529.6437 92.20647 528.0243 91.44534 525.9514 91.44534 C 522.7773 91.44534 520.47774 93.21051 519.0526 96.74089 C 517.6275 100.27127 516.8826 106.44125 516.8178 115.25101 Z" fill="white"/>
          </g>
        </g>
        <g id="Group_108">
          <title>Graphic_40</title>
          <g id="Graphic_109">
            <path d="M 577.3522 143.81781 L 577.3522 142.84615 L 581.4332 142.84615 C 582.7935 142.84615 583.9595 142.52227 584.9312 141.8745 C 585.90284 141.22672 586.38866 139.6073 586.38866 137.0162 L 586.38866 81.728745 C 586.38866 78.94331 585.919 77.19434 584.97976 76.48178 C 584.0405 75.76923 582.8583 75.412955 581.4332 75.412955 L 577.3522 75.412955 L 577.3522 74.4413 L 631.085 74.4413 L 631.668 92.31984 L 630.69636 92.31984 L 630.40486 89.01619 C 629.9514 84.09309 628.5425 80.59515 626.17814 78.52227 C 623.81375 76.44938 620.0405 75.412955 614.8583 75.412955 L 601.83806 75.412955 L 601.83806 107.08907 L 624.8664 107.08907 L 624.8664 108.06073 L 601.83806 108.06073 L 601.83806 136.53036 C 601.83806 139.3158 602.3077 141.06477 603.24696 141.77733 C 604.18624 142.48988 605.3684 142.84615 606.7935 142.84615 L 612.8178 142.84615 L 612.8178 143.81781 Z" fill="white"/>
          </g>
        </g>
        <g id="Group_106">
          <title>Graphic_41</title>
          <g id="Graphic_107">
            <path d="M 651.58704 82.9919 C 649.7085 82.9919 648.1053 82.42511 646.7773 81.2915 C 645.4494 80.15789 644.7854 78.39272 644.7854 75.99595 C 644.7854 73.5344 645.4494 71.75304 646.7773 70.65182 C 648.1053 69.5506 649.7085 69 651.58704 69 C 653.4656 69 655.085 69.5506 656.44534 70.65182 C 657.8057 71.75304 658.4858 73.5344 658.4858 75.99595 C 658.4858 78.39272 657.8057 80.15789 656.44534 81.2915 C 655.085 82.42511 653.4656 82.9919 651.58704 82.9919 Z M 636.6235 143.81781 L 636.6235 142.84615 L 637.7895 142.84615 C 638.76114 142.84615 639.7814 142.7004 640.8502 142.4089 C 641.919 142.1174 642.8259 141.53442 643.57085 140.65992 C 644.3158 139.78542 644.68826 138.40892 644.68826 136.53036 L 644.68826 98.63563 C 644.68826 96.88663 644.2996 95.5911 643.5223 94.74899 C 642.7449 93.90688 641.8219 93.35628 640.753 93.09717 C 639.6842 92.83806 638.69636 92.7085 637.7895 92.7085 L 636.6235 92.7085 L 636.6235 91.73684 L 659.4575 91.73684 L 659.4575 136.53036 C 659.4575 138.40892 659.82996 139.78542 660.5749 140.65992 C 661.31984 141.53442 662.2267 142.1174 663.29555 142.4089 C 664.3644 142.7004 665.3846 142.84615 666.3563 142.84615 L 667.5223 142.84615 L 667.5223 143.81781 Z" fill="white"/>
          </g>
        </g>
        <g id="Group_104">
          <title>Graphic_42</title>
          <g id="Graphic_105">
            <path d="M 670.8259 143.81781 L 670.8259 142.84615 L 671.9919 142.84615 C 672.9636 142.84615 673.9838 142.7004 675.0526 142.4089 C 676.1215 142.1174 677.0283 141.53442 677.7733 140.65992 C 678.5182 139.78542 678.8907 138.40892 678.8907 136.53036 L 678.8907 98.63563 C 678.8907 96.88663 678.502 95.5911 677.7247 94.74899 C 676.9474 93.90688 676.0243 93.35628 674.9555 93.09717 C 673.8866 92.83806 672.8988 92.7085 671.9919 92.7085 L 670.8259 92.7085 L 670.8259 91.73684 L 693.6599 91.73684 L 693.6599 100.57895 L 693.85425 100.57895 C 694.6316 97.66395 695.7328 95.49393 697.1579 94.06883 C 698.583 92.64372 700.2348 91.68826 702.1134 91.20243 C 703.9919 90.7166 705.8704 90.47368 707.749 90.47368 C 713.4494 90.47368 717.6923 91.96355 720.4777 94.94332 C 723.2632 97.92309 724.6559 102.68418 724.6559 109.22672 L 724.6559 135.94737 C 724.6559 138.99192 725.1903 140.90283 726.2591 141.68016 C 727.3279 142.4575 728.96355 142.84615 731.166 142.84615 L 731.4575 142.84615 L 731.4575 143.81781 L 709.8866 143.81781 L 709.8866 106.02024 C 709.8866 101.8097 709.3198 98.65183 708.1862 96.54656 C 707.0526 94.44129 705.1903 93.38866 702.5992 93.38866 C 699.166 93.38866 696.8178 95.10525 695.5547 98.53846 C 694.2915 101.97168 693.6599 106.40888 693.6599 111.8502 L 693.6599 136.53036 C 693.6599 138.40892 694.0324 139.78542 694.7773 140.65992 C 695.5223 141.53442 696.4291 142.1174 697.498 142.4089 C 698.5668 142.7004 699.587 142.84615 700.5587 142.84615 L 701.7247 142.84615 L 701.7247 143.81781 Z" fill="white"/>
          </g>
        </g>
        <g id="Group_102">
          <title>Graphic_43</title>
          <g id="Graphic_103">
            <path d="M 762.7449 144.78947 C 757.9514 144.78947 753.7247 143.93118 750.0648 142.21457 C 746.4048 140.49797 743.5709 137.68018 741.56275 133.76113 C 739.55465 129.84209 738.5506 124.57898 738.5506 117.97166 C 738.5506 110.97567 739.587 105.48585 741.6599 101.50202 C 743.7328 97.5182 746.5992 94.68422 750.2591 93 C 753.91905 91.31578 758.1133 90.47368 762.8421 90.47368 C 768.7369 90.47368 773.336 91.44533 776.6397 93.38866 C 779.9433 95.33199 781.5951 97.85828 781.5951 100.96761 C 781.5951 102.19839 781.2551 103.42914 780.5749 104.65992 C 779.8947 105.8907 778.6478 106.91093 776.834 107.72065 C 775.0202 108.53037 772.4292 108.93522 769.0607 108.93522 C 769.0607 104.46556 768.8502 100.96762 768.42915 98.4413 C 768.0081 95.91497 767.31175 94.11741 766.3401 93.04858 C 765.3684 91.97975 764.0081 91.44534 762.2591 91.44534 C 760.12145 91.44534 758.4049 92.25505 757.1093 93.87449 C 755.8138 95.49394 754.8907 98.23075 754.3401 102.08502 C 753.7895 105.93929 753.5142 111.2024 753.5142 117.8745 C 753.5142 127.20248 754.4372 133.84209 756.2834 137.79352 C 758.1296 141.74496 761.22265 143.72065 765.56275 143.72065 C 768.9312 143.72065 771.7976 142.63564 774.1619 140.46559 C 776.5263 138.29554 778.0324 134.5223 778.6802 129.14575 C 779.7166 129.46964 780.5263 130.08502 781.1093 130.9919 C 781.6923 131.89879 781.9838 132.93522 781.9838 134.10121 C 781.9838 135.72066 781.30365 137.35627 779.9433 139.0081 C 778.583 140.65993 776.4939 142.03643 773.6761 143.13765 C 770.8583 144.23887 767.2146 144.78947 762.7449 144.78947 Z" fill="white"/>
          </g>
        </g>
        <g id="Group_100">
          <title>Graphic_44</title>
          <g id="Graphic_101">
            <path d="M 786.8421 143.81781 L 786.8421 142.84615 L 788.0081 142.84615 C 788.9798 142.84615 790 142.7004 791.0688 142.4089 C 792.1377 142.1174 793.0445 141.53442 793.7895 140.65992 C 794.5344 139.78542 794.9069 138.40892 794.9069 136.53036 L 794.9069 76.870445 C 794.9069 75.12145 794.5182 73.825915 793.7409 72.98381 C 792.9636 72.1417 792.0405 71.59109 790.9717 71.33198 C 789.9028 71.07287 788.915 70.94332 788.0081 70.94332 L 786.8421 70.94332 L 786.8421 69.97166 L 809.6761 69.97166 L 809.6761 89.50202 C 809.6761 91.38058 809.6761 93.24291 809.6761 95.08907 C 809.6761 96.93523 809.6437 98.79756 809.5789 100.67611 L 809.7733 100.67611 C 810.5506 97.76112 811.668 95.57491 813.1255 94.11741 C 814.583 92.65991 816.251 91.68826 818.1296 91.20243 C 820.0081 90.7166 821.8866 90.47368 823.7652 90.47368 C 829.4656 90.47368 833.7085 91.96355 836.4939 94.94332 C 839.2794 97.92309 840.6721 102.68418 840.6721 109.22672 L 840.6721 135.94737 C 840.6721 138.99192 841.2065 140.90283 842.2753 141.68016 C 843.3441 142.4575 844.9797 142.84615 847.1822 142.84615 L 847.4737 142.84615 L 847.4737 143.81781 L 825.9028 143.81781 L 825.9028 106.02024 C 825.9028 101.8097 825.336 98.65183 824.2024 96.54656 C 823.0688 94.44129 821.2065 93.38866 818.6154 93.38866 C 815.1822 93.38866 812.834 95.10525 811.57085 98.53846 C 810.3077 101.97168 809.6761 106.40888 809.6761 111.8502 L 809.6761 136.53036 C 809.6761 138.40892 810.0486 139.78542 810.7935 140.65992 C 811.5385 141.53442 812.4453 142.1174 813.5142 142.4089 C 814.583 142.7004 815.6032 142.84615 816.5749 142.84615 L 817.7409 142.84615 L 817.7409 143.81781 Z" fill="white"/>
          </g>
        </g>
      </g>
    </g>

    <g id="wordmark-large" style="">
      <title>Layer 1</title>
      <g id="Group_5">
        <title>wordmark-large--text</title>
        <g id="Group_27">
          <title>Group_19</title>
          <g id="Group_28">
            <title>Graphic_20</title>
            <g id="Graphic_29">
              <path d="M 258.0951 131.74321 L 258.0951 130.50232 L 263.30685 130.50232 C 265.12686 130.50232 266.63658 130.04733 267.8361 129.13735 C 269.03563 128.22735 269.6354 125.99377 269.6354 122.43653 L 269.6354 44.38451 L 261.69368 44.38451 C 254.99286 44.38451 250.11206 45.70811 247.0512 48.355365 C 243.9903 51.002605 242.25308 55.469766 241.83945 61.756975 L 241.46718 67.2169 L 240.2263 67.2169 L 241.0949 43.14362 L 317.90603 43.14362 L 318.77467 67.2169 L 317.53376 67.2169 L 317.1615 61.756975 C 316.7479 55.469766 315.01063 51.002605 311.94977 48.355365 C 308.8889 45.70811 304.0081 44.38451 297.30727 44.38451 L 289.36556 44.38451 L 289.36556 122.43653 C 289.36556 125.99377 289.9653 128.22735 291.16485 129.13735 C 292.36437 130.04733 293.87413 130.50232 295.6941 130.50232 L 300.90584 130.50232 L 300.90584 131.74321 Z" fill="white"/>
            </g>
          </g>
        </g>
        <g id="Group_24">
          <title>Group_17</title>
          <g id="Group_25">
            <title>Graphic_18</title>
            <g id="Graphic_26">
              <path d="M 322.12507 131.74321 L 322.12507 130.50232 L 323.61415 130.50232 C 324.85503 130.50232 326.15796 130.31619 327.523 129.94392 C 328.88793 129.57165 330.0461 128.82713 330.9974 127.71032 C 331.9488 126.59351 332.42447 124.83561 332.42447 122.43653 L 332.42447 46.245847 C 332.42447 44.012234 331.9281 42.35773 330.9354 41.28229 C 329.94267 40.206845 328.76385 39.503675 327.39885 39.172765 C 326.0339 38.84186 324.7723 38.676414 323.61415 38.676414 L 322.12507 38.676414 L 322.12507 37.435523 L 351.286 37.435523 L 351.286 62.37742 C 351.286 64.7765 351.286 67.15485 351.286 69.51255 C 351.286 71.87025 351.2447 74.2486 351.1619 76.647665 L 351.4101 76.647665 C 352.4028 72.92498 353.82983 70.13301 355.69117 68.27166 C 357.5525 66.41031 359.6827 65.16943 362.08175 64.548986 C 364.48083 63.92854 366.8799 63.61831 369.2789 63.61831 C 376.55884 63.61831 381.97736 65.521 385.5346 69.32641 C 389.0918 73.13183 390.8704 79.21214 390.8704 87.56751 L 390.8704 121.692 C 390.8704 125.58015 391.5529 128.02054 392.9179 129.01325 C 394.2829 130.00598 396.3717 130.50232 399.1844 130.50232 L 399.55665 130.50232 L 399.55665 131.74321 L 372.0089 131.74321 L 372.0089 83.47256 C 372.0089 78.09535 371.28505 74.06249 369.83735 71.37389 C 368.3896 68.68528 366.01126 67.34098 362.7022 67.34098 C 358.3177 67.34098 355.3189 69.53321 353.70574 73.91771 C 352.0926 78.30222 351.286 83.96889 351.286 90.91791 L 351.286 122.43653 C 351.286 124.83561 351.7617 126.59351 352.71303 127.71032 C 353.66437 128.82713 354.82255 129.57165 356.1875 129.94392 C 357.5525 130.31619 358.85546 130.50232 360.09633 130.50232 L 361.5854 130.50232 L 361.5854 131.74321 Z" fill="white"/>
            </g>
          </g>
        </g>
        <g id="Group_21">
          <title>Group_15</title>
          <g id="Group_22">
            <title>Graphic_16</title>
            <g id="Graphic_23">
              <path d="M 441.3747 132.9841 C 430.62026 132.9841 422.47183 130.006 416.92916 124.04969 C 411.38645 118.09339 408.61516 109.69678 408.61516 98.85962 C 408.61516 87.19519 411.28305 78.40562 416.6189 72.49068 C 421.95474 66.57574 429.54483 63.61831 439.3892 63.61831 C 448.40646 63.61831 455.50014 66.14143 460.67054 71.18775 C 465.84094 76.23407 468.4261 83.67934 468.4261 93.52379 L 468.4261 96.50192 L 427.72486 96.50192 C 427.72486 109.07635 429.0071 118.07271 431.57164 123.4913 C 434.13616 128.90987 438.35517 131.61913 444.22873 131.61913 C 448.53046 131.61913 452.23247 130.19212 455.3347 127.33805 C 458.4369 124.484 460.40166 119.66525 461.2289 112.88167 C 462.88347 113.21259 464.0623 113.91575 464.76546 114.99119 C 465.46867 116.06663 465.82025 117.30751 465.82025 118.71386 C 465.82025 121.11294 464.9102 123.38788 463.09023 125.53876 C 461.27026 127.68965 458.56106 129.46824 454.9624 130.87459 C 451.3638 132.28094 446.8346 132.9841 441.3747 132.9841 Z M 427.72486 95.26103 L 449.5645 95.26103 C 449.5645 87.81564 449.275 81.85943 448.69593 77.392205 C 448.1168 72.92498 447.08276 69.71937 445.5937 67.775295 C 444.1046 65.83123 442.0365 64.8592 439.3892 64.8592 C 435.33563 64.8592 432.3989 67.11347 430.5789 71.62206 C 428.7589 76.13065 427.8076 84.01023 427.72486 95.26103 Z" fill="white"/>
            </g>
          </g>
        </g>
        <g id="Group_18">
          <title>Group_13</title>
          <g id="Group_19">
            <title>Graphic_14</title>
            <g id="Graphic_20">
              <path d="M 505.0323 131.74321 L 505.0323 130.50232 L 510.2441 130.50232 C 511.9813 130.50232 513.4704 130.0887 514.71135 129.26144 C 515.9522 128.43417 516.57264 126.36604 516.57264 123.05699 L 516.57264 52.4503 C 516.57264 48.89307 515.97285 46.65949 514.77336 45.74949 C 513.57385 44.839503 512.0641 44.38451 510.2441 44.38451 L 505.0323 44.38451 L 505.0323 43.14362 L 573.6536 43.14362 L 574.3981 65.97601 L 573.1573 65.97601 L 572.785 61.756975 C 572.2059 55.469766 570.4066 51.002605 567.3871 48.355365 C 564.3676 45.70811 559.54885 44.38451 552.93075 44.38451 L 536.3028 44.38451 L 536.3028 84.83755 L 565.7119 84.83755 L 565.7119 86.07844 L 536.3028 86.07844 L 536.3028 122.43653 C 536.3028 125.99377 536.9026 128.22735 538.1021 129.13735 C 539.30164 130.04733 540.81135 130.50232 542.6313 130.50232 L 550.32486 130.50232 L 550.32486 131.74321 Z" fill="white"/>
            </g>
          </g>
        </g>
        <g id="Group_15">
          <title>Group_11</title>
          <g id="Group_16">
            <title>Graphic_12</title>
            <g id="Graphic_17">
              <path d="M 599.8364 54.063455 C 597.43736 54.063455 595.38994 53.33962 593.694 51.8919 C 591.9981 50.44419 591.15015 48.18992 591.15015 45.129044 C 591.15015 41.98544 591.9981 39.710494 593.694 38.304144 C 595.38994 36.897795 597.43736 36.194633 599.8364 36.194633 C 602.2355 36.194633 604.3036 36.897795 606.04086 38.304144 C 607.77816 39.710494 608.6467 41.98544 608.6467 45.129044 C 608.6467 48.18992 607.77816 50.44419 606.04086 51.8919 C 604.3036 53.33962 602.2355 54.063455 599.8364 54.063455 Z M 580.7267 131.74321 L 580.7267 130.50232 L 582.2158 130.50232 C 583.4567 130.50232 584.7596 130.31619 586.1246 129.94392 C 587.4895 129.57165 588.6477 128.82713 589.5991 127.71032 C 590.5504 126.59351 591.0261 124.83561 591.0261 122.43653 L 591.0261 74.0418 C 591.0261 71.80818 590.52974 70.15368 589.53706 69.07824 C 588.54426 68.00279 587.3655 67.29963 586.00044 66.96873 C 584.6355 66.63782 583.37394 66.47236 582.2158 66.47236 L 580.7267 66.47236 L 580.7267 65.23147 L 609.88764 65.23147 L 609.88764 122.43653 C 609.88764 124.83561 610.3633 126.59351 611.31465 127.71032 C 612.266 128.82713 613.42414 129.57165 614.78915 129.94392 C 616.15416 130.31619 617.45704 130.50232 618.698 130.50232 L 620.1871 130.50232 L 620.1871 131.74321 Z" fill="white"/>
            </g>
          </g>
        </g>
        <g id="Group_12">
          <title>Group_9</title>
          <g id="Group_13">
            <title>Graphic_10</title>
            <g id="Graphic_14">
              <path d="M 624.406 131.74321 L 624.406 130.50232 L 625.8951 130.50232 C 627.13606 130.50232 628.43894 130.31619 629.8039 129.94392 C 631.16896 129.57165 632.327 128.82713 633.27845 127.71032 C 634.22974 126.59351 634.70546 124.83561 634.70546 122.43653 L 634.70546 74.0418 C 634.70546 71.80818 634.20906 70.15368 633.2164 69.07824 C 632.2237 68.00279 631.0448 67.29963 629.6799 66.96873 C 628.3148 66.63782 627.0533 66.47236 625.8951 66.47236 L 624.406 66.47236 L 624.406 65.23147 L 653.56696 65.23147 L 653.56696 76.52358 L 653.81516 76.52358 C 654.8079 72.80089 656.2142 70.02959 658.0342 68.20962 C 659.8542 66.38963 661.96365 65.16943 664.3628 64.548986 C 666.7618 63.92854 669.1608 63.61831 671.5599 63.61831 C 678.8398 63.61831 684.2583 65.521 687.8155 69.32641 C 691.3728 73.13183 693.1514 79.21214 693.1514 87.56751 L 693.1514 121.692 C 693.1514 125.58015 693.8339 128.02054 695.19885 129.01325 C 696.5638 130.00598 698.6527 130.50232 701.4654 130.50232 L 701.8376 130.50232 L 701.8376 131.74321 L 674.2898 131.74321 L 674.2898 83.47256 C 674.2898 78.09535 673.566 74.06249 672.11825 71.37389 C 670.67055 68.68528 668.2922 67.34098 664.9832 67.34098 C 660.5987 67.34098 657.59986 69.53321 655.9867 73.91771 C 654.3736 78.30222 653.56696 83.96889 653.56696 90.91791 L 653.56696 122.43653 C 653.56696 124.83561 654.0427 126.59351 654.994 127.71032 C 655.9454 128.82713 657.1035 129.57165 658.4685 129.94392 C 659.8335 130.31619 661.13636 130.50232 662.3773 130.50232 L 663.8664 130.50232 L 663.8664 131.74321 Z" fill="white"/>
            </g>
          </g>
        </g>
        <g id="Group_9">
          <title>Group_7</title>
          <g id="Group_10">
            <title>Graphic_8</title>
            <g id="Graphic_11">
              <path d="M 741.7943 132.9841 C 735.6726 132.9841 730.2747 131.888 725.6007 129.69574 C 720.9266 127.5035 717.3075 123.90495 714.7429 118.9 C 712.1784 113.89505 710.8961 107.17362 710.8961 98.73552 C 710.8961 89.80106 712.2197 82.7901 714.867 77.70242 C 717.5142 72.61475 721.1749 68.99552 725.84885 66.84463 C 730.5229 64.69374 735.8793 63.61831 741.9184 63.61831 C 749.4465 63.61831 755.32 64.85919 759.5391 67.34098 C 763.75805 69.82278 765.8675 73.04906 765.8675 77.019935 C 765.8675 78.59174 765.4333 80.16351 764.5647 81.73532 C 763.696 83.30713 762.1036 84.61005 759.7872 85.64413 C 757.4708 86.67821 754.1619 87.19524 749.8601 87.19524 C 749.8601 81.48711 749.5912 77.01995 749.0535 73.79363 C 748.5158 70.56729 747.6265 68.27166 746.3856 66.90667 C 745.1447 65.54169 743.4075 64.8592 741.17385 64.8592 C 738.4439 64.8592 736.2517 65.89327 734.5971 67.96143 C 732.9427 70.0296 731.7638 73.52474 731.0606 78.44696 C 730.3575 83.36918 730.0059 90.09061 730.0059 98.61144 C 730.0059 110.52405 731.1846 119.00339 733.5424 124.04969 C 735.9001 129.09601 739.8502 131.61913 745.3929 131.61913 C 749.6947 131.61913 753.3553 130.23348 756.3747 127.46215 C 759.3943 124.69081 761.3177 119.87207 762.145 113.00577 C 763.4685 113.4194 764.5026 114.2053 765.2471 115.36346 C 765.9917 116.52163 766.3639 117.84524 766.3639 119.3343 C 766.3639 121.40248 765.4953 123.49129 763.75805 125.60081 C 762.0208 127.71034 759.3529 129.46824 755.7543 130.87459 C 752.15575 132.28094 747.5024 132.9841 741.7943 132.9841 Z" fill="white"/>
            </g>
          </g>
        </g>
        <g id="Group_6">
          <title>Group_5</title>
          <g id="Group_7">
            <title>Graphic_6</title>
            <g id="Graphic_8">
              <path d="M 772.5684 131.74321 L 772.5684 130.50232 L 774.0575 130.50232 C 775.2984 130.50232 776.6013 130.31619 777.9662 129.94392 C 779.3313 129.57165 780.4894 128.82713 781.4408 127.71032 C 782.3921 126.59351 782.8678 124.83561 782.8678 122.43653 L 782.8678 46.245847 C 782.8678 44.012234 782.3714 42.35773 781.3787 41.28229 C 780.3861 40.206845 779.2072 39.503675 777.8422 39.172765 C 776.4772 38.84186 775.2157 38.676414 774.0575 38.676414 L 772.5684 38.676414 L 772.5684 37.435523 L 801.7293 37.435523 L 801.7293 62.37742 C 801.7293 64.7765 801.7293 67.15485 801.7293 69.51255 C 801.7293 71.87025 801.6879 74.2486 801.6052 76.647665 L 801.8534 76.647665 C 802.8461 72.92498 804.2731 70.13301 806.1345 68.27166 C 807.9958 66.41031 810.126 65.16943 812.5251 64.548986 C 814.9241 63.92854 817.3231 63.61831 819.7223 63.61831 C 827.0022 63.61831 832.4207 65.521 835.9779 69.32641 C 839.5352 73.13183 841.3138 79.21214 841.3138 87.56751 L 841.3138 121.692 C 841.3138 125.58015 841.9963 128.02054 843.3612 129.01325 C 844.7262 130.00598 846.815 130.50232 849.6277 130.50232 L 850 130.50232 L 850 131.74321 L 822.4522 131.74321 L 822.4522 83.47256 C 822.4522 78.09535 821.7283 74.06249 820.2806 71.37389 C 818.8329 68.68528 816.4546 67.34098 813.1455 67.34098 C 808.7611 67.34098 805.7622 69.53321 804.1491 73.91771 C 802.5359 78.30222 801.7293 83.96889 801.7293 90.91791 L 801.7293 122.43653 C 801.7293 124.83561 802.205 126.59351 803.1563 127.71032 C 804.1078 128.82713 805.2658 129.57165 806.6309 129.94392 C 807.9958 130.31619 809.2987 130.50232 810.5397 130.50232 L 812.0287 130.50232 L 812.0287 131.74321 Z" fill="white"/>
            </g>
          </g>
        </g>
      </g>
      <g id="Group_30">
        <title>wordmark-large--shape</title>
        <g id="Group_95">
          <title>Branch</title>
          <g id="Group_91">
            <title>Leaf</title>
            <g id="Group_92">
              <title>Group_68</title>
              <g id="Group_93">
                <title>Graphic_69</title>
                <g id="Graphic_94">
                  <path d="M 143.5156 159.25388 L 143.5156 162.96452 C 143.5156 169.16385 148.5601 174.20903 154.76011 174.20903 L 158.47144 174.20903 L 158.47144 170.49838 C 158.47144 164.2977 153.42626 159.25388 147.22625 159.25388 L 143.5156 159.25388 M 159.58219 176.4312 L 154.76011 176.4312 C 147.33475 176.4312 141.29342 170.3899 141.29342 162.96452 L 141.29342 158.14245 C 141.29342 157.52875 141.79116 157.0317 142.40417 157.0317 L 147.22625 157.0317 C 154.6523 157.0317 160.69362 163.07302 160.69362 170.49838 L 160.69362 175.31978 C 160.69362 175.93348 160.19588 176.4312 159.58219 176.4312" fill="white"/>
                </g>
              </g>
            </g>
          </g>
          <g id="Group_63">
            <title>Branch</title>
            <g id="Group_64">
              <title>Group_47</title>
              <g id="Group_65">
                <title>Graphic_48</title>
                <g id="Graphic_66">
                  <rect x="93.88571" y="144.27838" width="756.1143" height="2.2228615" fill="white"/>
                </g>
              </g>
            </g>
          </g>
          <g id="Group_59">
            <title>Twig</title>
            <g id="Group_60">
              <title>Group_44</title>
              <g id="Group_61">
                <title>Graphic_45</title>
                <g id="Graphic_62">
                  <path d="M 142.4035 159.25388 C 142.14853 159.25388 141.89288 159.1664 141.68334 158.98806 L 126.72886 146.23542 C 126.26164 145.83737 126.20604 145.13552 126.60409 144.66898 C 127.00214 144.20176 127.70332 144.14615 128.17122 144.5442 L 143.12501 157.29684 C 143.59223 157.69557 143.64784 158.39606 143.24978 158.86396 C 143.03008 159.12165 142.71814 159.25388 142.4035 159.25388" fill="white"/>
                </g>
              </g>
            </g>
          </g>
          <g id="Group_55">
            <title>Leaf</title>
            <g id="Group_56">
              <title>Group_41</title>
              <g id="Group_57">
                <title>Graphic_42</title>
                <g id="Graphic_58">
                  <path d="M 183.17856 154.49622 C 182.3438 157.38092 182.6815 160.41888 184.12996 163.04929 C 185.57977 165.68038 187.96673 167.58927 190.85144 168.4247 L 194.4156 169.4568 L 195.44838 165.89263 C 197.17283 159.93674 193.7307 153.68927 187.77483 151.96414 L 184.21065 150.93205 L 183.17856 154.49622 M 195.17374 171.9448 C 195.07202 171.9448 194.96827 171.93056 194.86452 171.90073 L 190.233 170.55874 C 186.77868 169.5592 183.91974 167.27327 182.18377 164.12207 C 180.44847 160.97154 180.04364 157.33346 181.04453 153.87778 L 182.38517 149.24558 C 182.46722 148.96348 182.65845 148.7241 182.9168 148.5817 C 183.17382 148.4393 183.47897 148.40607 183.76174 148.48812 L 188.3926 149.82943 C 195.52568 151.89497 199.64795 159.37797 197.5824 166.51107 L 196.2411 171.1426 C 196.10073 171.6288 195.65588 171.9448 195.17374 171.9448" fill="white"/>
                </g>
              </g>
            </g>
          </g>
          <g id="Group_51">
            <title>Twig</title>
            <g id="Group_52">
              <title>Group_38</title>
              <g id="Group_53">
                <title>Graphic_39</title>
                <g id="Graphic_54">
                  <path d="M 183.4566 150.66487 C 183.0592 150.66487 182.67608 150.45194 182.47536 150.07762 L 180.24843 145.914 C 179.95887 145.37286 180.16298 144.6995 180.70412 144.40994 C 181.2466 144.12038 181.91862 144.32517 182.20818 144.86563 L 184.4351 149.02926 C 184.72466 149.5704 184.52055 150.24376 183.97942 150.53332 C 183.8126 150.62283 183.6329 150.66487 183.4566 150.66487" fill="white"/>
                </g>
              </g>
            </g>
          </g>
          <g id="Group_47">
            <title>Leaf</title>
            <g id="Group_48">
              <title>Group_35</title>
              <g id="Group_49">
                <title>Graphic_36</title>
                <g id="Graphic_50">
                  <path d="M 199.56182 124.96973 L 195.8566 125.17723 C 192.85798 125.34473 190.10415 126.67044 188.10236 128.90958 C 186.10056 131.14872 185.09085 134.03342 185.25834 137.03204 L 185.46584 140.73659 L 189.1704 140.52908 C 192.1697 140.36159 194.92352 139.03655 196.92463 136.79674 C 198.92643 134.55828 199.93682 131.67358 199.76933 128.67427 L 199.56182 124.96973 M 184.41816 143.0198 C 184.14623 143.0198 183.88245 142.92012 183.67765 142.73703 C 183.45795 142.54105 183.3257 142.26506 183.30876 141.97076 L 183.03955 137.15682 C 182.83815 133.56484 184.0479 130.11052 186.44504 127.4279 C 188.84286 124.74663 192.1419 123.15916 195.7332 122.95776 L 200.54713 122.68855 C 200.84346 122.67228 201.1303 122.77332 201.35 122.96929 C 201.56972 123.16595 201.70196 123.44126 201.7189 123.73556 L 201.98812 128.55018 C 202.18884 132.14216 200.9791 135.59647 198.58263 138.27842 C 196.1848 140.96037 192.88646 142.54783 189.29448 142.74856 L 184.48054 143.01844 C 184.45952 143.01912 184.43918 143.0198 184.41816 143.0198" fill="white"/>
                </g>
              </g>
            </g>
          </g>
          <g id="Group_43">
            <title>Twig</title>
            <g id="Group_44">
              <title>Group_32</title>
              <g id="Group_45">
                <title>Graphic_33</title>
                <g id="Graphic_46">
                  <path d="M 181.2256 146.50124 C 180.95706 146.50124 180.68852 146.40427 180.4756 146.20898 C 180.0226 145.79465 179.9921 145.09144 180.40643 144.63914 L 183.59628 141.15838 C 184.0106 140.7054 184.7145 140.67488 185.1668 141.08989 C 185.6191 141.50421 185.6496 142.20674 185.2353 142.65904 L 182.04475 146.14049 C 181.82572 146.37986 181.526 146.50124 181.2256 146.50124" fill="white"/>
                </g>
              </g>
            </g>
          </g>
        </g>
        <g id="Group_96">
          <title>Bird</title>
          <g id="Group_87">
            <title>Chest</title>
            <g id="Group_88">
              <title>Group_65</title>
              <g id="Group_89">
                <title>Graphic_66</title>
                <g id="Graphic_90">
                  <path d="M 118.47997 183.81812 L 130.07187 195.41002 C 130.50534 195.8435 130.50534 196.5474 130.0714 196.98135 C 129.63745 197.4153 128.93354 197.4153 128.50007 196.98182 L 116.90817 185.38992 C 95.10291 163.58466 59.6228 163.58467 37.817545 185.38992 L 21.267612 201.93986 C 20.83366 202.3738 20.130715 202.3738 19.696763 201.93985 C 19.262338 201.50543 19.262335 200.80248 19.696287 200.36853 L 36.24622 183.8186 C 58.91793 161.14689 95.80826 161.1464 118.47997 183.81812" fill="white"/>
                </g>
              </g>
            </g>
          </g>
          <g id="Group_83">
            <title>Body</title>
            <g id="Group_84">
              <title>Group_62</title>
              <g id="Group_85">
                <title>Graphic_63</title>
                <g id="Graphic_86">
                  <path d="M 173.03266 238.40054 C 173.23405 238.60193 173.35872 238.87908 173.35872 239.18596 C 173.35824 239.8002 172.861 240.29745 172.24724 240.29744 L 67.626615 240.29505 L 36.29561 240.2984 C 30.040053 240.2984 24.15899 237.86303 19.736088 233.44012 C 12.640448 226.34448 10.805875 215.5912 15.170287 206.68115 C 15.440243 206.1302 16.10579 205.90196 16.656739 206.17192 C 17.208635 206.44188 17.436402 207.10695 17.165969 207.65837 C 13.219203 215.7154 14.884029 225.44446 21.30789 231.86832 C 25.31075 235.87118 30.633673 238.0764 36.295133 238.07593 L 67.62661 238.07304 L 172.24772 238.07497 C 172.55412 238.07448 172.83175 238.19963 173.03266 238.40054" fill="white"/>
                </g>
              </g>
            </g>
          </g>
          <g id="Group_79">
            <title>Tail</title>
            <g id="Group_80">
              <title>Group_59</title>
              <g id="Group_81">
                <title>Graphic_60</title>
                <g id="Graphic_82">
                  <path d="M 227.50672 211.80269 C 231.13414 215.4301 233.39738 220.42745 233.42998 225.93595 C 233.4319 226.23516 233.3125 226.52237 233.09913 226.73288 C 232.88623 226.94386 232.5971 227.05941 232.2974 227.05318 L 166.15615 225.77675 C 165.54287 225.7638 165.05427 225.25697 165.06625 224.6437 C 165.07824 224.0304 165.58555 223.54228 166.19883 223.55427 L 231.16483 224.80912 C 230.51894 215.5006 222.71412 208.1091 213.26174 208.10863 L 149.05143 206.83171 C 148.43863 206.81925 147.95098 206.31146 147.96249 205.69866 C 147.97448 205.08441 148.48227 204.59772 149.09555 204.6097 L 213.2838 205.88662 C 218.81819 205.88662 223.85485 208.15082 227.50672 211.80269" fill="white"/>
                </g>
              </g>
            </g>
          </g>
          <g id="Group_75">
            <title>Tail (top)</title>
            <g id="Group_76">
              <title>Group_56</title>
              <g id="Group_77">
                <title>Graphic_57</title>
                <g id="Graphic_78">
                  <path d="M 210.36076 228.80096 C 213.20947 231.64967 214.98746 235.57486 215.01287 239.90139 C 215.01432 240.2001 214.89588 240.48733 214.68298 240.6983 C 214.47008 240.90833 214.18141 241.02437 213.8827 241.0191 L 172.22758 240.29696 C 171.61382 240.28642 171.12473 239.78102 171.13528 239.1663 C 171.14583 238.55254 171.65266 238.06393 172.26546 238.0745 L 212.73621 238.77647 C 212.11478 231.8429 206.25337 226.37757 199.17307 226.37853 L 166.15712 225.7758 C 165.54383 225.76477 165.05523 225.25793 165.06577 224.64513 C 165.07728 224.03137 165.58363 223.54325 166.1974 223.55475 L 199.1937 224.15604 C 203.53797 224.15604 207.49335 225.93355 210.36076 228.80096" fill="white"/>
                </g>
              </g>
            </g>
          </g>
          <g id="Group_71">
            <title>Wing</title>
            <g id="Group_72">
              <title>Group_53</title>
              <g id="Group_73">
                <title>Graphic_54</title>
                <g id="Graphic_74">
                  <path d="M 157.26383 211.28675 C 164.75218 218.7751 170.39254 228.19583 173.31892 238.893 C 173.481 239.4847 173.1324 240.09606 172.5407 240.25813 C 171.94852 240.41972 171.33763 240.07064 171.17508 239.47942 C 164.02526 213.34716 140.07185 195.09595 112.92496 195.09547 C 88.56206 195.09595 68.740485 214.87437 68.74001 239.18548 C 68.740485 239.79973 68.24277 240.29744 67.629005 240.2965 C 67.016205 240.29744 66.518006 239.79925 66.51849 239.18597 C 66.518006 213.64925 87.33597 192.87347 112.92448 192.873 C 129.95967 192.87348 145.78364 199.80656 157.26383 211.28675" fill="white"/>
                </g>
              </g>
            </g>
          </g>
          <g id="Group_67">
            <title>Eye</title>
            <g id="Group_68">
              <title>Group_50</title>
              <g id="Group_69">
                <title>Graphic_51</title>
                <g id="Graphic_70">
                  <path d="M 29.96813 226.05822 C 30.70944 226.79953 31.91682 226.79953 32.658608 226.05774 C 33.400394 225.31596 33.39991 224.10906 32.6586 223.36775 C 31.916336 222.62548 30.709916 222.62548 29.96813 223.36726 C 29.226344 224.10905 29.225866 225.31595 29.96813 226.05822 M 34.230403 221.79594 C 35.838647 223.40419 35.83817 226.02082 34.229926 227.62906 C 32.621204 229.23778 30.005052 229.23778 28.39681 227.62954 C 26.788565 226.0213 26.78809 223.40467 28.39681 221.79595 C 30.005055 220.1877 32.62216 220.1877 34.230403 221.79594" fill="white"/>
                </g>
              </g>
            </g>
          </g>
          <g id="Group_39">
            <title>Beak</title>
            <g id="Group_40">
              <title>Group_29</title>
              <g id="Group_41">
                <title>Graphic_30</title>
                <g id="Graphic_42">
                  <path d="M 23.072924 209.39752 C 23.33713 209.02686 23.77443 208.24624 23.934586 207.96045 C 24.02953 207.79071 24.105288 207.6574 24.148924 207.58405 C 25.059967 206.0813 24.989964 205.32273 23.809916 203.89334 C 23.104566 203.03839 21.837735 202.65192 20.603024 202.3292 C 19.209114 201.96623 17.792197 201.6397 16.375749 201.3539 C 16.413154 206.3762 17.13144 208.57517 21.49249 209.34285 C 21.717855 209.37834 22.611645 209.41766 23.072924 209.39752 M 25.211974 202.1355 C 25.320338 202.24386 25.423434 202.3575 25.523172 202.47834 C 27.293003 204.62027 27.445003 206.43325 26.049662 208.73677 C 26.012737 208.7967 25.952322 208.907 25.873685 209.04605 C 24.935304 210.7219 24.567043 211.21482 24.081784 211.44306 C 23.338085 211.79262 21.12663 211.53465 21.106494 211.53177 C 14.051616 210.2894 14.104833 205.05756 14.155664 199.99692 C 14.159023 199.66943 14.307189 199.3592 14.560365 199.15108 C 14.813064 198.9425 15.145354 198.85667 15.467576 198.91517 C 17.372151 199.2652 19.288714 199.69053 21.163554 200.17961 C 22.54739 200.5402 24.093777 201.0173 25.211974 202.1355" fill="white"/>
                </g>
              </g>
            </g>
          </g>
          <g id="Group_35">
            <title>Beak</title>
            <g id="Group_36">
              <title>Group_26</title>
              <g id="Group_37">
                <title>Graphic_27</title>
                <g id="Graphic_38">
                  <path d="M 16.21032 199.24075 C 16.26498 199.29541 16.314374 199.35631 16.358488 199.4244 C 18.368064 202.53395 19.938428 204.40352 22.3671 206.5723 C 22.819273 206.97173 22.864825 207.68378 22.455325 208.1422 C 22.04679 208.59963 21.344326 208.63847 20.886404 208.23041 C 18.328753 205.94512 16.59488 203.88423 14.49179 200.63034 C 14.158537 200.11488 14.30623 199.42728 14.822171 199.09355 C 15.269544 198.8044 15.847816 198.87825 16.21032 199.24075" fill="white"/>
                </g>
              </g>
            </g>
          </g>
          <g id="Group_31">
            <title>Wing</title>
            <g id="Group_32">
              <title>Group_23</title>
              <g id="Group_33">
                <title>Graphic_24</title>
                <g id="Graphic_34">
                  <path d="M 161.38018 220.57433 C 166.41301 225.60717 170.66378 231.45467 173.91862 237.94422 C 174.19434 238.49324 173.9728 239.1607 173.42426 239.43594 C 172.87571 239.71118 172.2068 239.49012 171.93253 238.94062 C 163.62856 222.38445 148.61254 210.13898 130.73439 205.34158 L 130.53875 205.28884 C 116.00176 201.38906 100.29861 204.68563 88.53504 214.10732 C 86.78487 215.50938 85.66668 217.3756 85.38665 219.36264 C 85.14786 221.06102 85.51372 222.49713 86.50485 223.75294 C 89.37705 227.39714 96.33603 228.09002 96.40652 228.09625 C 97.01596 228.1533 97.46525 228.69563 97.40723 229.30698 C 97.35017 229.91835 96.80786 230.36668 96.19649 230.30866 C 95.87235 230.27797 88.21713 229.50646 84.76043 225.13006 C 83.39194 223.3962 82.86256 221.3516 83.18622 219.0524 C 83.54489 216.50242 84.95126 214.13034 87.14545 212.3725 C 99.4595 202.51062 115.89674 199.06014 131.11512 203.1426 L 131.31026 203.19487 C 142.79237 206.27613 153.13518 212.32934 161.38018 220.57433" fill="white"/>
                </g>
              </g>
            </g>
          </g>
        </g>
      </g>
    </g>




  </g>
</svg>
