<?xml version="1.0" encoding="UTF-8" standalone="no"?>
<!DOCTYPE svg PUBLIC "-//W3C//DTD SVG 1.1//EN" "http://www.w3.org/Graphics/SVG/1.1/DTD/svg11.dtd">
<svg xmlns:xl="http://www.w3.org/1999/xlink" xmlns:dc="http://purl.org/dc/elements/1.1/" version="1.1" xmlns="http://www.w3.org/2000/svg" viewBox="0 0 850 240" width="850" height="240">
  <defs>
    <style type="text/css">
        @media screen and (max-width: 225px) {
            #wordmark-small{
                display: none !important;
            }
            #wordmark-large{
                display: block !important;
            }
        }
        @media screen and (min-width: 226px) {
            #wordmark-large{
                display: none !important;
            }
            #wordmark-small{
                display: block !important;
            }
        }
    </style>
  </defs>
  <metadata> Produced by OmniGraffle 7.16 
    <dc:date>2020-07-12 12:19:51 +0000</dc:date>
  </metadata>
  <g id="Canvas_1" stroke-dasharray="none" fill="none" stroke="none" stroke-opacity="1" fill-opacity="1">
    <title>Canvas 1</title>
    
    <g id="wordmark-small" style="display: block;">
      <title>Layer 1</title>
      <g id="Group_2">
        <g id="Group_33">
          <g id="Graphic_34">
            <path d="M 211.639 173.517 L 211.639 178.989 C 211.639 188.131 219.078 195.571 228.221 195.571 L 233.694 195.571 L 233.694 190.099 C 233.694 180.955 226.254 173.517 217.111 173.517 L 211.639 173.517 M 235.332 198.848 L 228.221 198.848 C 217.271 198.848 208.362 189.939 208.362 178.989 L 208.362 171.878 C 208.362 170.973 209.096 170.24 210 170.24 L 217.111 170.24 C 228.062 170.24 236.971 179.149 236.971 190.099 L 236.971 197.209 C 236.971 198.114 236.237 198.848 235.332 198.848" fill="#FFFFFF"/>
          </g>
        </g>
        <g id="Group_31">
          <g id="Graphic_32">
            <path d="M 164.269 154.709 L 140.094 154.709 C 139.19 154.709 138.456 153.975 138.456 153.07 C 138.456 152.165 139.19 151.431 140.094 151.431 L 164.269 151.431 C 209.744 151.431 246.741 114.434 246.741 68.959 L 246.741 34.444 C 246.741 33.539 247.474 32.806 248.379 32.806 C 249.285 32.806 250.018 33.539 250.018 34.444 L 250.018 68.959 C 250.018 116.241 211.551 154.709 164.269 154.709" fill="#FFFFFF"/>
          </g>
        </g>
        <g id="Group_29">
          <g id="Graphic_30">
            <path d="M 50.468 154.678 C 50.048 154.678 49.629 154.519 49.309 154.199 C 48.669 153.558 48.669 152.521 49.309 151.881 L 158.405 42.79 L 191.072 10.116 C 197.595 3.593 206.267 2842171e-20 215.491 2842171e-20 C 230.289 2842171e-20 243.415 9.3 248.155 23.142 C 248.448 23.998 247.992 24.93 247.136 25.223 C 246.279 25.517 245.348 25.061 245.055 24.204 C 240.769 11.687 228.888 3.278 215.491 3.278 C 207.143 3.278 199.293 6.529 193.39 12.433 L 160.722 45.107 L 51.626 154.199 C 51.307 154.519 50.887 154.678 50.468 154.678" fill="#FFFFFF"/>
          </g>
        </g>
        <g id="Group_27">
          <g id="Graphic_28">
            <path d="M 21.4 239.216 C 13.835 239.216 6.264 236.365 .486 230.655 C .172 230.345 -.003 229.921 -14210855e-21 229.479 C .002 229.037 .183 228.615 .502 228.309 L 70.802 160.671 C 71.455 160.045 72.493 160.064 73.12 160.716 C 73.747 161.368 73.727 162.406 73.075 163.033 L 4.023 229.468 C 14.403 238.501 30.249 238.07 40.106 228.214 L 108.393 162.59 C 109.045 161.964 110.083 161.985 110.71 162.636 C 111.338 163.289 111.316 164.326 110.664 164.953 L 42.4 230.554 C 36.629 236.325 29.016 239.216 21.4 239.216" fill="#FFFFFF"/>
          </g>
        </g>
        <g id="Group_25">
          <g id="Graphic_26">
            <path d="M 21.554 203.612 C 15.613 203.612 9.666 201.373 5.128 196.888 C 4.815 196.578 4.639 196.155 4.641 195.713 C 4.644 195.272 4.824 194.85 5.141 194.544 L 49.33 151.861 C 49.981 151.232 51.018 151.249 51.648 151.901 C 52.277 152.552 52.258 153.59 51.608 154.218 L 8.675 195.687 C 16.553 202.269 28.364 201.856 35.746 194.472 L 70.802 160.673 C 71.453 160.045 72.491 160.064 73.119 160.714 C 73.747 161.366 73.728 162.403 73.076 163.031 L 38.042 196.811 C 33.512 201.341 27.534 203.612 21.554 203.612" fill="#FFFFFF"/>
          </g>
        </g>
        <g id="Group_23">
          <g id="Graphic_24">
            <path d="M 95.184 166.508 C 79.567 166.508 63.862 162.566 49.656 154.463 C 48.87 154.015 48.596 153.014 49.044 152.228 C 49.493 151.442 50.494 151.169 51.28 151.616 C 85.985 171.41 129.994 165.464 158.302 137.157 C 183.706 111.752 183.751 70.459 158.401 45.108 C 157.76 44.468 157.76 43.43 158.401 42.791 C 159.039 42.151 160.078 42.151 160.717 42.791 C 187.346 69.419 187.302 112.791 160.62 139.474 C 142.856 157.237 119.126 166.508 95.184 166.508" fill="#FFFFFF"/>
          </g>
        </g>
        <g id="Group_21">
          <g id="Graphic_22">
            <path d="M 212.519 18.367 C 210.973 18.367 209.714 19.626 209.714 21.173 C 209.714 22.72 210.973 23.978 212.519 23.978 C 214.067 23.978 215.325 22.72 215.325 21.173 C 215.325 19.626 214.067 18.367 212.519 18.367 M 212.519 27.256 C 209.165 27.256 206.437 24.527 206.437 21.173 C 206.437 17.818 209.165 15.09 212.519 15.09 C 215.873 15.09 218.602 17.818 218.602 21.173 C 218.602 24.527 215.873 27.256 212.519 27.256" fill="#FFFFFF"/>
          </g>
        </g>
        <g id="Group_19">
          <g id="Graphic_20">
            <rect x="138.451" y="151.433" width="711.549" height="3.278" fill="#FFFFFF"/>
          </g>
        </g>
        <g id="Group_17">
          <g id="Graphic_18">
            <path d="M 209.999 173.517 C 209.623 173.517 209.246 173.388 208.937 173.125 L 186.884 154.319 C 186.195 153.732 186.113 152.697 186.7 152.009 C 187.287 151.32 188.321 151.238 189.011 151.825 L 211.063 170.631 C 211.752 171.219 211.834 172.252 211.247 172.942 C 210.923 173.322 210.463 173.517 209.999 173.517" fill="#FFFFFF"/>
          </g>
        </g>
        <g id="Group_15">
          <g id="Graphic_16">
            <path d="M 270.129 166.501 C 268.898 170.755 269.396 175.235 271.532 179.114 C 273.67 182.994 277.19 185.809 281.444 187.041 L 286.7 188.563 L 288.223 183.307 C 290.766 174.524 285.69 165.311 276.907 162.767 L 271.651 161.245 L 270.129 166.501 M 287.818 192.232 C 287.668 192.232 287.515 192.211 287.362 192.167 L 280.532 190.188 C 275.438 188.714 271.222 185.343 268.662 180.696 C 266.103 176.05 265.506 170.685 266.982 165.589 L 268.959 158.758 C 269.08 158.342 269.362 157.989 269.743 157.779 C 270.122 157.569 270.572 157.52 270.989 157.641 L 277.818 159.619 C 288.337 162.665 294.416 173.7 291.37 184.219 L 289.392 191.049 C 289.185 191.766 288.529 192.232 287.818 192.232" fill="#FFFFFF"/>
          </g>
        </g>
        <g id="Group_13">
          <g id="Graphic_14">
            <path d="M 270.539 160.851 C 269.953 160.851 269.388 160.537 269.092 159.985 L 265.808 153.845 C 265.381 153.047 265.682 152.054 266.48 151.627 C 267.28 151.2 268.271 151.502 268.698 152.299 L 271.982 158.439 C 272.409 159.237 272.108 160.23 271.31 160.657 C 271.064 160.789 270.799 160.851 270.539 160.851" fill="#FFFFFF"/>
          </g>
        </g>
        <g id="Group_11">
          <g id="Graphic_12">
            <path d="M 294.289 122.959 L 288.825 123.265 C 284.403 123.512 280.342 125.467 277.39 128.769 C 274.438 132.071 272.949 136.325 273.196 140.747 L 273.502 146.21 L 278.965 145.904 C 283.388 145.657 287.449 143.703 290.4 140.4 C 293.352 137.099 294.842 132.845 294.595 128.422 L 294.289 122.959 M 271.957 149.577 C 271.556 149.577 271.167 149.43 270.865 149.16 C 270.541 148.871 270.346 148.464 270.321 148.03 L 269.924 140.931 C 269.627 135.634 271.411 130.54 274.946 126.584 C 278.482 122.63 283.347 120.289 288.643 119.992 L 295.742 119.595 C 296.179 119.571 296.602 119.72 296.926 120.009 C 297.25 120.299 297.445 120.705 297.47 121.139 L 297.867 128.239 C 298.163 133.536 296.379 138.63 292.845 142.585 C 289.309 146.54 284.445 148.881 279.148 149.177 L 272.049 149.575 C 272.018 149.576 271.988 149.577 271.957 149.577" fill="#FFFFFF"/>
          </g>
        </g>
        <g id="Group_9">
          <g id="Graphic_10">
            <path d="M 267.249 154.711 C 266.853 154.711 266.457 154.568 266.143 154.28 C 265.475 153.669 265.43 152.632 266.041 151.965 L 270.745 146.832 C 271.356 146.164 272.394 146.119 273.061 146.731 C 273.728 147.342 273.773 148.378 273.162 149.045 L 268.457 154.179 C 268.134 154.532 267.692 154.711 267.249 154.711" fill="#FFFFFF"/>
          </g>
        </g>
        <g id="Group_7">
          <g id="Graphic_8">
            <path d="M 237.082 28.55 C 237.193 29.212 237.551 30.482 237.682 30.947 C 237.76 31.223 237.82 31.441 237.851 31.563 C 238.468 34.08 239.332 34.798 242.053 35.058 C 243.68 35.214 245.404 34.296 247.028 33.345 C 248.86 32.27 250.678 31.133 252.453 29.954 C 247.177 24.756 244.135 23.212 238.787 26.959 C 238.515 27.157 237.542 28.048 237.082 28.55 M 242.424 38.353 C 242.198 38.353 241.972 38.342 241.742 38.32 C 237.663 37.932 235.614 36.2 234.667 32.343 C 234.643 32.242 234.591 32.064 234.528 31.837 C 233.759 29.111 233.629 28.213 233.897 27.469 C 234.308 26.329 236.883 24.292 236.907 24.274 C 245.559 18.213 250.959 23.724 256.183 29.054 C 256.521 29.399 256.69 29.877 256.643 30.358 C 256.597 30.839 256.34 31.275 255.943 31.55 C 253.592 33.171 251.15 34.726 248.685 36.171 C 246.866 37.238 244.756 38.353 242.424 38.353" fill="#FFFFFF"/>
          </g>
        </g>
        <g id="Group_5">
          <g id="Graphic_6">
            <path d="M 254.829 31.985 C 254.715 31.985 254.6 31.973 254.483 31.948 C 249.145 30.801 245.558 30.489 240.764 30.76 C 239.876 30.815 239.086 30.12 239.035 29.215 C 238.984 28.312 239.676 27.539 240.579 27.487 C 245.629 27.203 249.586 27.544 255.172 28.744 C 256.057 28.934 256.62 29.805 256.43 30.691 C 256.265 31.459 255.585 31.985 254.829 31.985" fill="#FFFFFF"/>
          </g>
        </g>
        <g id="Group_3">
          <g id="Graphic_4">
            <path d="M 81.207 159.641 C 70.711 159.641 60.181 157.976 50.02 154.603 C 49.16 154.318 48.695 153.391 48.98 152.532 C 49.265 151.673 50.193 151.206 51.052 151.493 C 76.975 160.098 105.402 157.209 129.047 143.569 L 129.306 143.42 C 148.531 132.328 161.468 112.516 163.91 90.425 C 164.273 87.138 163.493 84.026 161.713 81.662 C 160.191 79.642 158.312 78.526 155.969 78.25 C 149.174 77.445 141.195 83.979 141.115 84.046 C 140.42 84.622 139.386 84.525 138.809 83.827 C 138.231 83.13 138.329 82.097 139.027 81.52 C 139.397 81.214 148.184 74.036 156.352 74.995 C 159.587 75.376 162.271 76.956 164.331 79.691 C 166.616 82.724 167.623 86.664 167.168 90.785 C 164.611 113.909 151.069 134.647 130.943 146.259 L 130.685 146.408 C 115.499 155.168 98.402 159.641 81.207 159.641" fill="#FFFFFF"/>
          </g>
        </g>
      </g>
      <g id="Group_45">
        <title>The Finch</title>
        <g id="Graphic_37">
          <path d="M 383.9919 143.81781 L 383.9919 142.84615 L 388.07287 142.84615 C 389.498 142.84615 390.68016 142.48988 391.61943 141.77733 C 392.5587 141.06477 393.02834 139.3158 393.02834 136.53036 L 393.02834 75.412955 L 386.8097 75.412955 C 381.56273 75.412955 377.7409 76.44938 375.34413 78.52227 C 372.94736 80.59515 371.58705 84.09309 371.26316 89.01619 L 370.97166 93.2915 L 370 93.2915 L 370.68016 74.441296 L 430.8259 74.441296 L 431.50607 93.2915 L 430.5344 93.2915 L 430.2429 89.01619 C 429.91903 84.09309 428.5587 80.59515 426.16194 78.52227 C 423.76517 76.44938 419.94335 75.412955 414.69636 75.412955 L 408.47773 75.412955 L 408.47773 136.53036 C 408.47773 139.3158 408.94736 141.06477 409.88664 141.77733 C 410.8259 142.48988 412.0081 142.84615 413.4332 142.84615 L 417.51417 142.84615 L 417.51417 143.81781 Z" fill="#FFFFFF"/>
        </g>
        <g id="Graphic_38">
          <path d="M 434.12955 143.81781 L 434.12955 142.84615 L 435.29555 142.84615 C 436.2672 142.84615 437.28744 142.7004 438.3563 142.4089 C 439.4251 142.1174 440.332 141.53442 441.0769 140.65992 C 441.82187 139.78542 442.19433 138.40892 442.19433 136.53036 L 442.19433 76.870445 C 442.19433 75.12145 441.80567 73.825915 441.02834 72.98381 C 440.251 72.1417 439.32794 71.591094 438.2591 71.33198 C 437.1903 71.07287 436.20243 70.94332 435.29555 70.94332 L 434.12955 70.94332 L 434.12955 69.97166 L 456.96356 69.97166 L 456.96356 89.50202 C 456.96356 91.38058 456.96356 93.24291 456.96356 95.08907 C 456.96356 96.93523 456.9312 98.79756 456.8664 100.67611 L 457.06073 100.67611 C 457.83806 97.76112 458.95546 95.57491 460.41296 94.11741 C 461.87045 92.65991 463.53845 91.68826 465.417 91.20243 C 467.29556 90.7166 469.1741 90.47368 471.05263 90.47368 C 476.75306 90.47368 480.99594 91.96355 483.7814 94.94332 C 486.5668 97.92309 487.9595 102.68418 487.9595 109.22672 L 487.9595 135.94737 C 487.9595 138.99192 488.4939 140.90283 489.56275 141.68016 C 490.6316 142.4575 492.2672 142.84615 494.46964 142.84615 L 494.76113 142.84615 L 494.76113 143.81781 L 473.1903 143.81781 L 473.1903 106.02024 C 473.1903 101.8097 472.6235 98.65183 471.4899 96.54656 C 470.35627 94.44129 468.49394 93.38866 465.90283 93.38866 C 462.4696 93.38866 460.12146 95.10525 458.8583 98.53846 C 457.59514 101.97168 456.96356 106.40888 456.96356 111.8502 L 456.96356 136.53036 C 456.96356 138.40892 457.33603 139.78542 458.08097 140.65992 C 458.8259 141.53442 459.7328 142.1174 460.8016 142.4089 C 461.87045 142.7004 462.8907 142.84615 463.86235 142.84615 L 465.02834 142.84615 L 465.02834 143.81781 Z" fill="#FFFFFF"/>
        </g>
        <g id="Graphic_39">
          <path d="M 527.5061 144.78947 C 519.085 144.78947 512.7045 142.45751 508.3644 137.79352 C 504.02427 133.12953 501.85425 126.5547 501.85425 118.06883 C 501.85425 108.93518 503.9433 102.05265 508.12146 97.42105 C 512.2996 92.78945 518.2429 90.47368 525.9514 90.47368 C 533.0122 90.47368 538.5668 92.44937 542.6154 96.40081 C 546.664 100.35225 548.68826 106.18215 548.68826 113.89069 L 548.68826 116.22267 L 516.8178 116.22267 C 516.8178 126.06888 517.82185 133.11334 519.82996 137.35628 C 521.83807 141.59921 525.1417 143.72065 529.7409 143.72065 C 533.1093 143.72065 536.0081 142.60325 538.43725 140.36842 C 540.8664 138.1336 542.40486 134.36035 543.0526 129.04858 C 544.3482 129.3077 545.27125 129.8583 545.82186 130.7004 C 546.3725 131.54251 546.6478 132.51416 546.6478 133.61538 C 546.6478 135.49394 545.9352 137.2753 544.5101 138.95951 C 543.085 140.64373 540.9636 142.03643 538.14575 143.13765 C 535.3279 144.23887 531.7814 144.78947 527.5061 144.78947 Z M 516.8178 115.25101 L 533.919 115.25101 C 533.919 109.42102 533.6923 104.7571 533.23887 101.25911 C 532.7854 97.76112 531.9757 95.25102 530.8097 93.72874 C 529.6437 92.20647 528.0243 91.44534 525.9514 91.44534 C 522.7773 91.44534 520.47774 93.21051 519.05263 96.74089 C 517.6275 100.27127 516.8826 106.44125 516.8178 115.25101 Z" fill="#FFFFFF"/>
        </g>
        <g id="Graphic_40">
          <path d="M 577.3522 143.81781 L 577.3522 142.84615 L 581.4332 142.84615 C 582.7935 142.84615 583.9595 142.52227 584.9312 141.8745 C 585.90284 141.22672 586.38866 139.6073 586.38866 137.0162 L 586.38866 81.728745 C 586.38866 78.94331 585.919 77.19434 584.97976 76.48178 C 584.0405 75.76923 582.8583 75.412955 581.4332 75.412955 L 577.3522 75.412955 L 577.3522 74.441296 L 631.085 74.441296 L 631.668 92.31984 L 630.69636 92.31984 L 630.40486 89.01619 C 629.9514 84.09309 628.5425 80.59515 626.17814 78.52227 C 623.81375 76.44938 620.0405 75.412955 614.8583 75.412955 L 601.83806 75.412955 L 601.83806 107.08907 L 624.8664 107.08907 L 624.8664 108.06073 L 601.83806 108.06073 L 601.83806 136.53036 C 601.83806 139.3158 602.3077 141.06477 603.24696 141.77733 C 604.18624 142.48988 605.3684 142.84615 606.7935 142.84615 L 612.8178 142.84615 L 612.8178 143.81781 Z" fill="#FFFFFF"/>
        </g>
        <g id="Graphic_41">
          <path d="M 651.58704 82.9919 C 649.7085 82.9919 648.1053 82.42511 646.7773 81.2915 C 645.4494 80.15789 644.7854 78.39272 644.7854 75.99595 C 644.7854 73.5344 645.4494 71.75304 646.7773 70.65182 C 648.1053 69.5506 649.7085 69 651.58704 69 C 653.4656 69 655.085 69.5506 656.44534 70.65182 C 657.8057 71.75304 658.4858 73.5344 658.4858 75.99595 C 658.4858 78.39272 657.8057 80.15789 656.44534 81.2915 C 655.085 82.42511 653.4656 82.9919 651.58704 82.9919 Z M 636.6235 143.81781 L 636.6235 142.84615 L 637.7895 142.84615 C 638.76114 142.84615 639.7814 142.7004 640.8502 142.4089 C 641.919 142.1174 642.8259 141.53442 643.57085 140.65992 C 644.3158 139.78542 644.68826 138.40892 644.68826 136.53036 L 644.68826 98.63563 C 644.68826 96.88663 644.2996 95.5911 643.5223 94.74899 C 642.7449 93.90688 641.8219 93.35628 640.753 93.09717 C 639.6842 92.83806 638.69636 92.7085 637.7895 92.7085 L 636.6235 92.7085 L 636.6235 91.73684 L 659.4575 91.73684 L 659.4575 136.53036 C 659.4575 138.40892 659.82996 139.78542 660.5749 140.65992 C 661.31984 141.53442 662.2267 142.1174 663.29555 142.4089 C 664.3644 142.7004 665.3846 142.84615 666.3563 142.84615 L 667.5223 142.84615 L 667.5223 143.81781 Z" fill="#FFFFFF"/>
        </g>
        <g id="Graphic_42">
          <path d="M 670.8259 143.81781 L 670.8259 142.84615 L 671.9919 142.84615 C 672.9636 142.84615 673.9838 142.7004 675.0526 142.4089 C 676.1215 142.1174 677.0283 141.53442 677.7733 140.65992 C 678.5182 139.78542 678.8907 138.40892 678.8907 136.53036 L 678.8907 98.63563 C 678.8907 96.88663 678.502 95.5911 677.7247 94.74899 C 676.9474 93.90688 676.0243 93.35628 674.9555 93.09717 C 673.8866 92.83806 672.8988 92.7085 671.9919 92.7085 L 670.8259 92.7085 L 670.8259 91.73684 L 693.6599 91.73684 L 693.6599 100.57895 L 693.85425 100.57895 C 694.6316 97.66395 695.7328 95.49393 697.1579 94.06883 C 698.583 92.64372 700.2348 91.68826 702.1134 91.20243 C 703.9919 90.7166 705.8704 90.47368 707.749 90.47368 C 713.4494 90.47368 717.6923 91.96355 720.4777 94.94332 C 723.2632 97.92309 724.6559 102.68418 724.6559 109.22672 L 724.6559 135.94737 C 724.6559 138.99192 725.1903 140.90283 726.2591 141.68016 C 727.3279 142.4575 728.96355 142.84615 731.166 142.84615 L 731.4575 142.84615 L 731.4575 143.81781 L 709.8866 143.81781 L 709.8866 106.02024 C 709.8866 101.8097 709.31984 98.65183 708.1862 96.54656 C 707.0526 94.44129 705.1903 93.38866 702.5992 93.38866 C 699.166 93.38866 696.8178 95.10525 695.55466 98.53846 C 694.2915 101.97168 693.6599 106.40888 693.6599 111.8502 L 693.6599 136.53036 C 693.6599 138.40892 694.0324 139.78542 694.7773 140.65992 C 695.5223 141.53442 696.42914 142.1174 697.498 142.4089 C 698.5668 142.7004 699.587 142.84615 700.5587 142.84615 L 701.7247 142.84615 L 701.7247 143.81781 Z" fill="#FFFFFF"/>
        </g>
        <g id="Graphic_43">
          <path d="M 762.7449 144.78947 C 757.9514 144.78947 753.7247 143.93118 750.0648 142.21457 C 746.4048 140.49797 743.5709 137.68018 741.56275 133.76113 C 739.55465 129.84209 738.5506 124.57898 738.5506 117.97166 C 738.5506 110.97567 739.587 105.48585 741.6599 101.50202 C 743.7328 97.5182 746.5992 94.68422 750.2591 93 C 753.91905 91.31578 758.1133 90.47368 762.8421 90.47368 C 768.7369 90.47368 773.336 91.44533 776.6397 93.38866 C 779.9433 95.33199 781.5951 97.85828 781.5951 100.96761 C 781.5951 102.19839 781.2551 103.42914 780.5749 104.65992 C 779.8947 105.8907 778.6478 106.91093 776.834 107.72065 C 775.0202 108.53037 772.4292 108.93522 769.0607 108.93522 C 769.0607 104.46556 768.8502 100.96762 768.42915 98.4413 C 768.0081 95.91497 767.31175 94.11741 766.3401 93.04858 C 765.3684 91.97975 764.0081 91.44534 762.2591 91.44534 C 760.12145 91.44534 758.4049 92.25505 757.1093 93.87449 C 755.8138 95.49394 754.8907 98.23075 754.3401 102.08502 C 753.7895 105.93929 753.5142 111.2024 753.5142 117.8745 C 753.5142 127.20248 754.4372 133.84209 756.2834 137.79352 C 758.1296 141.74496 761.22265 143.72065 765.56275 143.72065 C 768.9312 143.72065 771.7976 142.63564 774.1619 140.46559 C 776.5263 138.29554 778.0324 134.5223 778.6802 129.14575 C 779.7166 129.46964 780.5263 130.08502 781.1093 130.9919 C 781.6923 131.89879 781.9838 132.93522 781.9838 134.10121 C 781.9838 135.72066 781.30365 137.35627 779.9433 139.0081 C 778.583 140.65993 776.4939 142.03643 773.6761 143.13765 C 770.8583 144.23887 767.2146 144.78947 762.7449 144.78947 Z" fill="#FFFFFF"/>
        </g>
        <g id="Graphic_44">
          <path d="M 786.8421 143.81781 L 786.8421 142.84615 L 788.0081 142.84615 C 788.9798 142.84615 790 142.7004 791.0688 142.4089 C 792.1377 142.1174 793.0445 141.53442 793.7895 140.65992 C 794.5344 139.78542 794.9069 138.40892 794.9069 136.53036 L 794.9069 76.870445 C 794.9069 75.12145 794.5182 73.825915 793.7409 72.98381 C 792.9636 72.1417 792.0405 71.591094 790.9717 71.33198 C 789.9028 71.07287 788.915 70.94332 788.0081 70.94332 L 786.8421 70.94332 L 786.8421 69.97166 L 809.6761 69.97166 L 809.6761 89.50202 C 809.6761 91.38058 809.6761 93.24291 809.6761 95.08907 C 809.6761 96.93523 809.6437 98.79756 809.5789 100.67611 L 809.7733 100.67611 C 810.5506 97.76112 811.668 95.57491 813.1255 94.11741 C 814.583 92.65991 816.251 91.68826 818.1296 91.20243 C 820.0081 90.7166 821.8866 90.47368 823.7652 90.47368 C 829.4656 90.47368 833.7085 91.96355 836.4939 94.94332 C 839.2794 97.92309 840.6721 102.68418 840.6721 109.22672 L 840.6721 135.94737 C 840.6721 138.99192 841.2065 140.90283 842.2753 141.68016 C 843.3441 142.4575 844.9797 142.84615 847.1822 142.84615 L 847.4737 142.84615 L 847.4737 143.81781 L 825.9028 143.81781 L 825.9028 106.02024 C 825.9028 101.8097 825.336 98.65183 824.2024 96.54656 C 823.0688 94.44129 821.2065 93.38866 818.6154 93.38866 C 815.1822 93.38866 812.834 95.10525 811.57085 98.53846 C 810.3077 101.97168 809.6761 106.40888 809.6761 111.8502 L 809.6761 136.53036 C 809.6761 138.40892 810.0486 139.78542 810.7935 140.65992 C 811.5385 141.53442 812.4453 142.1174 813.5142 142.4089 C 814.583 142.7004 815.6032 142.84615 816.5749 142.84615 L 817.7409 142.84615 L 817.7409 143.81781 Z" fill="#FFFFFF"/>
        </g>
      </g>
    </g>

    <g id="wordmark-large" style="display: none;">
      <title>Layer 1</title>
      <g id="Group_2">
        <title>Canvas_1</title>
        <g id="wordmark-large--text">
          <title>Group_2</title>
          <g id="Group_67">
            <title>Group_33</title>
            <g id="Group_68">
              <title>Graphic_34</title>
              <g id="Graphic_69">
                <path d="M 143.5156 159.25388 L 143.5156 162.96452 C 143.5156 169.16385 148.5601 174.20903 154.76011 174.20903 L 158.47144 174.20903 L 158.47144 170.49838 C 158.47144 164.2977 153.42626 159.25388 147.22625 159.25388 L 143.5156 159.25388 M 159.58219 176.43121 L 154.76011 176.43121 C 147.33475 176.43121 141.29342 170.38989 141.29342 162.96452 L 141.29342 158.14245 C 141.29342 157.52875 141.79116 157.0317 142.40417 157.0317 L 147.22625 157.0317 C 154.6523 157.0317 160.69362 163.07302 160.69362 170.49838 L 160.69362 175.31978 C 160.69362 175.93348 160.19588 176.43121 159.58219 176.43121" fill="white"/>
              </g>
            </g>
          </g>
          <g id="Group_64">
            <title>Group_31</title>
            <g id="Group_65">
              <title>Graphic_32</title>
              <g id="Graphic_66">
                <path d="M 111.39329 146.49989 L 94.99986 146.49989 C 94.38684 146.49989 93.8891 146.00215 93.8891 145.38846 C 93.8891 144.77476 94.38684 144.27703 94.99986 144.27703 L 111.39329 144.27703 C 142.23058 144.27703 167.3188 119.1888 167.3188 88.35151 L 167.3188 64.94637 C 167.3188 64.33267 167.81586 63.835614 168.42956 63.835614 C 169.04393 63.835614 169.54099 64.33267 169.54099 64.94637 L 169.54099 88.35151 C 169.54099 120.41415 143.45593 146.49989 111.39329 146.49989" fill="white"/>
              </g>
            </g>
          </g>
          <g id="Group_61">
            <title>Group_29</title>
            <g id="Group_62">
              <title>Graphic_30</title>
              <g id="Graphic_63">
                <path d="M 34.223105 146.47887 C 33.938296 146.47887 33.654166 146.37105 33.43717 146.15405 C 33.003175 145.71938 33.003175 145.01617 33.43717 144.58218 L 107.41682 70.60592 L 129.56881 48.44918 C 133.99216 44.025835 139.87277 41.589367 146.1277 41.589367 C 156.16245 41.589367 165.0634 47.89584 168.27766 57.28231 C 168.47635 57.862775 168.16713 58.49478 167.58666 58.69347 C 167.00552 58.89283 166.37419 58.58361 166.1755 58.00247 C 163.2691 49.5145 155.21241 43.81223 146.1277 43.81223 C 140.4668 43.81223 135.1436 46.01678 131.14068 50.020373 L 108.98802 72.17711 L 35.00836 146.15405 C 34.792043 146.37105 34.507235 146.47887 34.223105 146.47887" fill="white"/>
              </g>
            </g>
          </g>
          <g id="Group_58">
            <title>Group_27</title>
            <g id="Group_59">
              <title>Graphic_28</title>
              <g id="Graphic_60">
                <path d="M 14.511653 203.80537 C 9.381711 203.80537 4.247701 201.87206 .32955176 198.00002 C .1166236 197.7898 -.0020465594 197.50229 -1221383e-11 197.20256 C .0013440165 196.90283 .12408286 196.61667 .3404016 196.40917 L 48.0119 150.54281 C 48.45471 150.11831 49.15859 150.1312 49.58377 150.57333 C 50.00895 151.01546 49.995385 151.71934 49.553254 152.14452 L 2.728045 197.1951 C 9.766881 203.32052 20.512294 203.02825 27.196475 196.34474 L 73.50293 151.84411 C 73.94506 151.41961 74.64894 151.43385 75.07412 151.8753 C 75.499975 152.31812 75.48506 153.02132 75.04293 153.4465 L 28.75207 197.93153 C 24.83867 201.84494 19.676178 203.80537 14.511653 203.80537" fill="white"/>
              </g>
            </g>
          </g>
          <g id="Group_55">
            <title>Group_25</title>
            <g id="Group_56">
              <title>Graphic_26</title>
              <g id="Graphic_57">
                <path d="M 14.616082 179.66175 C 10.5874 179.66175 6.554649 178.14345 3.4773624 175.1021 C 3.2651124 174.8919 3.145764 174.60505 3.1471203 174.30532 C 3.1491547 174.00627 3.2712154 173.7201 3.486178 173.5126 L 33.45141 144.56862 C 33.892862 144.14208 34.596068 144.15361 35.02328 144.59574 C 35.449815 145.0372 35.43693 145.74108 34.996156 146.16693 L 5.882637 174.2877 C 11.224828 178.75105 19.234047 178.47098 24.239893 173.46378 L 48.0119 150.54417 C 48.45335 150.11831 49.157235 150.1312 49.58309 150.57197 C 50.00895 151.0141 49.996064 151.7173 49.55393 152.14316 L 25.796845 175.0499 C 22.724984 178.12176 18.67121 179.66175 14.616082 179.66175" fill="white"/>
              </g>
            </g>
          </g>
          <g id="Group_52">
            <title>Group_23</title>
            <g id="Group_53">
              <title>Graphic_24</title>
              <g id="Graphic_54">
                <path d="M 64.5457 154.50097 C 53.95558 154.50097 43.30578 151.82784 33.672475 146.33307 C 33.139476 146.02928 32.953673 145.35048 33.25747 144.81748 C 33.561942 144.28449 34.240735 144.09936 34.773734 144.40248 C 58.30772 157.82509 88.15089 153.79302 107.34698 134.59761 C 124.57381 117.3701 124.60433 89.36868 107.41411 72.17779 C 106.97944 71.74379 106.97944 71.03991 107.41411 70.60659 C 107.84675 70.1726 108.55131 70.1726 108.98462 70.60659 C 127.04215 88.66344 127.01232 118.07466 108.91885 136.1688 C 96.87281 148.21416 80.78114 154.50097 64.5457 154.50097" fill="white"/>
              </g>
            </g>
          </g>
          <g id="Group_49">
            <title>Group_21</title>
            <g id="Group_50">
              <title>Graphic_22</title>
              <g id="Graphic_51">
                <path d="M 144.11235 54.04431 C 143.06398 54.04431 142.21023 54.898056 142.21023 55.9471 C 142.21023 56.996144 143.06398 57.84921 144.11235 57.84921 C 145.16207 57.84921 146.01514 56.996144 146.01514 55.9471 C 146.01514 54.898056 145.16207 54.04431 144.11235 54.04431 M 144.11235 60.072075 C 141.83795 60.072075 139.98805 58.2215 139.98805 55.9471 C 139.98805 53.672024 141.83795 51.822126 144.11235 51.822126 C 146.38675 51.822126 148.23732 53.672024 148.23732 55.9471 C 148.23732 58.2215 146.38675 60.072075 144.11235 60.072075" fill="white"/>
              </g>
            </g>
          </g>
          <g id="Group_46">
            <title>Group_19</title>
            <g id="Group_47">
              <title>Graphic_20</title>
              <g id="Graphic_48">
                <rect x="93.88571" y="144.27838" width="756.1143" height="2.2228615" fill="white"/>
              </g>
            </g>
          </g>
          <g id="Group_43">
            <title>Group_17</title>
            <g id="Group_44">
              <title>Graphic_18</title>
              <g id="Graphic_45">
                <path d="M 142.4035 159.25388 C 142.14853 159.25388 141.89288 159.1664 141.68334 158.98806 L 126.72886 146.23542 C 126.26164 145.83737 126.20604 145.13552 126.60409 144.66898 C 127.00214 144.20176 127.70332 144.14615 128.17122 144.5442 L 143.12501 157.29684 C 143.59223 157.69557 143.64784 158.39606 143.24978 158.86396 C 143.03008 159.12165 142.71814 159.25388 142.4035 159.25388" fill="white"/>
              </g>
            </g>
          </g>
          <g id="Group_40">
            <title>Group_15</title>
            <g id="Group_41">
              <title>Graphic_16</title>
              <g id="Graphic_42">
                <path d="M 183.17856 154.49622 C 182.3438 157.38092 182.6815 160.41888 184.12996 163.04929 C 185.57977 165.68038 187.96673 167.58927 190.85144 168.4247 L 194.4156 169.4568 L 195.44838 165.89263 C 197.17283 159.93674 193.73071 153.68927 187.77483 151.96414 L 184.21065 150.93205 L 183.17856 154.49622 M 195.17374 171.9448 C 195.07202 171.9448 194.96827 171.93056 194.86452 171.90073 L 190.233 170.55874 C 186.77868 169.5592 183.91974 167.27327 182.18377 164.12207 C 180.44847 160.97154 180.04364 157.33346 181.04453 153.87778 L 182.38517 149.24558 C 182.46722 148.96348 182.65845 148.7241 182.9168 148.5817 C 183.17382 148.4393 183.47897 148.40607 183.76174 148.48812 L 188.3926 149.82943 C 195.52568 151.89497 199.64795 159.37797 197.5824 166.51107 L 196.2411 171.1426 C 196.10073 171.6288 195.65588 171.9448 195.17374 171.9448" fill="white"/>
              </g>
            </g>
          </g>
          <g id="Group_37">
            <title>Group_13</title>
            <g id="Group_38">
              <title>Graphic_14</title>
              <g id="Graphic_39">
                <path d="M 183.4566 150.66487 C 183.05921 150.66487 182.67608 150.45194 182.47536 150.07762 L 180.24843 145.914 C 179.95887 145.37286 180.16298 144.6995 180.70412 144.40994 C 181.24661 144.12038 181.91862 144.32517 182.20818 144.86563 L 184.4351 149.02926 C 184.72466 149.5704 184.52055 150.24376 183.97942 150.53332 C 183.8126 150.62283 183.6329 150.66487 183.4566 150.66487" fill="white"/>
              </g>
            </g>
          </g>
          <g id="Group_34">
            <title>Group_11</title>
            <g id="Group_35">
              <title>Graphic_12</title>
              <g id="Graphic_36">
                <path d="M 199.56182 124.96973 L 195.8566 125.17723 C 192.85798 125.34473 190.10415 126.67044 188.10236 128.90958 C 186.10056 131.14872 185.09085 134.03342 185.25834 137.03204 L 185.46584 140.73659 L 189.17039 140.52908 C 192.1697 140.36159 194.92352 139.03655 196.92463 136.79674 C 198.92643 134.55828 199.93682 131.67358 199.76933 128.67427 L 199.56182 124.96973 M 184.41816 143.0198 C 184.14623 143.0198 183.88245 142.92012 183.67765 142.73703 C 183.45795 142.54105 183.32571 142.26506 183.30876 141.97076 L 183.03955 137.15682 C 182.83815 133.56484 184.0479 130.11052 186.44504 127.4279 C 188.84286 124.74663 192.1419 123.15916 195.73319 122.95776 L 200.54713 122.68855 C 200.84346 122.67228 201.1303 122.77332 201.35001 122.96929 C 201.56972 123.16595 201.70196 123.44126 201.7189 123.73556 L 201.98812 128.55018 C 202.18884 132.14216 200.97909 135.59647 198.58263 138.27842 C 196.1848 140.96037 192.88646 142.54783 189.29448 142.74856 L 184.48054 143.01844 C 184.45952 143.01912 184.43918 143.0198 184.41816 143.0198" fill="white"/>
              </g>
            </g>
          </g>
          <g id="Group_31">
            <title>Group_9</title>
            <g id="Group_32">
              <title>Graphic_10</title>
              <g id="Graphic_33">
                <path d="M 181.2256 146.50124 C 180.95706 146.50124 180.68852 146.40427 180.4756 146.20898 C 180.02261 145.79465 179.9921 145.09144 180.40643 144.63914 L 183.59628 141.15838 C 184.0106 140.7054 184.7145 140.67488 185.1668 141.08989 C 185.6191 141.50421 185.64961 142.20674 185.23529 142.65904 L 182.04475 146.14049 C 181.82572 146.37986 181.526 146.50124 181.2256 146.50124" fill="white"/>
              </g>
            </g>
          </g>
          <g id="Group_28">
            <title>Group_7</title>
            <g id="Group_29">
              <title>Graphic_8</title>
              <g id="Graphic_30">
                <path d="M 160.76889 60.949556 C 160.84416 61.39847 161.08693 62.259674 161.17576 62.575 C 161.22865 62.76216 161.26934 62.90999 161.29036 62.99272 C 161.70876 64.69953 162.29465 65.18642 164.1398 65.36273 C 165.2431 65.468515 166.41216 64.846006 167.51342 64.20112 C 168.75573 63.472144 169.98854 62.70113 171.1922 61.90163 C 167.61446 58.37679 165.55164 57.32978 161.92508 59.870675 C 161.74063 60.00494 161.08082 60.60914 160.76889 60.949556 M 164.39138 67.59712 C 164.23813 67.59712 164.08487 67.58966 163.9289 67.57474 C 161.16287 67.31163 159.77342 66.13714 159.13124 63.52165 C 159.11497 63.45316 159.0797 63.33245 159.03698 63.17852 C 158.51551 61.32998 158.42736 60.72103 158.6091 60.21651 C 158.8878 59.44346 160.63395 58.06214 160.65022 58.049935 C 166.51727 53.93988 170.1791 57.67697 173.72157 61.291326 C 173.95077 61.525276 174.06537 61.849415 174.0335 62.17559 C 174.0023 62.50176 173.82803 62.79742 173.55882 62.9839 C 171.96457 64.083126 170.30861 65.137595 168.63706 66.11747 C 167.40357 66.84102 165.97275 67.59712 164.39138 67.59712" fill="white"/>
              </g>
            </g>
          </g>
          <g id="Group_25">
            <title>Group_5</title>
            <g id="Group_26">
              <title>Graphic_6</title>
              <g id="Graphic_27">
                <path d="M 172.8034 63.27888 C 172.7261 63.27888 172.64811 63.270744 172.56877 63.25379 C 168.949 62.47599 166.5166 62.26442 163.26571 62.44819 C 162.66354 62.48549 162.12783 62.0142 162.09325 61.4005 C 162.05867 60.788164 162.52792 60.26398 163.14026 60.22872 C 166.56474 60.036135 169.24804 60.26737 173.036 61.08111 C 173.63613 61.20995 174.0179 61.80059 173.88906 62.4014 C 173.77717 62.92219 173.31606 63.27888 172.8034 63.27888" fill="white"/>
              </g>
            </g>
          </g>
          <g id="Group_22">
            <title>Group_3</title>
            <g id="Group_23">
              <title>Graphic_4</title>
              <g id="Graphic_24">
                <path d="M 55.06769 149.84435 C 47.95019 149.84435 40.809637 148.71529 33.91931 146.428 C 33.33613 146.23475 33.020806 145.60613 33.21407 145.02363 C 33.40733 144.44113 34.036623 144.12445 34.619124 144.31907 C 52.197903 150.15425 71.47468 148.19518 87.50872 138.94569 L 87.68435 138.84465 C 100.72111 131.323 109.49389 117.88817 111.14985 102.90793 C 111.396 100.67897 110.86707 98.56867 109.66003 96.96561 C 108.62794 95.59582 107.35376 94.83904 105.76493 94.65188 C 101.15714 94.106 95.74646 98.5368 95.69221 98.58224 C 95.22092 98.97283 94.51975 98.90705 94.12848 98.43373 C 93.73653 97.96108 93.80298 97.26059 94.27631 96.86932 C 94.52721 96.66181 100.48581 91.7943 106.02465 92.44462 C 108.21835 92.70298 110.03842 93.7744 111.43533 95.62904 C 112.98483 97.68577 113.66769 100.35754 113.35915 103.15205 C 111.6252 118.83279 102.44217 132.89554 88.79442 140.76982 L 88.61947 140.87085 C 78.32161 146.81114 66.72788 149.84435 55.06769 149.84435" fill="white"/>
              </g>
            </g>
          </g>
        </g>
        <g id="wordmark-large--shape">
          <title>Group_45</title>
          <g id="Group_19">
            <title>Graphic_37</title>
            <g id="Graphic_20">
              <path d="M 258.0951 131.74321 L 258.0951 130.50232 L 263.30685 130.50232 C 265.12686 130.50232 266.63658 130.04733 267.8361 129.13735 C 269.03563 128.22735 269.6354 125.99377 269.6354 122.43653 L 269.6354 44.38451 L 261.69368 44.38451 C 254.99286 44.38451 250.11206 45.70811 247.0512 48.355365 C 243.9903 51.002605 242.25308 55.469766 241.83945 61.756975 L 241.46718 67.2169 L 240.2263 67.2169 L 241.0949 43.14362 L 317.90603 43.14362 L 318.77467 67.2169 L 317.53376 67.2169 L 317.1615 61.756975 C 316.7479 55.469766 315.01063 51.002605 311.94977 48.355365 C 308.8889 45.70811 304.0081 44.38451 297.30727 44.38451 L 289.36556 44.38451 L 289.36556 122.43653 C 289.36556 125.99377 289.9653 128.22735 291.16485 129.13735 C 292.36437 130.04733 293.87413 130.50232 295.6941 130.50232 L 300.90584 130.50232 L 300.90584 131.74321 Z" fill="white"/>
            </g>
          </g>
          <g id="Group_17">
            <title>Graphic_38</title>
            <g id="Graphic_18">
              <path d="M 322.12507 131.74321 L 322.12507 130.50232 L 323.61415 130.50232 C 324.85503 130.50232 326.15796 130.31619 327.523 129.94392 C 328.88793 129.57165 330.0461 128.82713 330.9974 127.71032 C 331.9488 126.59351 332.42447 124.83561 332.42447 122.43653 L 332.42447 46.245847 C 332.42447 44.012234 331.9281 42.35773 330.9354 41.28229 C 329.94267 40.206845 328.76385 39.503675 327.39885 39.172765 C 326.0339 38.84186 324.7723 38.676414 323.61415 38.676414 L 322.12507 38.676414 L 322.12507 37.435523 L 351.286 37.435523 L 351.286 62.37742 C 351.286 64.7765 351.286 67.15485 351.286 69.51255 C 351.286 71.87025 351.24468 74.2486 351.16192 76.647665 L 351.4101 76.647665 C 352.4028 72.92498 353.82983 70.13301 355.69117 68.27166 C 357.5525 66.41031 359.6827 65.16943 362.08175 64.548986 C 364.48083 63.92854 366.8799 63.61831 369.2789 63.61831 C 376.55884 63.61831 381.97736 65.521 385.5346 69.326414 C 389.0918 73.13183 390.8704 79.21214 390.8704 87.56751 L 390.8704 121.692 C 390.8704 125.58015 391.55288 128.02054 392.9179 129.01325 C 394.2829 130.00598 396.3717 130.50232 399.1844 130.50232 L 399.55665 130.50232 L 399.55665 131.74321 L 372.0089 131.74321 L 372.0089 83.47256 C 372.0089 78.09535 371.28505 74.06249 369.83735 71.373886 C 368.3896 68.68528 366.01126 67.340984 362.7022 67.340984 C 358.31768 67.340984 355.3189 69.53321 353.70574 73.91771 C 352.0926 78.30222 351.286 83.96889 351.286 90.91791 L 351.286 122.43653 C 351.286 124.83561 351.76168 126.59351 352.71303 127.71032 C 353.66437 128.82713 354.82255 129.57165 356.1875 129.94392 C 357.5525 130.31619 358.85546 130.50232 360.09633 130.50232 L 361.5854 130.50232 L 361.5854 131.74321 Z" fill="white"/>
            </g>
          </g>
          <g id="Group_15">
            <title>Graphic_39</title>
            <g id="Graphic_16">
              <path d="M 441.3747 132.9841 C 430.62026 132.9841 422.47183 130.006 416.92916 124.04969 C 411.38645 118.09339 408.61516 109.69678 408.61516 98.85962 C 408.61516 87.19519 411.28305 78.40562 416.6189 72.49068 C 421.95474 66.57574 429.54483 63.61831 439.3892 63.61831 C 448.40646 63.61831 455.50014 66.14143 460.67054 71.18775 C 465.84094 76.23407 468.4261 83.67934 468.4261 93.52379 L 468.4261 96.50192 L 427.72486 96.50192 C 427.72486 109.07635 429.0071 118.07271 431.57164 123.4913 C 434.13616 128.90987 438.35517 131.61913 444.22873 131.61913 C 448.53046 131.61913 452.23247 130.19212 455.3347 127.33805 C 458.4369 124.484 460.40166 119.66525 461.2289 112.88167 C 462.88347 113.21259 464.0623 113.91575 464.76546 114.99119 C 465.46867 116.06663 465.82025 117.30751 465.82025 118.71386 C 465.82025 121.11294 464.9102 123.38788 463.09023 125.53876 C 461.27026 127.68965 458.56106 129.46824 454.9624 130.87459 C 451.3638 132.28094 446.8346 132.9841 441.3747 132.9841 Z M 427.72486 95.26103 L 449.5645 95.26103 C 449.5645 87.81564 449.275 81.85943 448.69593 77.392205 C 448.1168 72.92498 447.08276 69.71937 445.5937 67.775295 C 444.1046 65.83123 442.0365 64.8592 439.3892 64.8592 C 435.33563 64.8592 432.3989 67.11347 430.5789 71.62206 C 428.7589 76.13065 427.8076 84.01023 427.72486 95.26103 Z" fill="white"/>
            </g>
          </g>
          <g id="Group_13">
            <title>Graphic_40</title>
            <g id="Graphic_14">
              <path d="M 505.03233 131.74321 L 505.03233 130.50232 L 510.2441 130.50232 C 511.9813 130.50232 513.4704 130.0887 514.71135 129.26144 C 515.9522 128.43417 516.57264 126.36604 516.57264 123.05699 L 516.57264 52.4503 C 516.57264 48.89307 515.97285 46.65949 514.77336 45.74949 C 513.57385 44.839503 512.0641 44.38451 510.2441 44.38451 L 505.03233 44.38451 L 505.03233 43.14362 L 573.6536 43.14362 L 574.39813 65.97601 L 573.1573 65.97601 L 572.785 61.756975 C 572.2059 55.469766 570.4066 51.002605 567.3871 48.355365 C 564.3676 45.70811 559.54885 44.38451 552.93075 44.38451 L 536.3028 44.38451 L 536.3028 84.83755 L 565.7119 84.83755 L 565.7119 86.07844 L 536.3028 86.07844 L 536.3028 122.43653 C 536.3028 125.99377 536.9026 128.22735 538.1021 129.13735 C 539.30164 130.04733 540.81135 130.50232 542.6313 130.50232 L 550.32486 130.50232 L 550.32486 131.74321 Z" fill="white"/>
            </g>
          </g>
          <g id="Group_11">
            <title>Graphic_41</title>
            <g id="Graphic_12">
              <path d="M 599.8364 54.063455 C 597.43736 54.063455 595.38994 53.33962 593.694 51.8919 C 591.9981 50.44419 591.15015 48.18992 591.15015 45.129044 C 591.15015 41.98544 591.9981 39.710494 593.694 38.304144 C 595.38994 36.897795 597.43736 36.194633 599.8364 36.194633 C 602.2355 36.194633 604.3036 36.897795 606.04086 38.304144 C 607.77816 39.710494 608.6467 41.98544 608.6467 45.129044 C 608.6467 48.18992 607.77816 50.44419 606.04086 51.8919 C 604.3036 53.33962 602.2355 54.063455 599.8364 54.063455 Z M 580.7267 131.74321 L 580.7267 130.50232 L 582.2158 130.50232 C 583.4567 130.50232 584.7596 130.31619 586.1246 129.94392 C 587.4895 129.57165 588.6477 128.82713 589.5991 127.71032 C 590.5504 126.59351 591.0261 124.83561 591.0261 122.43653 L 591.0261 74.0418 C 591.0261 71.80818 590.52974 70.15368 589.53706 69.07824 C 588.54426 68.002794 587.3655 67.29963 586.00044 66.96873 C 584.6355 66.63782 583.37394 66.47236 582.2158 66.47236 L 580.7267 66.47236 L 580.7267 65.23147 L 609.88764 65.23147 L 609.88764 122.43653 C 609.88764 124.83561 610.3633 126.59351 611.31465 127.71032 C 612.266 128.82713 613.42414 129.57165 614.78915 129.94392 C 616.15416 130.31619 617.45704 130.50232 618.698 130.50232 L 620.1871 130.50232 L 620.1871 131.74321 Z" fill="white"/>
            </g>
          </g>
          <g id="Group_9">
            <title>Graphic_42</title>
            <g id="Graphic_10">
              <path d="M 624.406 131.74321 L 624.406 130.50232 L 625.8951 130.50232 C 627.13606 130.50232 628.43894 130.31619 629.8039 129.94392 C 631.16896 129.57165 632.327 128.82713 633.27845 127.71032 C 634.22974 126.59351 634.70546 124.83561 634.70546 122.43653 L 634.70546 74.0418 C 634.70546 71.80818 634.20906 70.15368 633.2164 69.07824 C 632.2237 68.002794 631.0448 67.29963 629.6799 66.96873 C 628.3148 66.63782 627.0533 66.47236 625.8951 66.47236 L 624.406 66.47236 L 624.406 65.23147 L 653.56696 65.23147 L 653.56696 76.52358 L 653.81516 76.52358 C 654.8079 72.80089 656.2142 70.02959 658.0342 68.20962 C 659.8542 66.38963 661.96365 65.16943 664.3628 64.548986 C 666.7618 63.92854 669.1608 63.61831 671.5599 63.61831 C 678.8398 63.61831 684.2583 65.521 687.8155 69.326414 C 691.3728 73.13183 693.1514 79.21214 693.1514 87.56751 L 693.1514 121.692 C 693.1514 125.58015 693.8339 128.02054 695.19885 129.01325 C 696.5638 130.00598 698.6527 130.50232 701.4654 130.50232 L 701.83764 130.50232 L 701.83764 131.74321 L 674.2898 131.74321 L 674.2898 83.47256 C 674.2898 78.09535 673.566 74.06249 672.11825 71.373886 C 670.67055 68.68528 668.2922 67.340984 664.9832 67.340984 C 660.5987 67.340984 657.59986 69.53321 655.9867 73.91771 C 654.3736 78.30222 653.56696 83.96889 653.56696 90.91791 L 653.56696 122.43653 C 653.56696 124.83561 654.0427 126.59351 654.994 127.71032 C 655.9454 128.82713 657.1035 129.57165 658.4685 129.94392 C 659.8335 130.31619 661.13636 130.50232 662.3773 130.50232 L 663.8664 130.50232 L 663.8664 131.74321 Z" fill="white"/>
            </g>
          </g>
          <g id="Group_7">
            <title>Graphic_43</title>
            <g id="Graphic_8">
              <path d="M 741.7943 132.9841 C 735.6726 132.9841 730.2747 131.888 725.6007 129.69574 C 720.9266 127.5035 717.3075 123.90495 714.7429 118.9 C 712.1784 113.89505 710.8961 107.17362 710.8961 98.73552 C 710.8961 89.80106 712.2197 82.7901 714.867 77.70242 C 717.5142 72.61475 721.17486 68.99552 725.84885 66.84463 C 730.5229 64.69374 735.8793 63.61831 741.9184 63.61831 C 749.4465 63.61831 755.32 64.85919 759.5391 67.340984 C 763.75805 69.82278 765.8675 73.04906 765.8675 77.019935 C 765.8675 78.59174 765.4333 80.16351 764.5647 81.73532 C 763.696 83.30713 762.1036 84.61005 759.7872 85.64413 C 757.4708 86.67821 754.1619 87.19524 749.8601 87.19524 C 749.8601 81.48711 749.5912 77.01995 749.0535 73.79363 C 748.5158 70.56729 747.6265 68.27166 746.3856 66.90667 C 745.1447 65.54169 743.4075 64.8592 741.17385 64.8592 C 738.4439 64.8592 736.2517 65.89327 734.5971 67.96143 C 732.9427 70.0296 731.7638 73.52474 731.0606 78.44696 C 730.3575 83.36918 730.0059 90.09061 730.0059 98.61144 C 730.0059 110.52405 731.1846 119.00339 733.5424 124.04969 C 735.9001 129.09601 739.8502 131.61913 745.3929 131.61913 C 749.6947 131.61913 753.3553 130.23348 756.3747 127.46215 C 759.3943 124.69081 761.3177 119.87207 762.145 113.00577 C 763.4685 113.4194 764.5026 114.2053 765.2471 115.36346 C 765.9917 116.52163 766.3639 117.84524 766.3639 119.3343 C 766.3639 121.40248 765.4953 123.49129 763.75805 125.60081 C 762.0208 127.71034 759.3529 129.46824 755.7543 130.87459 C 752.15575 132.28094 747.5024 132.9841 741.7943 132.9841 Z" fill="white"/>
            </g>
          </g>
          <g id="Group_5">
            <title>Graphic_44</title>
            <g id="Graphic_6">
              <path d="M 772.5684 131.74321 L 772.5684 130.50232 L 774.0575 130.50232 C 775.2984 130.50232 776.6013 130.31619 777.9662 129.94392 C 779.3313 129.57165 780.4894 128.82713 781.4408 127.71032 C 782.3921 126.59351 782.8678 124.83561 782.8678 122.43653 L 782.8678 46.245847 C 782.8678 44.012234 782.3714 42.35773 781.3787 41.28229 C 780.3861 40.206845 779.2072 39.503675 777.8422 39.172765 C 776.4772 38.84186 775.2157 38.676414 774.0575 38.676414 L 772.5684 38.676414 L 772.5684 37.435523 L 801.7293 37.435523 L 801.7293 62.37742 C 801.7293 64.7765 801.7293 67.15485 801.7293 69.51255 C 801.7293 71.87025 801.6879 74.2486 801.6052 76.647665 L 801.8534 76.647665 C 802.8461 72.92498 804.2731 70.13301 806.1345 68.27166 C 807.9958 66.41031 810.126 65.16943 812.5251 64.548986 C 814.9241 63.92854 817.3231 63.61831 819.7223 63.61831 C 827.0022 63.61831 832.4207 65.521 835.9779 69.326414 C 839.5352 73.13183 841.3138 79.21214 841.3138 87.56751 L 841.3138 121.692 C 841.3138 125.58015 841.9963 128.02054 843.3612 129.01325 C 844.7262 130.00598 846.815 130.50232 849.6277 130.50232 L 850 130.50232 L 850 131.74321 L 822.4522 131.74321 L 822.4522 83.47256 C 822.4522 78.09535 821.7283 74.06249 820.2806 71.373886 C 818.8329 68.68528 816.4546 67.340984 813.1455 67.340984 C 808.7611 67.340984 805.7622 69.53321 804.1491 73.91771 C 802.5359 78.30222 801.7293 83.96889 801.7293 90.91791 L 801.7293 122.43653 C 801.7293 124.83561 802.205 126.59351 803.1563 127.71032 C 804.1078 128.82713 805.2658 129.57165 806.6309 129.94392 C 807.9958 130.31619 809.2987 130.50232 810.5397 130.50232 L 812.0287 130.50232 L 812.0287 131.74321 Z" fill="white"/>
            </g>
          </g>
        </g>
      </g>
    </g>

  </g>
</svg>
